<?xml version="1.0" encoding="UTF-8" standalone="no"?>
<svg
   xmlns:dc="http://purl.org/dc/elements/1.1/"
   xmlns:cc="http://creativecommons.org/ns#"
   xmlns:rdf="http://www.w3.org/1999/02/22-rdf-syntax-ns#"
   xmlns:svg="http://www.w3.org/2000/svg"
   xmlns="http://www.w3.org/2000/svg"
   xmlns:sodipodi="http://sodipodi.sourceforge.net/DTD/sodipodi-0.dtd"
   xmlns:inkscape="http://www.inkscape.org/namespaces/inkscape"
   version="1.1"
   id="Layer_1"
   x="0px"
   y="0px"
   viewBox="0 0 799.99994 871.37615"
   xml:space="preserve"
   sodipodi:docname="large_logo.svg"
   width="800"
   height="871.37616"
   inkscape:version="1.0.1 (c497b03c, 2020-09-10)"
   inkscape:export-filename="/Users/amandamoreton/bitmap.png"
   inkscape:export-xdpi="316.95001"
   inkscape:export-ydpi="316.95001"><metadata
   id="metadata1581"><rdf:RDF><cc:Work
       rdf:about=""><dc:format>image/svg+xml</dc:format><dc:type
         rdf:resource="http://purl.org/dc/dcmitype/StillImage" /><dc:title></dc:title></cc:Work></rdf:RDF></metadata><defs
   id="defs1579">
	
	
	
	
	
	
</defs><sodipodi:namedview
   pagecolor="#ffffff"
   bordercolor="#666666"
   borderopacity="1"
   objecttolerance="10"
   gridtolerance="10"
   guidetolerance="10"
   inkscape:pageopacity="0"
   inkscape:pageshadow="2"
   inkscape:window-width="1920"
   inkscape:window-height="1052"
   id="namedview1577"
   showgrid="false"
   fit-margin-top="0"
   fit-margin-left="0"
   fit-margin-right="0"
   fit-margin-bottom="0"
   inkscape:zoom="0.60033063"
   inkscape:cx="-15.350414"
   inkscape:cy="625.92745"
   inkscape:window-x="1440"
   inkscape:window-y="0"
   inkscape:window-maximized="0"
   inkscape:current-layer="Layer_1"
   inkscape:document-rotation="0" />
<style
   type="text/css"
   id="style1208">
	.st0{fill:#FFFFFF;}
	.st1{fill:#414042;}
	.st2{fill:#E84A87;}
	.st3{fill:#58595B;}
	.st4{opacity:0.55;}
	.st5{opacity:0.55;fill:#E84A87;}
	.st6{fill:#808285;}
	.st7{opacity:0.55;fill:#58595B;}
	.st8{font-family:'Montserrat-Bold';}
	.st9{font-size:12.5673px;}
</style>












<path
   class="st0"
   d="M 83.06944,415.59086 C 37.271632,415.59086 0,452.86242 0,498.66032 v 289.6465 c 0,45.79774 37.271632,83.06934 83.06944,83.06934 45.79774,0 83.06941,-37.2716 83.06941,-83.06934 v -289.6465 c 0,-45.7979 -37.27167,-83.06946 -83.06941,-83.06946 z"
   id="path1462"
   style="fill:#e84a87;fill-opacity:1;stroke-width:24.3627" /><path
   class="st0"
   d="m 398.5383,255.54214 c 45.79776,0 83.06962,-37.27171 83.06962,-83.0695 v -4.14135 c 0,-45.79776 -37.27186,-83.069426 -83.06962,-83.069426 -45.79766,0 -83.06934,37.271666 -83.06934,83.069426 v 4.14135 c 0,45.79779 37.02786,83.0695 83.06934,83.0695 z"
   id="path1464"
   style="fill:#e84a87;fill-opacity:1;stroke-width:24.3627" /><path
   class="st0"
   d="m 715.95632,526.18746 c -45.79792,0 -83.0695,37.27168 -83.0695,83.0694 v 43.1185 135.93146 c 0,45.79774 37.27158,83.06934 83.0695,83.06934 45.79754,0 83.06922,-37.2716 83.06922,-83.06934 v -135.93146 -43.1185 c 0,-45.79772 -37.27168,-83.0694 -83.06922,-83.0694 z"
   id="path1466"
   style="fill:#414042;fill-opacity:1;stroke-width:24.3627" /><path
   class="st0"
   d="m 398.5383,559.0743 c -45.79766,0 -83.06934,37.27156 -83.06934,83.0696 v 146.16292 c 0,45.79774 37.27168,83.06934 83.06934,83.06934 45.79776,0 83.06962,-37.2716 83.06962,-83.06934 V 642.1439 c 0,-45.79804 -37.27186,-83.0696 -83.06962,-83.0696 z"
   id="path1468"
   style="fill:#e84a87;fill-opacity:1;stroke-width:24.3627" /><path
   class="st0"
   d="m 716.93062,237.27186 v 0 c -45.79782,0 -83.06934,37.27156 -83.06934,83.06928 v 72.59464 c 0,45.79756 37.27152,83.06916 83.06934,83.06916 v 0 c 45.79754,0 83.06938,-37.2716 83.06938,-83.06916 v -72.59464 c 0,-45.79772 -37.27184,-83.06928 -83.06938,-83.06928 z"
   id="path1470"
   style="fill:#414042;fill-opacity:1;stroke-width:24.3627" /><path
   class="st0"
   d="m 694.0319,167.11323 c 7.0642,1.94899 14.12868,3.16686 21.92442,3.16686 45.79754,0 83.06922,-37.27155 83.06922,-83.069378 V 83.06944 C 799.02554,37.271632 761.75386,0 715.95632,0 670.1584,0 632.88682,37.271632 632.88682,83.06944 v 4.141272 c 0,8.526144 1.70528,16.565188 4.14144,24.360498 l -216.3218,231.91221 c -7.06468,-1.94808 -14.37272,-3.41054 -22.16816,-3.41054 -17.05216,0 -32.6428,5.11594 -45.79766,13.88586 L 166.13885,248.72086 v -3.16668 c 0,-45.79783 -37.27167,-83.06937 -83.06941,-83.06937 C 37.271632,162.48481 0,199.75635 0,245.55418 v 4.14163 c 0,45.79755 37.271632,83.06913 83.06944,83.06913 16.808792,0 32.39948,-5.11582 45.5543,-13.64206 L 315.46896,424.6043 v 2.92348 c 0,45.79752 37.27168,83.06908 83.06934,83.06908 45.79776,0 83.06962,-37.27156 83.06962,-83.06908 v -4.14164 c 0,-8.5264 -1.70552,-16.32192 -3.8977,-24.11684 z"
   id="path1472"
   style="fill:#e84a87;fill-opacity:1;stroke-width:24.3627" />














</svg>
