<?xml version="1.0" encoding="UTF-8" standalone="no"?>
<svg
   xmlns:dc="http://purl.org/dc/elements/1.1/"
   xmlns:cc="http://creativecommons.org/ns#"
   xmlns:rdf="http://www.w3.org/1999/02/22-rdf-syntax-ns#"
   xmlns:svg="http://www.w3.org/2000/svg"
   xmlns="http://www.w3.org/2000/svg"
   xmlns:sodipodi="http://sodipodi.sourceforge.net/DTD/sodipodi-0.dtd"
   xmlns:inkscape="http://www.inkscape.org/namespaces/inkscape"
   version="1.1"
   id="Layer_1"
   x="0px"
   y="0px"
   viewBox="0 0 151.80999 37.970001"
   xml:space="preserve"
   sodipodi:docname="ASVG.svg"
   width="151.81"
   height="37.970001"
   inkscape:version="1.0.1 (c497b03c, 2020-09-10)"><metadata
   id="metadata1581"><rdf:RDF><cc:Work
       rdf:about=""><dc:format>image/svg+xml</dc:format><dc:type
         rdf:resource="http://purl.org/dc/dcmitype/StillImage" /><dc:title></dc:title></cc:Work></rdf:RDF></metadata><defs
   id="defs1579">
	
	
	
	
	
	
</defs><sodipodi:namedview
   pagecolor="#ffffff"
   bordercolor="#666666"
   borderopacity="1"
   objecttolerance="10"
   gridtolerance="10"
   guidetolerance="10"
   inkscape:pageopacity="0"
   inkscape:pageshadow="2"
   inkscape:window-width="1440"
   inkscape:window-height="872"
   id="namedview1577"
   showgrid="false"
   fit-margin-top="0"
   fit-margin-left="0"
   fit-margin-right="0"
   fit-margin-bottom="0"
   inkscape:zoom="4.802645"
   inkscape:cx="24.320706"
   inkscape:cy="23.427423"
   inkscape:window-x="0"
   inkscape:window-y="0"
   inkscape:window-maximized="0"
   inkscape:current-layer="Layer_1" />
<style
   type="text/css"
   id="style1208">
	.st0{fill:#FFFFFF;}
	.st1{fill:#414042;}
	.st2{fill:#E84A87;}
	.st3{fill:#58595B;}
	.st4{opacity:0.55;}
	.st5{opacity:0.55;fill:#E84A87;}
	.st6{fill:#808285;}
	.st7{opacity:0.55;fill:#58595B;}
	.st8{font-family:'Montserrat-Bold';}
	.st9{font-size:12.5673px;}
</style>











<g
   id="g1460"
   style="fill:#414042;fill-opacity:1"
   transform="translate(-385.16,-460.14999)">
	<g
   id="g1436"
   style="fill:#414042;fill-opacity:1">
		<g
   id="g1394"
   style="fill:#414042;fill-opacity:1">
			<path
   class="st0"
   d="m 433.89,482.07 v -13.84 h 3.2 v 13.84 z"
   id="path1392"
   style="fill:#414042;fill-opacity:1" />
		</g>
		<g
   id="g1398"
   style="fill:#414042;fill-opacity:1">
			<path
   class="st0"
   d="m 445.83,471.27 c 0.84,0 1.6,0.17 2.26,0.5 0.67,0.34 1.19,0.85 1.57,1.54 0.38,0.69 0.57,1.58 0.57,2.66 v 6.09 h -3.08 v -5.62 c 0,-0.86 -0.19,-1.49 -0.56,-1.9 -0.38,-0.41 -0.91,-0.61 -1.59,-0.61 -0.49,0 -0.93,0.1 -1.32,0.31 -0.39,0.2 -0.69,0.52 -0.91,0.94 -0.22,0.42 -0.33,0.96 -0.33,1.62 v 5.26 h -3.08 v -10.64 h 2.95 v 2.95 l -0.55,-0.89 c 0.38,-0.71 0.93,-1.26 1.64,-1.64 0.71,-0.37 1.52,-0.57 2.43,-0.57 z"
   id="path1396"
   style="fill:#414042;fill-opacity:1" />
		</g>
		<g
   id="g1402"
   style="fill:#414042;fill-opacity:1">
			<path
   class="st0"
   d="m 450.97,474.04 v -2.37 h 7.38 v 2.37 z m 5.61,8.19 c -1.25,0 -2.23,-0.32 -2.93,-0.96 -0.7,-0.64 -1.05,-1.59 -1.05,-2.86 v -9.33 h 3.08 v 9.29 c 0,0.45 0.12,0.79 0.36,1.04 0.24,0.24 0.56,0.37 0.97,0.37 0.49,0 0.9,-0.13 1.25,-0.4 l 0.83,2.18 c -0.32,0.22 -0.7,0.39 -1.14,0.5 -0.43,0.11 -0.89,0.17 -1.37,0.17 z"
   id="path1400"
   style="fill:#414042;fill-opacity:1" />
		</g>
		<g
   id="g1406"
   style="fill:#414042;fill-opacity:1">
			<path
   class="st0"
   d="m 464.99,482.23 c -1.21,0 -2.28,-0.24 -3.19,-0.71 -0.92,-0.47 -1.62,-1.12 -2.13,-1.95 -0.5,-0.82 -0.75,-1.76 -0.75,-2.82 0,-1.07 0.25,-2.01 0.74,-2.84 0.49,-0.82 1.17,-1.47 2.03,-1.94 0.86,-0.47 1.83,-0.7 2.91,-0.7 1.04,0 1.98,0.22 2.82,0.66 0.84,0.44 1.5,1.07 1.99,1.9 0.49,0.82 0.73,1.81 0.73,2.96 0,0.12 -0.01,0.25 -0.02,0.41 -0.01,0.15 -0.03,0.29 -0.04,0.43 h -8.64 v -1.8 h 7.02 l -1.19,0.53 c 0,-0.55 -0.11,-1.04 -0.34,-1.44 -0.22,-0.41 -0.53,-0.73 -0.93,-0.96 -0.4,-0.23 -0.86,-0.35 -1.38,-0.35 -0.53,0 -0.99,0.12 -1.39,0.35 -0.4,0.23 -0.71,0.55 -0.94,0.97 -0.23,0.42 -0.34,0.91 -0.34,1.47 v 0.47 c 0,0.58 0.13,1.09 0.39,1.53 0.26,0.44 0.62,0.78 1.09,1.01 0.47,0.23 1.02,0.35 1.65,0.35 0.57,0 1.06,-0.09 1.49,-0.26 0.43,-0.17 0.82,-0.43 1.18,-0.77 l 1.64,1.78 c -0.49,0.55 -1.1,0.98 -1.84,1.28 -0.75,0.29 -1.6,0.44 -2.56,0.44 z"
   id="path1404"
   style="fill:#414042;fill-opacity:1" />
		</g>
		<g
   id="g1410"
   style="fill:#414042;fill-opacity:1">
			<path
   class="st0"
   d="m 477.86,471.27 c 0.84,0 1.6,0.17 2.26,0.5 0.67,0.34 1.19,0.85 1.57,1.54 0.38,0.69 0.57,1.58 0.57,2.66 v 6.09 h -3.08 v -5.62 c 0,-0.86 -0.19,-1.49 -0.56,-1.9 -0.38,-0.41 -0.91,-0.61 -1.59,-0.61 -0.49,0 -0.93,0.1 -1.32,0.31 -0.39,0.2 -0.69,0.52 -0.91,0.94 -0.22,0.42 -0.33,0.96 -0.33,1.62 v 5.26 h -3.08 v -10.64 h 2.95 v 2.95 l -0.55,-0.89 c 0.38,-0.71 0.93,-1.26 1.64,-1.64 0.71,-0.37 1.52,-0.57 2.43,-0.57 z"
   id="path1408"
   style="fill:#414042;fill-opacity:1" />
		</g>
		<g
   id="g1414"
   style="fill:#414042;fill-opacity:1">
			<path
   class="st0"
   d="m 483,474.04 v -2.37 h 7.38 v 2.37 z m 5.62,8.19 c -1.25,0 -2.23,-0.32 -2.93,-0.96 -0.7,-0.64 -1.05,-1.59 -1.05,-2.86 v -9.33 h 3.08 v 9.29 c 0,0.45 0.12,0.79 0.36,1.04 0.24,0.24 0.56,0.37 0.97,0.37 0.49,0 0.9,-0.13 1.25,-0.4 l 0.83,2.18 c -0.32,0.22 -0.7,0.39 -1.14,0.5 -0.44,0.11 -0.9,0.17 -1.37,0.17 z"
   id="path1412"
   style="fill:#414042;fill-opacity:1" />
		</g>
		<g
   id="g1418"
   style="fill:#414042;fill-opacity:1">
			<path
   class="st0"
   d="m 493.62,469.95 c -0.63,0 -1.14,-0.21 -1.51,-0.62 -0.25,-0.28 -0.4,-0.65 -0.41,-1.03 -0.02,-0.52 0.16,-0.95 0.53,-1.3 0.36,-0.33 0.82,-0.49 1.38,-0.49 0.57,0 1.03,0.15 1.38,0.46 0.36,0.31 0.53,0.71 0.53,1.2 0,0.51 -0.17,0.94 -0.52,1.28 -0.34,0.33 -0.8,0.5 -1.38,0.5 z m -1.54,12.12 v -10.64 h 3.08 v 10.64 z"
   id="path1416"
   style="fill:#414042;fill-opacity:1" />
		</g>
		<g
   id="g1422"
   style="fill:#414042;fill-opacity:1">
			<path
   class="st0"
   d="m 502.3,482.23 c -1.13,0 -2.14,-0.24 -3.02,-0.71 -0.88,-0.47 -1.57,-1.12 -2.08,-1.95 -0.51,-0.82 -0.76,-1.76 -0.76,-2.82 0,-1.07 0.25,-2.01 0.76,-2.84 0.51,-0.82 1.2,-1.47 2.08,-1.94 0.88,-0.47 1.88,-0.7 3.02,-0.7 1.12,0 2.12,0.23 3.01,0.7 0.88,0.47 1.57,1.11 2.08,1.93 0.5,0.82 0.75,1.77 0.75,2.85 0,1.05 -0.25,1.99 -0.75,2.82 -0.5,0.82 -1.19,1.47 -2.08,1.95 -0.89,0.47 -1.89,0.71 -3.01,0.71 z m 0,-2.53 c 0.51,0 0.98,-0.12 1.38,-0.36 0.41,-0.24 0.73,-0.58 0.97,-1.02 0.24,-0.44 0.36,-0.97 0.36,-1.57 0,-0.62 -0.12,-1.15 -0.36,-1.58 -0.24,-0.43 -0.56,-0.77 -0.97,-1.01 -0.41,-0.24 -0.87,-0.36 -1.38,-0.36 -0.51,0 -0.98,0.12 -1.38,0.36 -0.41,0.24 -0.74,0.57 -0.98,1.01 -0.24,0.44 -0.37,0.96 -0.37,1.58 0,0.61 0.12,1.13 0.37,1.57 0.24,0.44 0.57,0.78 0.98,1.02 0.4,0.24 0.86,0.36 1.38,0.36 z"
   id="path1420"
   style="fill:#414042;fill-opacity:1" />
		</g>
		<g
   id="g1426"
   style="fill:#414042;fill-opacity:1">
			<path
   class="st0"
   d="m 515.86,471.27 c 0.84,0 1.6,0.17 2.26,0.5 0.67,0.34 1.19,0.85 1.57,1.54 0.38,0.69 0.57,1.58 0.57,2.66 v 6.09 h -3.08 v -5.62 c 0,-0.86 -0.19,-1.49 -0.56,-1.9 -0.38,-0.41 -0.91,-0.61 -1.59,-0.61 -0.49,0 -0.93,0.1 -1.32,0.31 -0.39,0.2 -0.69,0.52 -0.91,0.94 -0.22,0.42 -0.33,0.96 -0.33,1.62 v 5.26 h -3.08 v -10.64 h 2.95 v 2.95 l -0.55,-0.89 c 0.38,-0.71 0.93,-1.26 1.64,-1.64 0.71,-0.37 1.52,-0.57 2.43,-0.57 z"
   id="path1424"
   style="fill:#414042;fill-opacity:1" />
		</g>
		<g
   id="g1430"
   style="fill:#414042;fill-opacity:1">
			<path
   class="st0"
   d="m 525.55,482.23 c -0.83,0 -1.54,-0.14 -2.14,-0.43 -0.59,-0.28 -1.05,-0.67 -1.36,-1.16 -0.32,-0.49 -0.47,-1.03 -0.47,-1.64 0,-0.63 0.15,-1.19 0.46,-1.66 0.31,-0.47 0.8,-0.85 1.47,-1.12 0.67,-0.27 1.55,-0.41 2.63,-0.41 h 2.83 v 1.8 h -2.49 c -0.73,0 -1.22,0.12 -1.49,0.36 -0.27,0.24 -0.4,0.53 -0.4,0.89 0,0.4 0.15,0.71 0.46,0.94 0.31,0.23 0.73,0.35 1.28,0.35 0.51,0 0.98,-0.12 1.38,-0.37 0.41,-0.24 0.7,-0.6 0.89,-1.08 l 0.47,1.42 c -0.22,0.69 -0.63,1.21 -1.23,1.56 -0.59,0.37 -1.35,0.55 -2.29,0.55 z m 3.24,-0.16 v -2.08 l -0.2,-0.45 v -3.72 c 0,-0.66 -0.2,-1.17 -0.6,-1.54 -0.4,-0.37 -1.02,-0.55 -1.85,-0.55 -0.57,0 -1.12,0.09 -1.67,0.27 -0.55,0.18 -1.01,0.42 -1.39,0.72 l -1.11,-2.16 c 0.58,-0.41 1.28,-0.73 2.1,-0.95 0.82,-0.22 1.65,-0.34 2.49,-0.34 1.62,0 2.88,0.38 3.78,1.15 0.9,0.76 1.34,1.96 1.34,3.58 v 6.07 z"
   id="path1428"
   style="fill:#414042;fill-opacity:1" />
		</g>
		<g
   id="g1434"
   style="fill:#414042;fill-opacity:1">
			<path
   class="st0"
   d="M 533.68,482.07 V 467.4 h 3.08 v 14.67 z"
   id="path1432"
   style="fill:#414042;fill-opacity:1" />
		</g>
	</g>
	<g
   id="g1458"
   style="fill:#414042;fill-opacity:1">
		<path
   class="st0"
   d="m 435.62,491.66 v -4.4 h -1.73 v -1.02 h 4.72 v 1.02 h -1.73 v 4.4 z"
   id="path1438"
   style="fill:#414042;fill-opacity:1" />
		<path
   class="st0"
   d="m 445.64,490.65 h 2.95 v 1.01 h -4.2 v -5.42 h 4.1 v 1.01 h -2.85 z m -0.1,-2.23 h 2.61 v 0.98 h -2.61 z"
   id="path1440"
   style="fill:#414042;fill-opacity:1" />
		<path
   class="st0"
   d="m 457.29,491.75 c -0.42,0 -0.81,-0.07 -1.17,-0.21 -0.36,-0.14 -0.67,-0.33 -0.93,-0.58 -0.26,-0.25 -0.47,-0.55 -0.62,-0.89 -0.15,-0.34 -0.22,-0.71 -0.22,-1.12 0,-0.41 0.07,-0.78 0.22,-1.12 0.15,-0.34 0.35,-0.64 0.62,-0.89 0.27,-0.25 0.58,-0.45 0.93,-0.58 0.36,-0.14 0.75,-0.21 1.17,-0.21 0.47,0 0.89,0.08 1.27,0.24 0.38,0.16 0.7,0.4 0.96,0.72 l -0.81,0.74 c -0.19,-0.21 -0.39,-0.37 -0.62,-0.48 -0.23,-0.11 -0.47,-0.16 -0.74,-0.16 -0.25,0 -0.49,0.04 -0.7,0.12 -0.21,0.08 -0.39,0.2 -0.55,0.36 -0.15,0.15 -0.27,0.34 -0.36,0.55 -0.09,0.21 -0.13,0.45 -0.13,0.7 0,0.25 0.04,0.49 0.13,0.7 0.09,0.21 0.21,0.39 0.36,0.55 0.16,0.15 0.34,0.27 0.55,0.36 0.21,0.08 0.44,0.12 0.7,0.12 0.27,0 0.52,-0.05 0.74,-0.16 0.23,-0.11 0.43,-0.27 0.62,-0.48 l 0.81,0.74 c -0.26,0.31 -0.58,0.55 -0.96,0.72 -0.37,0.18 -0.8,0.26 -1.27,0.26 z"
   id="path1442"
   style="fill:#414042;fill-opacity:1" />
		<path
   class="st0"
   d="m 466.73,491.66 h -1.25 v -5.42 h 1.25 z m 2.56,-2.22 h -2.65 v -1.06 h 2.65 z m -0.09,-3.2 h 1.25 v 5.42 h -1.25 z"
   id="path1444"
   style="fill:#414042;fill-opacity:1" />
		<path
   class="st0"
   d="m 476.84,491.66 v -5.42 h 1.04 l 3.2,3.9 h -0.5 v -3.9 h 1.24 v 5.42 h -1.03 l -3.21,-3.9 h 0.5 v 3.9 z"
   id="path1446"
   style="fill:#414042;fill-opacity:1" />
		<path
   class="st0"
   d="m 490.84,491.75 c -0.43,0 -0.82,-0.07 -1.19,-0.21 -0.36,-0.14 -0.68,-0.34 -0.94,-0.59 -0.27,-0.25 -0.47,-0.55 -0.62,-0.89 -0.15,-0.34 -0.22,-0.71 -0.22,-1.11 0,-0.4 0.07,-0.77 0.22,-1.11 0.15,-0.34 0.35,-0.64 0.62,-0.89 0.27,-0.25 0.58,-0.45 0.94,-0.59 0.36,-0.14 0.75,-0.21 1.18,-0.21 0.43,0 0.82,0.07 1.18,0.21 0.36,0.14 0.67,0.34 0.94,0.59 0.27,0.25 0.47,0.55 0.62,0.89 0.15,0.34 0.22,0.71 0.22,1.12 0,0.4 -0.07,0.78 -0.22,1.12 -0.15,0.34 -0.36,0.64 -0.62,0.89 -0.27,0.25 -0.58,0.45 -0.94,0.58 -0.36,0.13 -0.75,0.2 -1.17,0.2 z m -0.01,-1.07 c 0.24,0 0.47,-0.04 0.67,-0.12 0.2,-0.08 0.38,-0.2 0.54,-0.36 0.15,-0.15 0.28,-0.34 0.36,-0.55 0.09,-0.21 0.13,-0.45 0.13,-0.7 0,-0.25 -0.04,-0.49 -0.13,-0.7 -0.08,-0.21 -0.2,-0.39 -0.36,-0.55 -0.15,-0.15 -0.33,-0.27 -0.54,-0.36 -0.21,-0.08 -0.43,-0.12 -0.67,-0.12 -0.24,0 -0.47,0.04 -0.67,0.12 -0.2,0.08 -0.38,0.2 -0.54,0.36 -0.15,0.15 -0.27,0.34 -0.36,0.55 -0.09,0.21 -0.13,0.45 -0.13,0.7 0,0.25 0.04,0.49 0.13,0.7 0.09,0.21 0.2,0.4 0.36,0.55 0.15,0.15 0.33,0.27 0.54,0.36 0.21,0.08 0.43,0.12 0.67,0.12 z"
   id="path1448"
   style="fill:#414042;fill-opacity:1" />
		<path
   class="st0"
   d="m 499.85,491.66 v -5.42 h 1.25 v 4.4 h 2.72 v 1.02 z"
   id="path1450"
   style="fill:#414042;fill-opacity:1" />
		<path
   class="st0"
   d="m 512.18,491.75 c -0.43,0 -0.82,-0.07 -1.19,-0.21 -0.36,-0.14 -0.68,-0.34 -0.94,-0.59 -0.27,-0.25 -0.47,-0.55 -0.62,-0.89 -0.15,-0.34 -0.22,-0.71 -0.22,-1.11 0,-0.4 0.07,-0.77 0.22,-1.11 0.15,-0.34 0.35,-0.64 0.62,-0.89 0.27,-0.25 0.58,-0.45 0.94,-0.59 0.36,-0.14 0.75,-0.21 1.18,-0.21 0.43,0 0.82,0.07 1.18,0.21 0.36,0.14 0.67,0.34 0.94,0.59 0.27,0.25 0.47,0.55 0.62,0.89 0.15,0.34 0.22,0.71 0.22,1.12 0,0.4 -0.07,0.78 -0.22,1.12 -0.15,0.34 -0.36,0.64 -0.62,0.89 -0.27,0.25 -0.58,0.45 -0.94,0.58 -0.36,0.13 -0.75,0.2 -1.17,0.2 z m -0.01,-1.07 c 0.24,0 0.47,-0.04 0.67,-0.12 0.2,-0.08 0.38,-0.2 0.54,-0.36 0.15,-0.15 0.28,-0.34 0.36,-0.55 0.09,-0.21 0.13,-0.45 0.13,-0.7 0,-0.25 -0.04,-0.49 -0.13,-0.7 -0.08,-0.21 -0.2,-0.39 -0.36,-0.55 -0.15,-0.15 -0.33,-0.27 -0.54,-0.36 -0.21,-0.08 -0.43,-0.12 -0.67,-0.12 -0.24,0 -0.47,0.04 -0.67,0.12 -0.2,0.08 -0.38,0.2 -0.54,0.36 -0.15,0.15 -0.27,0.34 -0.36,0.55 -0.09,0.21 -0.13,0.45 -0.13,0.7 0,0.25 0.04,0.49 0.13,0.7 0.09,0.21 0.2,0.4 0.36,0.55 0.15,0.15 0.33,0.27 0.54,0.36 0.2,0.08 0.43,0.12 0.67,0.12 z"
   id="path1452"
   style="fill:#414042;fill-opacity:1" />
		<path
   class="st0"
   d="m 523.8,491.75 c -0.43,0 -0.82,-0.07 -1.18,-0.21 -0.36,-0.14 -0.67,-0.33 -0.94,-0.58 -0.27,-0.25 -0.47,-0.55 -0.62,-0.89 -0.15,-0.34 -0.22,-0.71 -0.22,-1.12 0,-0.41 0.07,-0.78 0.22,-1.12 0.15,-0.34 0.35,-0.64 0.62,-0.89 0.27,-0.25 0.58,-0.45 0.94,-0.58 0.36,-0.14 0.76,-0.21 1.19,-0.21 0.48,0 0.91,0.08 1.3,0.24 0.38,0.16 0.71,0.39 0.97,0.7 l -0.81,0.74 c -0.2,-0.21 -0.41,-0.36 -0.64,-0.46 -0.23,-0.1 -0.48,-0.15 -0.76,-0.15 -0.26,0 -0.5,0.04 -0.72,0.12 -0.22,0.08 -0.4,0.2 -0.56,0.36 -0.16,0.15 -0.28,0.34 -0.36,0.55 -0.08,0.21 -0.13,0.45 -0.13,0.7 0,0.25 0.04,0.49 0.13,0.7 0.09,0.21 0.21,0.4 0.36,0.55 0.16,0.16 0.34,0.28 0.56,0.36 0.21,0.08 0.45,0.12 0.71,0.12 0.25,0 0.49,-0.04 0.72,-0.12 0.23,-0.08 0.46,-0.22 0.69,-0.41 l 0.71,0.91 c -0.29,0.22 -0.64,0.39 -1.03,0.51 -0.37,0.12 -0.76,0.18 -1.15,0.18 z m 1.05,-0.85 v -2.04 H 526 v 2.2 z"
   id="path1454"
   style="fill:#414042;fill-opacity:1" />
		<path
   class="st0"
   d="m 533.61,491.66 v -2.21 l 0.29,0.76 -2.38,-3.96 h 1.33 l 1.83,3.04 h -0.77 l 1.83,-3.04 h 1.23 l -2.38,3.96 0.28,-0.76 v 2.21 z"
   id="path1456"
   style="fill:#414042;fill-opacity:1" />
	</g>
</g>
<path
   class="st0"
   d="m 3.41,18.15001 c -1.88,0 -3.41,1.53 -3.41,3.41 v 11.89 c 0,1.88 1.53,3.41 3.41,3.41 1.88,0 3.41,-1.53 3.41,-3.41 v -11.89 c 0,-1.88 -1.53,-3.41 -3.41,-3.41 z"
   id="path1462"
   style="fill:#e84a87;fill-opacity:1" /><path
   class="st0"
   d="m 16.36,11.58001 c 1.88,0 3.41,-1.53 3.41,-3.41 v -0.17 c 0,-1.88 -1.53,-3.41 -3.41,-3.41 -1.88,0 -3.41,1.53 -3.41,3.41 v 0.17 c 0,1.88 1.52,3.41 3.41,3.41 z"
   id="path1464"
   style="fill:#e84a87;fill-opacity:1" /><path
   class="st0"
   d="m 29.39,22.69001 c -1.88,0 -3.41,1.53 -3.41,3.41 v 1.77 5.58 c 0,1.88 1.53,3.41 3.41,3.41 1.88,0 3.41,-1.53 3.41,-3.41 v -5.58 -1.77 c 0,-1.88 -1.53,-3.41 -3.41,-3.41 z"
   id="path1466"
   style="fill:#414042;fill-opacity:1" /><path
   class="st0"
   d="m 16.36,24.04001 c -1.88,0 -3.41,1.53 -3.41,3.41 v 6 c 0,1.88 1.53,3.41 3.41,3.41 1.88,0 3.41,-1.53 3.41,-3.41 v -6 c 0,-1.88 -1.53,-3.41 -3.41,-3.41 z"
   id="path1468"
   style="fill:#e84a87;fill-opacity:1" /><path
   class="st0"
   d="m 29.43,10.83001 v 0 c -1.88,0 -3.41,1.53 -3.41,3.41 v 2.98 c 0,1.88 1.53,3.41 3.41,3.41 v 0 c 1.88,0 3.41,-1.53 3.41,-3.41 v -2.98 c 0,-1.88 -1.53,-3.41 -3.41,-3.41 z"
   id="path1470"
   style="fill:#414042;fill-opacity:1" /><path
   class="st0"
   d="m 28.49,7.95001 c 0.29,0.08 0.58,0.13 0.9,0.13 1.88,0 3.41,-1.53 3.41,-3.41 v -0.17 c 0,-1.88 -1.53,-3.41 -3.41,-3.41 -1.88,0 -3.41,1.53 -3.41,3.41 v 0.17 c 0,0.35 0.07,0.68 0.17,1 l -8.88,9.52 c -0.29,-0.08 -0.59,-0.14 -0.91,-0.14 -0.7,0 -1.34,0.21 -1.88,0.57 l -7.66,-4.32 v -0.13 c 0,-1.88 -1.53,-3.41 -3.41,-3.41 -1.88,0 -3.41,1.53 -3.41,3.41 v 0.17 c 0,1.88 1.53,3.41 3.41,3.41 0.69,0 1.33,-0.21 1.87,-0.56 l 7.67,4.33 v 0.12 c 0,1.88 1.53,3.41 3.41,3.41 1.88,0 3.41,-1.53 3.41,-3.41 v -0.17 c 0,-0.35 -0.07,-0.67 -0.16,-0.99 z"
   id="path1472"
   style="fill:#e84a87;fill-opacity:1" />
<rect
   x="40.209995"
   y="0"
   class="st0"
   width="2.45"
   height="37.970001"
   id="rect1476"
   style="fill:#e84a87;fill-opacity:1" />













</svg>
