<?xml version="1.0" encoding="UTF-8" standalone="no"?>
<svg
   xmlns:dc="http://purl.org/dc/elements/1.1/"
   xmlns:cc="http://creativecommons.org/ns#"
   xmlns:rdf="http://www.w3.org/1999/02/22-rdf-syntax-ns#"
   xmlns:svg="http://www.w3.org/2000/svg"
   xmlns="http://www.w3.org/2000/svg"
   xmlns:sodipodi="http://sodipodi.sourceforge.net/DTD/sodipodi-0.dtd"
   xmlns:inkscape="http://www.inkscape.org/namespaces/inkscape"
   version="1.1"
   id="Layer_1"
   x="0px"
   y="0px"
   viewBox="0 0 152.8 117.51"
   xml:space="preserve"
   sodipodi:docname="logo_top_white.svg"
   width="152.8"
   height="117.51"
   inkscape:version="1.0.1 (c497b03c, 2020-09-10)"><metadata
   id="metadata1206"><rdf:RDF><cc:Work
       rdf:about=""><dc:format>image/svg+xml</dc:format><dc:type
         rdf:resource="http://purl.org/dc/dcmitype/StillImage" /><dc:title /></cc:Work></rdf:RDF></metadata><defs
   id="defs1204">
	
	
	
	
	
	
</defs><sodipodi:namedview
   pagecolor="#ffffff"
   bordercolor="#666666"
   borderopacity="1"
   objecttolerance="10"
   gridtolerance="10"
   guidetolerance="10"
   inkscape:pageopacity="0"
   inkscape:pageshadow="2"
   inkscape:window-width="1440"
   inkscape:window-height="872"
   id="namedview1202"
   showgrid="false"
   fit-margin-top="0"
   fit-margin-left="0"
   fit-margin-right="0"
   fit-margin-bottom="0"
   inkscape:zoom="2.2478924"
   inkscape:cx="23.732905"
   inkscape:cy="55.09208"
   inkscape:window-x="0"
   inkscape:window-y="0"
   inkscape:window-maximized="0"
   inkscape:current-layer="Layer_1"
   inkscape:document-rotation="0" />
<style
   type="text/css"
   id="style833">
	.st0{fill:#FFFFFF;}
	.st1{fill:#414042;}
	.st2{fill:#E84A87;}
	.st3{fill:#58595B;}
	.st4{opacity:0.55;}
	.st5{opacity:0.55;fill:#E84A87;}
	.st6{fill:#808285;}
	.st7{opacity:0.55;fill:#58595B;}
	.st8{font-family:'Montserrat-Bold';}
	.st9{font-size:12.5673px;}
</style>





<path
   class="st2"
   d="m 51.67,32.43 c -3.58,0 -6.49,2.9 -6.49,6.49 v 22.61 c 0,3.58 2.9,6.49 6.49,6.49 3.58,0 6.49,-2.9 6.49,-6.49 V 38.92 c -0.01,-3.58 -2.91,-6.49 -6.49,-6.49 z"
   id="path845"
   style="fill:#e84a87;fill-opacity:1" /><path
   class="st2"
   d="m 76.29,19.94 c 3.58,0 6.49,-2.9 6.49,-6.49 v -0.32 c 0,-3.58 -2.9,-6.49 -6.49,-6.49 -3.58,0 -6.49,2.9 -6.49,6.49 v 0.32 c 0,3.58 2.9,6.49 6.49,6.49 z"
   id="path847"
   style="fill:#e84a87;fill-opacity:1" /><path
   class="st3"
   d="m 101.06,41.06 c -3.58,0 -6.49,2.9 -6.49,6.49 v 3.36 10.62 c 0,3.58 2.9,6.49 6.49,6.49 3.58,0 6.49,-2.9 6.49,-6.49 V 50.91 47.55 c 0,-3.59 -2.9,-6.49 -6.49,-6.49 z"
   id="path849"
   style="fill:#414042;fill-opacity:1" /><path
   class="st2"
   d="m 76.29,43.63 c -3.58,0 -6.49,2.9 -6.49,6.49 v 11.41 c 0,3.58 2.9,6.49 6.49,6.49 3.58,0 6.49,-2.9 6.49,-6.49 V 50.12 c -0.01,-3.59 -2.91,-6.49 -6.49,-6.49 z"
   id="path851"
   style="fill:#e84a87;fill-opacity:1" /><path
   class="st3"
   d="m 101.13,18.52 v 0 c -3.58,0 -6.49,2.9 -6.49,6.49 v 5.66 c 0,3.58 2.9,6.49 6.49,6.49 v 0 c 3.58,0 6.49,-2.9 6.49,-6.49 v -5.66 c 0,-3.59 -2.9,-6.49 -6.49,-6.49 z"
   id="path853"
   style="fill:#414042;fill-opacity:1" /><path
   class="st2"
   d="m 99.36,13.04 c 0.55,0.15 1.11,0.26 1.71,0.26 3.58,0 6.49,-2.9 6.49,-6.49 V 6.49 C 107.56,2.91 104.66,0 101.07,0 97.49,0 94.58,2.9 94.58,6.49 v 0.32 c 0,0.67 0.13,1.29 0.32,1.9 L 78.02,26.82 c -0.55,-0.15 -1.12,-0.26 -1.72,-0.26 -1.32,0 -2.55,0.4 -3.58,1.08 L 58.16,19.42 v -0.25 c 0,-3.58 -2.9,-6.49 -6.49,-6.49 -3.58,0 -6.49,2.9 -6.49,6.49 v 0.32 c 0,3.58 2.9,6.49 6.49,6.49 1.31,0 2.53,-0.4 3.55,-1.07 l 14.58,8.23 v 0.22 c 0,3.58 2.9,6.49 6.49,6.49 3.58,0 6.49,-2.9 6.49,-6.49 v -0.32 c 0,-0.66 -0.13,-1.28 -0.31,-1.88 z"
   id="path855"
   style="fill:#e84a87;fill-opacity:1" />
<g
   id="g905"
   transform="translate(-91.3,-326.46)"
   style="fill:#414042;fill-opacity:1">
	<g
   id="g903"
   style="fill:#414042;fill-opacity:1">
		<g
   id="g861"
   style="fill:#414042;fill-opacity:1">
			<path
   class="st3"
   d="m 91.3,428.38 v -20.56 h 4.76 v 20.56 z"
   id="path859"
   style="fill:#414042;fill-opacity:1" />
		</g>
		<g
   id="g865"
   style="fill:#414042;fill-opacity:1">
			<path
   class="st3"
   d="m 109.04,412.34 c 1.25,0 2.37,0.25 3.36,0.75 0.99,0.5 1.77,1.26 2.34,2.29 0.57,1.03 0.85,2.35 0.85,3.95 v 9.05 h -4.58 v -8.34 c 0,-1.27 -0.28,-2.21 -0.84,-2.82 -0.56,-0.61 -1.35,-0.91 -2.36,-0.91 -0.72,0 -1.38,0.15 -1.95,0.46 -0.58,0.3 -1.03,0.77 -1.35,1.4 -0.32,0.63 -0.48,1.43 -0.48,2.41 v 7.81 h -4.58 v -15.8 h 4.38 v 4.38 l -0.82,-1.32 c 0.57,-1.06 1.38,-1.87 2.44,-2.44 1.03,-0.58 2.24,-0.87 3.59,-0.87 z"
   id="path863"
   style="fill:#414042;fill-opacity:1" />
		</g>
		<g
   id="g869"
   style="fill:#414042;fill-opacity:1">
			<path
   class="st3"
   d="m 116.67,416.45 v -3.52 h 10.95 v 3.52 z m 8.34,12.16 c -1.86,0 -3.31,-0.47 -4.35,-1.42 -1.04,-0.95 -1.56,-2.36 -1.56,-4.24 v -13.86 h 4.58 v 13.8 c 0,0.67 0.18,1.18 0.53,1.54 0.35,0.36 0.83,0.54 1.44,0.54 0.72,0 1.34,-0.2 1.85,-0.59 l 1.23,3.23 c -0.47,0.33 -1.03,0.58 -1.69,0.75 -0.64,0.17 -1.32,0.25 -2.03,0.25 z"
   id="path867"
   style="fill:#414042;fill-opacity:1" />
		</g>
		<g
   id="g873"
   style="fill:#414042;fill-opacity:1">
			<path
   class="st3"
   d="m 137.5,428.61 c -1.8,0 -3.38,-0.35 -4.74,-1.06 -1.36,-0.7 -2.41,-1.67 -3.16,-2.89 -0.74,-1.22 -1.12,-2.62 -1.12,-4.19 0,-1.59 0.37,-2.99 1.1,-4.21 0.73,-1.22 1.74,-2.18 3.01,-2.88 1.27,-0.69 2.71,-1.04 4.32,-1.04 1.55,0 2.94,0.33 4.19,0.98 1.24,0.66 2.23,1.6 2.95,2.82 0.72,1.22 1.09,2.69 1.09,4.39 0,0.18 -0.01,0.38 -0.03,0.6 -0.02,0.23 -0.04,0.44 -0.06,0.63 h -12.83 v -2.67 h 10.43 l -1.76,0.79 c 0,-0.82 -0.17,-1.54 -0.5,-2.14 -0.33,-0.61 -0.79,-1.08 -1.38,-1.42 -0.59,-0.34 -1.27,-0.51 -2.06,-0.51 -0.78,0 -1.47,0.17 -2.07,0.51 -0.6,0.34 -1.06,0.82 -1.4,1.44 -0.33,0.62 -0.5,1.35 -0.5,2.19 v 0.7 c 0,0.86 0.19,1.62 0.57,2.28 0.38,0.66 0.92,1.15 1.62,1.5 0.69,0.34 1.51,0.51 2.45,0.51 0.84,0 1.58,-0.13 2.22,-0.38 0.64,-0.25 1.22,-0.64 1.75,-1.15 l 2.44,2.64 c -0.72,0.82 -1.63,1.45 -2.73,1.89 -1.11,0.45 -2.38,0.67 -3.8,0.67 z"
   id="path871"
   style="fill:#414042;fill-opacity:1" />
		</g>
		<g
   id="g877"
   style="fill:#414042;fill-opacity:1">
			<path
   class="st3"
   d="m 156.61,412.34 c 1.25,0 2.37,0.25 3.36,0.75 0.99,0.5 1.77,1.26 2.34,2.29 0.57,1.03 0.85,2.35 0.85,3.95 v 9.05 h -4.58 v -8.34 c 0,-1.27 -0.28,-2.21 -0.84,-2.82 -0.56,-0.61 -1.35,-0.91 -2.36,-0.91 -0.72,0 -1.38,0.15 -1.95,0.46 -0.58,0.3 -1.03,0.77 -1.35,1.4 -0.32,0.63 -0.48,1.43 -0.48,2.41 v 7.81 h -4.58 v -15.8 h 4.38 v 4.38 l -0.82,-1.32 c 0.57,-1.06 1.38,-1.87 2.44,-2.44 1.04,-0.58 2.24,-0.87 3.59,-0.87 z"
   id="path875"
   style="fill:#414042;fill-opacity:1" />
		</g>
		<g
   id="g881"
   style="fill:#414042;fill-opacity:1">
			<path
   class="st3"
   d="m 164.25,416.45 v -3.52 h 10.95 v 3.52 z m 8.34,12.16 c -1.86,0 -3.31,-0.47 -4.35,-1.42 -1.04,-0.95 -1.56,-2.36 -1.56,-4.24 v -13.86 h 4.58 v 13.8 c 0,0.67 0.18,1.18 0.53,1.54 0.35,0.36 0.83,0.54 1.44,0.54 0.72,0 1.34,-0.2 1.85,-0.59 l 1.23,3.23 c -0.47,0.33 -1.03,0.58 -1.69,0.75 -0.64,0.17 -1.32,0.25 -2.03,0.25 z"
   id="path879"
   style="fill:#414042;fill-opacity:1" />
		</g>
		<g
   id="g885"
   style="fill:#414042;fill-opacity:1">
			<path
   class="st3"
   d="m 180.02,410.37 c -0.94,0 -1.69,-0.31 -2.24,-0.92 -0.37,-0.42 -0.59,-0.97 -0.61,-1.53 -0.03,-0.77 0.24,-1.42 0.79,-1.93 0.53,-0.49 1.21,-0.73 2.06,-0.73 0.84,0 1.53,0.23 2.06,0.69 0.53,0.46 0.79,1.05 0.79,1.78 0,0.76 -0.26,1.4 -0.78,1.89 -0.52,0.5 -1.21,0.75 -2.07,0.75 z m -2.29,18.01 v -15.8 h 4.58 v 15.8 z"
   id="path883"
   style="fill:#414042;fill-opacity:1" />
		</g>
		<g
   id="g889"
   style="fill:#414042;fill-opacity:1">
			<path
   class="st3"
   d="m 192.91,428.61 c -1.68,0 -3.18,-0.35 -4.48,-1.06 -1.3,-0.7 -2.33,-1.67 -3.08,-2.89 -0.75,-1.22 -1.13,-2.62 -1.13,-4.19 0,-1.59 0.38,-2.99 1.13,-4.21 0.75,-1.22 1.78,-2.18 3.08,-2.88 1.3,-0.69 2.79,-1.04 4.48,-1.04 1.66,0 3.15,0.35 4.46,1.04 1.31,0.7 2.34,1.65 3.08,2.86 0.74,1.21 1.12,2.62 1.12,4.23 0,1.57 -0.37,2.96 -1.12,4.19 -0.74,1.22 -1.77,2.19 -3.08,2.89 -1.3,0.71 -2.79,1.06 -4.46,1.06 z m 0,-3.76 c 0.76,0 1.45,-0.18 2.06,-0.53 0.61,-0.35 1.09,-0.86 1.44,-1.51 0.35,-0.66 0.53,-1.43 0.53,-2.33 0,-0.92 -0.18,-1.7 -0.53,-2.35 -0.35,-0.65 -0.83,-1.15 -1.44,-1.5 -0.61,-0.35 -1.29,-0.53 -2.06,-0.53 -0.77,0 -1.45,0.18 -2.06,0.53 -0.61,0.35 -1.09,0.85 -1.45,1.5 -0.36,0.65 -0.54,1.43 -0.54,2.35 0,0.9 0.18,1.68 0.54,2.33 0.36,0.66 0.85,1.16 1.45,1.51 0.61,0.36 1.3,0.53 2.06,0.53 z"
   id="path887"
   style="fill:#414042;fill-opacity:1" />
		</g>
		<g
   id="g893"
   style="fill:#414042;fill-opacity:1">
			<path
   class="st3"
   d="m 213.06,412.34 c 1.25,0 2.37,0.25 3.36,0.75 0.99,0.5 1.77,1.26 2.34,2.29 0.57,1.03 0.85,2.35 0.85,3.95 v 9.05 h -4.58 v -8.34 c 0,-1.27 -0.28,-2.21 -0.84,-2.82 -0.56,-0.61 -1.35,-0.91 -2.36,-0.91 -0.72,0 -1.38,0.15 -1.95,0.46 -0.58,0.3 -1.03,0.77 -1.35,1.4 -0.32,0.63 -0.48,1.43 -0.48,2.41 v 7.81 h -4.58 v -15.8 h 4.38 v 4.38 l -0.82,-1.32 c 0.57,-1.06 1.38,-1.87 2.44,-2.44 1.04,-0.58 2.24,-0.87 3.59,-0.87 z"
   id="path891"
   style="fill:#414042;fill-opacity:1" />
		</g>
		<g
   id="g897"
   style="fill:#414042;fill-opacity:1">
			<path
   class="st3"
   d="m 227.45,428.61 c -1.23,0 -2.29,-0.21 -3.17,-0.63 -0.88,-0.42 -1.56,-0.99 -2.03,-1.72 -0.47,-0.72 -0.71,-1.54 -0.71,-2.44 0,-0.94 0.23,-1.76 0.69,-2.47 0.46,-0.71 1.19,-1.26 2.19,-1.66 1,-0.4 2.3,-0.6 3.91,-0.6 h 4.2 v 2.67 h -3.7 c -1.08,0 -1.82,0.18 -2.22,0.53 -0.4,0.35 -0.6,0.79 -0.6,1.32 0,0.59 0.23,1.05 0.69,1.4 0.46,0.34 1.09,0.51 1.89,0.51 0.76,0 1.45,-0.18 2.06,-0.54 0.61,-0.36 1.05,-0.9 1.32,-1.6 l 0.7,2.11 c -0.33,1.02 -0.94,1.79 -1.82,2.32 -0.87,0.54 -2.01,0.8 -3.4,0.8 z m 4.82,-0.23 v -3.08 l -0.29,-0.68 v -5.52 c 0,-0.98 -0.3,-1.74 -0.9,-2.29 -0.6,-0.55 -1.51,-0.82 -2.75,-0.82 -0.84,0 -1.67,0.13 -2.48,0.4 -0.81,0.26 -1.5,0.62 -2.07,1.07 l -1.64,-3.2 c 0.86,-0.61 1.9,-1.08 3.11,-1.41 1.21,-0.33 2.45,-0.5 3.7,-0.5 2.41,0 4.28,0.57 5.61,1.7 1.33,1.14 2,2.91 2,5.32 v 9.02 h -4.29 z"
   id="path895"
   style="fill:#414042;fill-opacity:1" />
		</g>
		<g
   id="g901"
   style="fill:#414042;fill-opacity:1">
			<path
   class="st3"
   d="m 239.52,428.38 v -21.79 h 4.58 v 21.79 z"
   id="path899"
   style="fill:#414042;fill-opacity:1" />
		</g>
	</g>
</g>
<g
   id="g929"
   transform="translate(-91.3,-326.46)"
   style="fill:#414042;fill-opacity:1">
	<g
   id="g927"
   style="fill:#414042;fill-opacity:1">
		<path
   class="st3"
   d="m 108.21,443.83 v -6.53 h -2.58 v -1.52 h 7.01 v 1.52 h -2.58 v 6.53 z"
   id="path907"
   style="fill:#414042;fill-opacity:1" />
		<path
   class="st3"
   d="m 119.87,442.34 h 4.38 v 1.5 h -6.23 v -8.05 h 6.08 v 1.49 h -4.23 z m -0.14,-3.31 h 3.88 v 1.45 h -3.88 z"
   id="path909"
   style="fill:#414042;fill-opacity:1" />
		<path
   class="st3"
   d="m 133.95,443.97 c -0.62,0 -1.2,-0.1 -1.73,-0.31 -0.53,-0.2 -0.99,-0.49 -1.39,-0.87 -0.39,-0.38 -0.7,-0.82 -0.91,-1.32 -0.22,-0.51 -0.33,-1.06 -0.33,-1.67 0,-0.61 0.11,-1.16 0.33,-1.67 0.22,-0.51 0.53,-0.95 0.92,-1.32 0.39,-0.37 0.86,-0.67 1.39,-0.87 0.53,-0.2 1.11,-0.3 1.74,-0.3 0.7,0 1.33,0.12 1.89,0.36 0.56,0.24 1.04,0.6 1.42,1.06 l -1.2,1.1 c -0.28,-0.31 -0.58,-0.55 -0.92,-0.71 -0.34,-0.16 -0.71,-0.24 -1.1,-0.24 -0.38,0 -0.72,0.06 -1.04,0.18 -0.31,0.12 -0.59,0.3 -0.82,0.53 -0.23,0.23 -0.41,0.5 -0.53,0.82 -0.13,0.31 -0.19,0.66 -0.19,1.05 0,0.39 0.06,0.73 0.19,1.05 0.13,0.31 0.3,0.59 0.53,0.82 0.23,0.23 0.5,0.41 0.82,0.53 0.31,0.12 0.66,0.18 1.04,0.18 0.4,0 0.77,-0.08 1.1,-0.24 0.34,-0.16 0.64,-0.4 0.92,-0.72 l 1.2,1.1 c -0.38,0.47 -0.86,0.82 -1.42,1.07 -0.57,0.27 -1.2,0.39 -1.91,0.39 z"
   id="path911"
   style="fill:#414042;fill-opacity:1" />
		<path
   class="st3"
   d="m 144.76,443.83 h -1.86 v -8.05 h 1.86 z m 3.8,-3.3 h -3.93 v -1.58 h 3.93 z m -0.14,-4.74 h 1.86 v 8.05 h -1.86 z"
   id="path913"
   style="fill:#414042;fill-opacity:1" />
		<path
   class="st3"
   d="m 156.56,443.83 v -8.05 h 1.54 l 4.75,5.8 h -0.75 v -5.8 h 1.84 v 8.05 h -1.53 l -4.76,-5.8 h 0.75 v 5.8 z"
   id="path915"
   style="fill:#414042;fill-opacity:1" />
		<path
   class="st3"
   d="m 174.13,443.97 c -0.64,0 -1.22,-0.1 -1.77,-0.31 -0.54,-0.21 -1.01,-0.5 -1.4,-0.87 -0.39,-0.38 -0.7,-0.82 -0.92,-1.32 -0.22,-0.51 -0.33,-1.06 -0.33,-1.66 0,-0.6 0.11,-1.15 0.33,-1.66 0.22,-0.51 0.53,-0.95 0.93,-1.32 0.4,-0.38 0.87,-0.67 1.4,-0.87 0.54,-0.21 1.12,-0.31 1.75,-0.31 0.64,0 1.22,0.1 1.75,0.31 0.53,0.21 1,0.5 1.39,0.87 0.4,0.38 0.7,0.81 0.93,1.32 0.22,0.5 0.33,1.06 0.33,1.66 0,0.6 -0.11,1.15 -0.33,1.66 -0.22,0.51 -0.53,0.95 -0.93,1.32 -0.39,0.37 -0.86,0.66 -1.39,0.87 -0.53,0.21 -1.11,0.31 -1.74,0.31 z m -0.01,-1.58 c 0.36,0 0.69,-0.06 0.99,-0.18 0.3,-0.12 0.57,-0.3 0.8,-0.53 0.23,-0.23 0.41,-0.5 0.53,-0.82 0.13,-0.31 0.19,-0.66 0.19,-1.05 0,-0.39 -0.06,-0.73 -0.19,-1.05 -0.13,-0.31 -0.3,-0.59 -0.53,-0.82 -0.23,-0.23 -0.49,-0.41 -0.8,-0.53 -0.31,-0.12 -0.64,-0.18 -1,-0.18 -0.36,0 -0.69,0.06 -1,0.18 -0.3,0.12 -0.57,0.3 -0.8,0.53 -0.23,0.23 -0.41,0.5 -0.53,0.82 -0.13,0.31 -0.19,0.66 -0.19,1.05 0,0.38 0.06,0.72 0.19,1.04 0.13,0.32 0.3,0.59 0.53,0.82 0.23,0.23 0.49,0.41 0.8,0.53 0.31,0.12 0.65,0.19 1.01,0.19 z"
   id="path917"
   style="fill:#414042;fill-opacity:1" />
		<path
   class="st3"
   d="m 184.29,443.83 v -8.05 h 1.86 v 6.53 h 4.04 v 1.52 z"
   id="path919"
   style="fill:#414042;fill-opacity:1" />
		<path
   class="st3"
   d="m 199.38,443.97 c -0.64,0 -1.22,-0.1 -1.77,-0.31 -0.54,-0.21 -1.01,-0.5 -1.4,-0.87 -0.39,-0.38 -0.7,-0.82 -0.92,-1.32 -0.22,-0.51 -0.33,-1.06 -0.33,-1.66 0,-0.6 0.11,-1.15 0.33,-1.66 0.22,-0.51 0.53,-0.95 0.93,-1.32 0.4,-0.38 0.87,-0.67 1.4,-0.87 0.54,-0.21 1.12,-0.31 1.75,-0.31 0.64,0 1.22,0.1 1.75,0.31 0.53,0.21 1,0.5 1.39,0.87 0.4,0.38 0.7,0.81 0.93,1.32 0.22,0.5 0.33,1.06 0.33,1.66 0,0.6 -0.11,1.15 -0.33,1.66 -0.22,0.51 -0.53,0.95 -0.93,1.32 -0.39,0.37 -0.86,0.66 -1.39,0.87 -0.53,0.21 -1.11,0.31 -1.74,0.31 z m -0.01,-1.58 c 0.36,0 0.69,-0.06 0.99,-0.18 0.3,-0.12 0.57,-0.3 0.8,-0.53 0.23,-0.23 0.41,-0.5 0.53,-0.82 0.13,-0.31 0.19,-0.66 0.19,-1.05 0,-0.39 -0.06,-0.73 -0.19,-1.05 -0.13,-0.31 -0.3,-0.59 -0.53,-0.82 -0.23,-0.23 -0.49,-0.41 -0.8,-0.53 -0.31,-0.12 -0.64,-0.18 -1,-0.18 -0.36,0 -0.69,0.06 -1,0.18 -0.3,0.12 -0.57,0.3 -0.8,0.53 -0.23,0.23 -0.41,0.5 -0.53,0.82 -0.13,0.31 -0.19,0.66 -0.19,1.05 0,0.38 0.06,0.72 0.19,1.04 0.13,0.32 0.3,0.59 0.53,0.82 0.23,0.23 0.49,0.41 0.8,0.53 0.31,0.12 0.65,0.19 1.01,0.19 z"
   id="path921"
   style="fill:#414042;fill-opacity:1" />
		<path
   class="st3"
   d="m 213.43,443.97 c -0.64,0 -1.22,-0.1 -1.75,-0.31 -0.53,-0.2 -1,-0.49 -1.39,-0.87 -0.39,-0.38 -0.7,-0.82 -0.92,-1.32 -0.22,-0.51 -0.33,-1.06 -0.33,-1.67 0,-0.61 0.11,-1.16 0.33,-1.67 0.22,-0.51 0.53,-0.95 0.93,-1.32 0.4,-0.38 0.87,-0.67 1.4,-0.87 0.54,-0.2 1.13,-0.3 1.77,-0.3 0.71,0 1.35,0.12 1.93,0.36 0.57,0.24 1.05,0.58 1.44,1.03 l -1.2,1.1 c -0.29,-0.31 -0.61,-0.53 -0.95,-0.68 -0.34,-0.15 -0.72,-0.22 -1.13,-0.22 -0.39,0 -0.75,0.06 -1.07,0.18 -0.32,0.12 -0.6,0.3 -0.83,0.53 -0.23,0.23 -0.41,0.5 -0.54,0.82 -0.13,0.31 -0.19,0.66 -0.19,1.05 0,0.38 0.06,0.72 0.19,1.03 0.13,0.31 0.31,0.59 0.54,0.82 0.23,0.23 0.51,0.41 0.83,0.53 0.32,0.12 0.67,0.18 1.05,0.18 0.37,0 0.73,-0.06 1.07,-0.18 0.35,-0.12 0.69,-0.32 1.02,-0.6 l 1.06,1.35 c -0.44,0.33 -0.95,0.58 -1.52,0.76 -0.59,0.18 -1.16,0.27 -1.74,0.27 z m 1.55,-1.26 v -3.02 h 1.7 v 3.27 z"
   id="path923"
   style="fill:#414042;fill-opacity:1" />
		<path
   class="st3"
   d="m 224.78,443.83 v -3.29 l 0.43,1.13 -3.54,-5.89 h 1.98 l 2.71,4.52 h -1.14 l 2.72,-4.52 h 1.83 l -3.54,5.89 0.41,-1.13 v 3.29 z"
   id="path925"
   style="fill:#414042;fill-opacity:1" />
	</g>
</g>



















</svg>
