<?xml version="1.0" encoding="UTF-8" standalone="no"?>
<svg
   xmlns:dc="http://purl.org/dc/elements/1.1/"
   xmlns:cc="http://creativecommons.org/ns#"
   xmlns:rdf="http://www.w3.org/1999/02/22-rdf-syntax-ns#"
   xmlns:svg="http://www.w3.org/2000/svg"
   xmlns="http://www.w3.org/2000/svg"
   xmlns:sodipodi="http://sodipodi.sourceforge.net/DTD/sodipodi-0.dtd"
   xmlns:inkscape="http://www.inkscape.org/namespaces/inkscape"
   version="1.1"
   id="Layer_1"
   x="0px"
   y="0px"
   viewBox="0 0 149.99999 163.38302"
   xml:space="preserve"
   sodipodi:docname="logo.svg"
   width="150"
   height="163.38303"
   inkscape:version="1.0.1 (c497b03c, 2020-09-10)"><metadata
   id="metadata1581"><rdf:RDF><cc:Work
       rdf:about=""><dc:format>image/svg+xml</dc:format><dc:type
         rdf:resource="http://purl.org/dc/dcmitype/StillImage" /><dc:title></dc:title></cc:Work></rdf:RDF></metadata><defs
   id="defs1579">
	
	
	
	
	
	
</defs><sodipodi:namedview
   pagecolor="#ffffff"
   bordercolor="#666666"
   borderopacity="1"
   objecttolerance="10"
   gridtolerance="10"
   guidetolerance="10"
   inkscape:pageopacity="0"
   inkscape:pageshadow="2"
   inkscape:window-width="1920"
   inkscape:window-height="1052"
   id="namedview1577"
   showgrid="false"
   fit-margin-top="0"
   fit-margin-left="0"
   fit-margin-right="0"
   fit-margin-bottom="0"
   inkscape:zoom="4.802645"
   inkscape:cx="67.30592"
   inkscape:cy="74.242404"
   inkscape:window-x="1440"
   inkscape:window-y="0"
   inkscape:window-maximized="0"
   inkscape:current-layer="Layer_1"
   inkscape:document-rotation="0" />
<style
   type="text/css"
   id="style1208">
	.st0{fill:#FFFFFF;}
	.st1{fill:#414042;}
	.st2{fill:#E84A87;}
	.st3{fill:#58595B;}
	.st4{opacity:0.55;}
	.st5{opacity:0.55;fill:#E84A87;}
	.st6{fill:#808285;}
	.st7{opacity:0.55;fill:#58595B;}
	.st8{font-family:'Montserrat-Bold';}
	.st9{font-size:12.5673px;}
</style>












<path
   class="st0"
   d="M 15.57552,77.923286 C 6.9884311,77.923286 0,84.911705 0,93.498809 v 54.308721 c 0,8.58707 6.9884311,15.5755 15.57552,15.5755 8.587077,0 15.575514,-6.98843 15.575514,-15.5755 V 93.498809 c 0,-8.587104 -6.988437,-15.575523 -15.575514,-15.575523 z"
   id="path1462"
   style="fill:#e84a87;fill-opacity:1;stroke-width:4.56801" /><path
   class="st0"
   d="m 74.725931,47.91415 c 8.587081,0 15.575554,-6.988444 15.575554,-15.57553 v -0.776503 c 0,-8.587081 -6.988473,-15.575517 -15.575554,-15.575517 -8.587063,0 -15.575503,6.988436 -15.575503,15.575517 v 0.776503 c 0,8.587086 6.942725,15.57553 15.575503,15.57553 z"
   id="path1464"
   style="fill:#e84a87;fill-opacity:1;stroke-width:4.56801" /><path
   class="st0"
   d="m 134.24181,98.660152 c -8.58711,0 -15.57553,6.988438 -15.57553,15.575508 v 8.08472 25.48715 c 0,8.58707 6.98842,15.5755 15.57553,15.5755 8.58704,0 15.57548,-6.98843 15.57548,-15.5755 v -25.48715 -8.08472 c 0,-8.58707 -6.98844,-15.575508 -15.57548,-15.575508 z"
   id="path1466"
   style="fill:#414042;fill-opacity:1;stroke-width:4.56801" /><path
   class="st0"
   d="m 74.725931,104.82643 c -8.587063,0 -15.575503,6.98842 -15.575503,15.57555 v 27.40555 c 0,8.58707 6.98844,15.5755 15.575503,15.5755 8.587081,0 15.575554,-6.98843 15.575554,-15.5755 v -27.40555 c 0,-8.58713 -6.988473,-15.57555 -15.575554,-15.57555 z"
   id="path1468"
   style="fill:#e84a87;fill-opacity:1;stroke-width:4.56801" /><path
   class="st0"
   d="m 134.42449,44.488473 v 0 c -8.58709,0 -15.5755,6.988419 -15.5755,15.57549 v 13.611498 c 0,8.587039 6.98841,15.575462 15.5755,15.575462 v 0 C 143.01153,89.250923 150,82.2625 150,73.675461 V 60.063963 c 0,-8.587071 -6.98847,-15.57549 -15.57551,-15.57549 z"
   id="path1470"
   style="fill:#414042;fill-opacity:1;stroke-width:4.56801" /><path
   class="st0"
   d="m 130.13098,31.333731 c 1.32454,0.365436 2.64913,0.593785 4.11083,0.593785 8.58704,0 15.57548,-6.988415 15.57548,-15.575507 V 15.57552 C 149.81729,6.9884311 142.82885,0 134.24181,0 125.6547,0 118.66628,6.9884311 118.66628,15.57552 v 0.776489 c 0,1.598652 0.31974,3.105972 0.77652,4.567593 L 78.882458,64.403141 c -1.324624,-0.365265 -2.694882,-0.639478 -4.156527,-0.639478 -3.197283,0 -6.120528,0.959244 -8.587063,2.603602 L 31.151034,46.635161 v -0.593752 c 0,-8.587093 -6.988437,-15.575507 -15.575514,-15.575507 C 6.9884311,30.465902 0,37.454316 0,46.041409 v 0.776555 c 0,8.587039 6.9884311,15.575462 15.57552,15.575462 3.151648,0 6.074902,-0.959215 8.541431,-2.557884 l 35.033477,19.777765 v 0.548151 c 0,8.587039 6.98844,15.575452 15.575503,15.575452 8.587081,0 15.575554,-6.988413 15.575554,-15.575452 v -0.776557 c 0,-1.598703 -0.319783,-3.060362 -0.730818,-4.521906 z"
   id="path1472"
   style="fill:#e84a87;fill-opacity:1;stroke-width:4.56801" />














</svg>
