<?xml version="1.0" encoding="UTF-8" standalone="no"?>
<svg
   xmlns:dc="http://purl.org/dc/elements/1.1/"
   xmlns:cc="http://creativecommons.org/ns#"
   xmlns:rdf="http://www.w3.org/1999/02/22-rdf-syntax-ns#"
   xmlns:svg="http://www.w3.org/2000/svg"
   xmlns="http://www.w3.org/2000/svg"
   xmlns:sodipodi="http://sodipodi.sourceforge.net/DTD/sodipodi-0.dtd"
   xmlns:inkscape="http://www.inkscape.org/namespaces/inkscape"
   id="Layer_1"
   data-name="Layer 1"
   viewBox="0 0 864.55933 82.126464"
   version="1.1"
   sodipodi:docname="wotw_brand.svg"
   width="864.55933"
   height="82.126465"
   inkscape:version="1.0.1 (c497b03c, 2020-09-10)">
  <metadata
     id="metadata921">
    <rdf:RDF>
      <cc:Work
         rdf:about="">
        <dc:format>image/svg+xml</dc:format>
        <dc:type
           rdf:resource="http://purl.org/dc/dcmitype/StillImage" />
        <dc:title>2780_Word of the Week_AS</dc:title>
      </cc:Work>
    </rdf:RDF>
  </metadata>
  <sodipodi:namedview
     pagecolor="#ffffff"
     bordercolor="#666666"
     borderopacity="1"
     objecttolerance="10"
     gridtolerance="10"
     guidetolerance="10"
     inkscape:pageopacity="0"
     inkscape:pageshadow="2"
     inkscape:window-width="1440"
     inkscape:window-height="872"
     id="namedview919"
     showgrid="false"
     fit-margin-top="0"
     fit-margin-left="0"
     fit-margin-right="0"
     fit-margin-bottom="0"
     inkscape:zoom="0.98611111"
     inkscape:cx="316.85587"
     inkscape:cy="73.34814"
     inkscape:window-x="0"
     inkscape:window-y="0"
     inkscape:window-maximized="0"
     inkscape:current-layer="Layer_1"
     inkscape:document-rotation="0" />
  <defs
     id="defs882">
    <style
       id="style880">.cls-1{fill:#009444;}.cls-2{fill:#39b54a;}</style>
  </defs>
  <title
     id="title884">2780_Word of the Week_AS</title>
  <path
     class="cls-1"
     d="M 87.74599,8.42268 68.46233,81.255782 H 60.89432 L 43.76526,19.152944 26.25917,81.255782 H 18.85274 L 0,8.336145 H 7.2987 L 22.83875,72.198519 40.26404,8.336145 H 47.859 L 64.66486,72.285054 80.33956,8.42268 Z"
     id="path886"
     style="fill:#009444;fill-opacity:1;stroke-width:2.78723" />
  <path
     class="cls-1"
     d="m 107.91841,78.486685 a 24.239226,25.960314 0 0 1 -9.42636,-10.211059 31.672588,33.921477 0 0 1 0,-30.950461 24.750942,26.508365 0 0 1 9.53411,-10.211059 29.140935,31.210067 0 0 1 27.09404,0 24.050698,25.7584 0 0 1 9.5341,10.211059 29.033205,31.094687 0 0 1 3.44736,15.489652 28.736949,30.777394 0 0 1 -3.50121,15.40312 24.239226,25.960314 0 0 1 -9.6149,10.268748 27.928974,29.912051 0 0 1 -13.62783,3.605597 27.094068,29.017862 0 0 1 -13.43931,-3.605597 z m 23.18887,-5.307444 a 18.044757,19.326011 0 0 0 7.24483,-7.70156 26.932472,28.844793 0 0 0 0,-25.325729 17.775431,19.037564 0 0 0 -7.19097,-7.701559 20.926531,22.412403 0 0 0 -19.44523,0 17.559972,18.806805 0 0 0 -7.16405,7.701559 27.55192,29.508223 0 0 0 0,25.325729 17.586905,18.83565 0 0 0 7.11017,7.70156 20.010827,21.431681 0 0 0 9.66875,2.538344 20.280152,21.720129 0 0 0 9.7765,-2.538344 z"
     id="path888"
     style="fill:#009444;fill-opacity:1;stroke-width:2.78723" />
  <path
     class="cls-1"
     d="m 174.25311,26.248763 a 21.815302,23.364283 0 0 1 11.33856,-2.88448 v 7.586181 h -1.85834 a 17.182917,18.402978 0 0 0 -11.85029,4.269029 q -4.49773,4.297874 -4.49773,14.278174 v 31.729265 h -6.78699 V 24.345006 h 6.78699 v 10.095678 a 16.698134,17.883772 0 0 1 6.8678,-8.191921 z"
     id="path890"
     style="fill:#009444;fill-opacity:1;stroke-width:2.78723" />
  <path
     class="cls-1"
     d="m 195.9876,37.325165 a 23.889103,25.585332 0 0 1 9.10318,-10.211059 25.585849,27.402553 0 0 1 13.08917,-3.576753 23.996832,25.700709 0 0 1 12.63133,3.634442 20.872666,22.354714 0 0 1 8.26827,9.489939 V 4.153651 h 6.81393 v 77.102131 h -6.81393 V 68.535229 a 20.522544,21.979733 0 0 1 -8.07973,9.749536 23.565913,25.239194 0 0 1 -12.81987,3.749827 25.262658,27.056415 0 0 1 -13.08917,-3.663287 23.404319,25.066125 0 0 1 -9.02237,-10.297593 30.541424,32.709996 0 0 1 -3.25884,-15.431964 29.94891,32.075409 0 0 1 3.17803,-15.316583 z m 40.39872,3.403683 a 18.63727,19.960597 0 0 0 -7.16404,-8.018851 19.472178,20.854785 0 0 0 -9.96502,-2.88448 20.010827,21.431681 0 0 0 -10.09969,2.71141 17.721567,18.979874 0 0 0 -7.0563,7.87463 23.754442,25.441108 0 0 0 -2.69325,12.230191 24.239226,25.960314 0 0 0 2.69325,12.230193 17.990891,19.268322 0 0 0 7.0563,8.047698 20.03776,21.460527 0 0 0 10.09969,2.740256 19.472178,20.854785 0 0 0 9.96502,-2.88448 18.852731,20.191356 0 0 0 7.16404,-8.018853 25.666645,27.489088 0 0 0 0,-24.171937 z"
     id="path892"
     style="fill:#009444;fill-opacity:1;stroke-width:2.78723" />
  <path
     class="cls-1"
     d="m 325.90985,25.989159 a 24.562415,26.306451 0 0 1 10.01889,10.355281 31.888047,34.152235 0 0 1 0,31.729272 24.40082,26.133382 0 0 1 -10.01889,10.355283 32.80375,35.132959 0 0 1 -28.95241,0 24.508549,26.248761 0 0 1 -10.07275,-10.355283 31.888047,34.152235 0 0 1 0,-31.729272 24.697077,26.450675 0 0 1 10.07275,-10.355281 32.80375,35.132959 0 0 1 28.95241,0 z m -22.46168,15.662723 a 13.924089,14.912759 0 0 0 -3.25884,10.672572 13.735561,14.710844 0 0 0 3.25884,10.614885 11.069246,11.85521 0 0 0 15.99789,0 13.977954,14.970448 0 0 0 3.20495,-10.614885 14.16648,15.172362 0 0 0 -3.20495,-10.672572 11.015381,11.79752 0 0 0 -15.99789,0 z"
     id="path894"
     style="fill:#009444;fill-opacity:1;stroke-width:2.78723" />
  <path
     class="cls-1"
     d="m 374.87308,15.201207 a 8.3490664,8.9418859 0 0 0 -5.92514,1.874911 8.0797417,8.6534379 0 0 0 -2.04687,6.028563 h 9.83036 v 14.999291 h -9.83036 v 43.26719 h -16.61733 v -43.26719 h -6.51766 V 23.104681 h 6.51766 V 22.49894 A 20.280152,21.720129 0 0 1 356.15502,5.76896 Q 362.05323,0 373.2302,0 c 1.56209,0 2.69325,0 3.50123,0 v 15.287742 z"
     id="path896"
     style="fill:#009444;fill-opacity:1;stroke-width:2.78723" />
  <path
     class="cls-1"
     d="m 434.23225,65.939198 v 15.316584 h -7.51416 a 21.545977,23.075833 0 0 1 -14.81286,-5.047837 c -3.55508,-3.374842 -5.38649,-8.941887 -5.38649,-16.729981 V 38.103972 h -7.29871 V 23.104681 h 7.48724 V 8.855353 h 16.61732 v 14.249328 h 10.90766 v 14.999291 h -10.90766 v 21.691286 a 6.1406038,6.5766127 0 0 0 1.3197,4.788236 6.329131,6.7785264 0 0 0 4.41693,1.355704 z"
     id="path898"
     style="fill:#009444;fill-opacity:1;stroke-width:2.78723" />
  <path
     class="cls-1"
     d="m 492.89119,29.162087 a 24.966403,26.739124 0 0 1 5.38648,18.345289 V 81.255782 H 481.63341 V 49.526511 a 11.958018,12.807088 0 0 0 -2.88178,-9.114954 9.9111499,10.614884 0 0 0 -7.62189,-3.288307 10.422867,11.162935 0 0 0 -8.07974,3.432531 13.089181,14.018569 0 0 0 -2.96259,9.807229 V 81.198092 H 443.44316 V 4.153651 h 16.64425 v 29.594758 a 17.963959,19.239476 0 0 1 6.94859,-8.249611 20.603341,22.066267 0 0 1 10.773,-2.884479 18.852731,20.191356 0 0 1 15.08219,6.547768 z"
     id="path900"
     style="fill:#009444;fill-opacity:1;stroke-width:2.78723" />
  <path
     class="cls-1"
     d="M 560.38396,55.410849 H 522.6785 a 12.523599,13.412829 0 0 0 3.12415,9.432247 11.123111,11.912899 0 0 0 13.33159,0.89419 8.6722561,9.2880234 0 0 0 3.20496,-5.105529 h 17.61384 a 23.215791,24.864213 0 0 1 -4.68625,10.989866 24.589348,26.335295 0 0 1 -9.13011,7.586182 31.187803,33.402269 0 0 1 -26.52849,-0.8365 24.050698,25.7584 0 0 1 -9.66875,-10.355282 29.94891,32.075409 0 0 1 -3.50124,-15.83579 30.514492,32.681152 0 0 1 3.44738,-15.893483 23.646711,25.325729 0 0 1 9.69568,-10.297591 31.834182,34.094544 0 0 1 28.38682,0 23.323521,24.979589 0 0 1 9.56103,9.893765 27.363392,29.306311 0 0 1 3.36655,14.739689 23.054196,24.691143 0 0 1 -0.5117,4.788236 z M 541.18111,39.315455 a 10.772989,11.537917 0 0 0 -7.35257,-2.88448 10.772989,11.537917 0 0 0 -7.59496,2.88448 11.365503,12.172503 0 0 0 -3.3935,8.653438 h 21.2228 a 9.9919472,10.701418 0 0 0 -2.88177,-8.653438 z"
     id="path902"
     style="fill:#009444;fill-opacity:1;stroke-width:2.78723" />
  <path
     class="cls-1"
     d="m 682.46885,7.586182 -16.45574,73.6696 H 645.40977 L 634.42132,31.960031 623.32513,81.255782 h -20.63026 l -16.42881,-73.6696 h 18.09862 l 8.83386,53.334022 12.06574,-53.334022 h 18.17942 l 12.06573,53.334022 8.96852,-53.334022 z"
     id="path904"
     style="fill:#009444;fill-opacity:1;stroke-width:2.78723" />
  <path
     class="cls-1"
     d="m 742.28587,55.410849 h -37.70545 a 12.523599,13.412829 0 0 0 3.12415,9.432247 11.123111,11.912899 0 0 0 13.46623,0.89419 8.8069184,9.4322474 0 0 0 3.20497,-5.105529 h 17.61384 a 23.215791,24.864213 0 0 1 -4.68625,10.989866 24.589348,26.335295 0 0 1 -9.1301,7.586182 31.187803,33.402269 0 0 1 -26.52848,-0.8365 24.050698,25.7584 0 0 1 -9.66877,-10.355282 29.94891,32.075409 0 0 1 -3.50121,-15.83579 30.514492,32.681152 0 0 1 3.44735,-15.893483 23.646711,25.325729 0 0 1 9.69569,-10.297591 31.834182,34.094544 0 0 1 28.38683,0 23.323521,24.979589 0 0 1 9.48023,9.951455 27.363392,29.306311 0 0 1 3.36656,14.739689 23.054196,24.691143 0 0 1 -0.56559,4.730546 z M 723.08303,39.315455 a 10.772989,11.537917 0 0 0 -7.35258,-2.88448 10.772989,11.537917 0 0 0 -7.59495,2.88448 11.365503,12.172503 0 0 0 -3.39349,8.653438 h 21.19585 a 9.9919472,10.701418 0 0 0 -2.85483,-8.653438 z"
     id="path906"
     style="fill:#009444;fill-opacity:1;stroke-width:2.78723" />
  <path
     class="cls-1"
     d="m 802.6146,55.410849 h -37.70546 a 12.631329,13.528208 0 0 0 3.09724,9.432247 10.072745,10.787952 0 0 0 7.21792,2.884479 9.9380823,10.643729 0 0 0 6.11365,-1.961445 8.6722561,9.2880234 0 0 0 3.20497,-5.105529 h 17.61384 a 22.892602,24.518074 0 0 1 -4.65932,10.989866 24.481616,26.219917 0 0 1 -9.15705,7.586178 28.817746,30.863928 0 0 1 -12.33506,2.884477 29.221732,31.296601 0 0 1 -14.16648,-3.605597 23.700576,25.383418 0 0 1 -9.66875,-10.355278 33.315469,35.681009 0 0 1 0,-31.729272 23.592846,25.268039 0 0 1 9.66875,-10.297591 31.888047,34.152235 0 0 1 28.41375,0 23.323521,24.979589 0 0 1 9.48023,9.951454 27.632716,29.594757 0 0 1 3.36656,14.739689 23.054196,24.691143 0 0 1 -0.48479,4.586322 z M 783.38482,39.315455 a 10.530597,11.278315 0 0 0 -7.32562,-2.88448 10.772989,11.537917 0 0 0 -7.59497,2.88448 11.392436,12.201347 0 0 0 -3.42041,8.653438 h 21.22277 a 9.9919472,10.701418 0 0 0 -2.98949,-8.653438 z"
     id="path908"
     style="fill:#009444;fill-opacity:1;stroke-width:2.78723" />
  <path
     class="cls-1"
     d="M 844.52154,81.255782 828.36205,56.56464 V 81.255782 H 811.71779 V 4.153651 h 16.64426 v 42.286467 l 16.15949,-23.335437 h 19.55298 l -21.89611,29.075552 22.38089,29.075549 z"
     id="path910"
     style="fill:#009444;fill-opacity:1;stroke-width:2.78723" />
</svg>
