<?xml version="1.0" encoding="UTF-8" standalone="no"?>
<svg
   xmlns:dc="http://purl.org/dc/elements/1.1/"
   xmlns:cc="http://creativecommons.org/ns#"
   xmlns:rdf="http://www.w3.org/1999/02/22-rdf-syntax-ns#"
   xmlns:svg="http://www.w3.org/2000/svg"
   xmlns="http://www.w3.org/2000/svg"
   xmlns:sodipodi="http://sodipodi.sourceforge.net/DTD/sodipodi-0.dtd"
   xmlns:inkscape="http://www.inkscape.org/namespaces/inkscape"
   id="Layer_1"
   data-name="Layer 1"
   viewBox="0 0 980.4563 118.9"
   version="1.1"
   sodipodi:docname="logoWithText.svg"
   width="980.4563"
   height="118.9"
   inkscape:version="1.0.1 (c497b03c, 2020-09-10)">
  <metadata
     id="metadata921">
    <rdf:RDF>
      <cc:Work
         rdf:about="">
        <dc:format>image/svg+xml</dc:format>
        <dc:type
           rdf:resource="http://purl.org/dc/dcmitype/StillImage" />
        <dc:title>2780_Word of the Week_AS</dc:title>
      </cc:Work>
    </rdf:RDF>
  </metadata>
  <sodipodi:namedview
     pagecolor="#ffffff"
     bordercolor="#666666"
     borderopacity="1"
     objecttolerance="10"
     gridtolerance="10"
     guidetolerance="10"
     inkscape:pageopacity="0"
     inkscape:pageshadow="2"
     inkscape:window-width="1440"
     inkscape:window-height="872"
     id="namedview919"
     showgrid="false"
     fit-margin-top="0"
     fit-margin-left="0"
     fit-margin-right="0"
     fit-margin-bottom="0"
     inkscape:zoom="0.98611111"
     inkscape:cx="454.30223"
     inkscape:cy="-167.69758"
     inkscape:window-x="0"
     inkscape:window-y="0"
     inkscape:window-maximized="0"
     inkscape:current-layer="Layer_1"
     inkscape:document-rotation="0" />
  <defs
     id="defs882">
    <style
       id="style880">.cls-1{fill:#009444;}.cls-2{fill:#39b54a;}</style>
  </defs>
  <title
     id="title884">2780_Word of the Week_AS</title>
  <path
     class="cls-1"
     d="M 203.64296,27.549748 184.3593,100.38285 h -7.56801 L 159.66223,38.280012 142.15614,100.38285 h -7.40643 L 115.89697,27.463213 h 7.2987 l 15.54005,63.862374 17.42529,-63.862374 h 7.59496 l 16.80586,63.948909 15.6747,-63.862374 z"
     id="path886"
     style="fill:#009444;fill-opacity:1;stroke-width:2.78723" />
  <path
     class="cls-1"
     d="m 223.81538,97.613753 a 24.239226,25.960314 0 0 1 -9.42636,-10.211059 31.672588,33.921477 0 0 1 0,-30.950461 24.750942,26.508365 0 0 1 9.53411,-10.211059 29.140935,31.210067 0 0 1 27.09404,0 24.050698,25.7584 0 0 1 9.5341,10.211059 29.033205,31.094687 0 0 1 3.44736,15.489652 28.736949,30.777394 0 0 1 -3.50121,15.40312 24.239226,25.960314 0 0 1 -9.6149,10.268748 27.928974,29.912051 0 0 1 -13.62783,3.605597 27.094068,29.017862 0 0 1 -13.43931,-3.605597 z m 23.18887,-5.307444 a 18.044757,19.326011 0 0 0 7.24483,-7.70156 26.932472,28.844793 0 0 0 0,-25.325729 17.775431,19.037564 0 0 0 -7.19097,-7.701559 20.926531,22.412403 0 0 0 -19.44523,0 17.559972,18.806805 0 0 0 -7.16405,7.701559 27.55192,29.508223 0 0 0 0,25.325729 17.586905,18.83565 0 0 0 7.11017,7.70156 20.010827,21.431681 0 0 0 9.66875,2.538344 20.280152,21.720129 0 0 0 9.7765,-2.538344 z"
     id="path888"
     style="fill:#009444;fill-opacity:1;stroke-width:2.78723" />
  <path
     class="cls-1"
     d="m 290.15008,45.375831 a 21.815302,23.364283 0 0 1 11.33856,-2.88448 v 7.586181 h -1.85834 a 17.182917,18.402978 0 0 0 -11.85029,4.269029 q -4.49773,4.297874 -4.49773,14.278174 V 100.354 h -6.78699 V 43.472074 h 6.78699 v 10.095678 a 16.698134,17.883772 0 0 1 6.8678,-8.191921 z"
     id="path890"
     style="fill:#009444;fill-opacity:1;stroke-width:2.78723" />
  <path
     class="cls-1"
     d="m 311.88457,56.452233 a 23.889103,25.585332 0 0 1 9.10318,-10.211059 25.585849,27.402553 0 0 1 13.08917,-3.576753 23.996832,25.700709 0 0 1 12.63133,3.634442 20.872666,22.354714 0 0 1 8.26827,9.489939 V 23.280719 h 6.81393 v 77.102131 h -6.81393 V 87.662297 a 20.522544,21.979733 0 0 1 -8.07973,9.749536 23.565913,25.239194 0 0 1 -12.81987,3.749827 25.262658,27.056415 0 0 1 -13.08917,-3.663287 23.404319,25.066125 0 0 1 -9.02237,-10.297593 30.541424,32.709996 0 0 1 -3.25884,-15.431964 29.94891,32.075409 0 0 1 3.17803,-15.316583 z m 40.39872,3.403683 a 18.63727,19.960597 0 0 0 -7.16404,-8.018851 19.472178,20.854785 0 0 0 -9.96502,-2.88448 20.010827,21.431681 0 0 0 -10.09969,2.71141 17.721567,18.979874 0 0 0 -7.0563,7.87463 23.754442,25.441108 0 0 0 -2.69325,12.230191 24.239226,25.960314 0 0 0 2.69325,12.230193 17.990891,19.268322 0 0 0 7.0563,8.047698 20.03776,21.460527 0 0 0 10.09969,2.740256 19.472178,20.854785 0 0 0 9.96502,-2.88448 18.852731,20.191356 0 0 0 7.16404,-8.018853 25.666645,27.489088 0 0 0 0,-24.171937 z"
     id="path892"
     style="fill:#009444;fill-opacity:1;stroke-width:2.78723" />
  <path
     class="cls-1"
     d="m 441.80682,45.116227 a 24.562415,26.306451 0 0 1 10.01889,10.355281 31.888047,34.152235 0 0 1 0,31.729272 24.40082,26.133382 0 0 1 -10.01889,10.355283 32.80375,35.132959 0 0 1 -28.95241,0 24.508549,26.248761 0 0 1 -10.07275,-10.355283 31.888047,34.152235 0 0 1 0,-31.729272 24.697077,26.450675 0 0 1 10.07275,-10.355281 32.80375,35.132959 0 0 1 28.95241,0 z M 419.34514,60.77895 a 13.924089,14.912759 0 0 0 -3.25884,10.672572 13.735561,14.710844 0 0 0 3.25884,10.614885 11.069246,11.85521 0 0 0 15.99789,0 13.977954,14.970448 0 0 0 3.20495,-10.614885 14.16648,15.172362 0 0 0 -3.20495,-10.672572 11.015381,11.79752 0 0 0 -15.99789,0 z"
     id="path894"
     style="fill:#009444;fill-opacity:1;stroke-width:2.78723" />
  <path
     class="cls-1"
     d="m 490.77005,34.328275 a 8.3490664,8.9418859 0 0 0 -5.92514,1.874911 8.0797417,8.6534379 0 0 0 -2.04687,6.028563 h 9.83036 V 57.23104 h -9.83036 v 43.26719 H 466.18071 V 57.23104 h -6.51766 V 42.231749 h 6.51766 v -0.605741 a 20.280152,21.720129 0 0 1 5.87128,-16.72998 q 5.89821,-5.76896 17.07518,-5.76896 c 1.56209,0 2.69325,0 3.50123,0 V 34.41481 Z"
     id="path896"
     style="fill:#009444;fill-opacity:1;stroke-width:2.78723" />
  <path
     class="cls-1"
     d="m 550.12922,85.066266 v 15.316584 h -7.51416 A 21.545977,23.075833 0 0 1 527.8022,95.335013 c -3.55508,-3.374842 -5.38649,-8.941887 -5.38649,-16.729981 V 57.23104 H 515.117 V 42.231749 h 7.48724 V 27.982421 h 16.61732 v 14.249328 h 10.90766 V 57.23104 h -10.90766 v 21.691286 a 6.1406038,6.5766127 0 0 0 1.3197,4.788236 6.329131,6.7785264 0 0 0 4.41693,1.355704 z"
     id="path898"
     style="fill:#009444;fill-opacity:1;stroke-width:2.78723" />
  <path
     class="cls-1"
     d="m 608.78816,48.289155 a 24.966403,26.739124 0 0 1 5.38648,18.345289 V 100.38285 H 597.53038 V 68.653579 a 11.958018,12.807088 0 0 0 -2.88178,-9.114954 9.9111499,10.614884 0 0 0 -7.62189,-3.288307 10.422867,11.162935 0 0 0 -8.07974,3.432531 13.089181,14.018569 0 0 0 -2.96259,9.807229 V 100.32516 H 559.34013 V 23.280719 h 16.64425 v 29.594758 a 17.963959,19.239476 0 0 1 6.94859,-8.249611 20.603341,22.066267 0 0 1 10.773,-2.884479 18.852731,20.191356 0 0 1 15.08219,6.547768 z"
     id="path900"
     style="fill:#009444;fill-opacity:1;stroke-width:2.78723" />
  <path
     class="cls-1"
     d="m 676.28093,74.537917 h -37.70546 a 12.523599,13.412829 0 0 0 3.12415,9.432247 11.123111,11.912899 0 0 0 13.33159,0.89419 8.6722561,9.2880234 0 0 0 3.20496,-5.105529 h 17.61384 a 23.215791,24.864213 0 0 1 -4.68625,10.989866 24.589348,26.335295 0 0 1 -9.13011,7.586182 31.187803,33.402269 0 0 1 -26.52849,-0.8365 24.050698,25.7584 0 0 1 -9.66875,-10.355282 29.94891,32.075409 0 0 1 -3.50124,-15.83579 30.514492,32.681152 0 0 1 3.44738,-15.893483 23.646711,25.325729 0 0 1 9.69568,-10.297591 31.834182,34.094544 0 0 1 28.38682,0 23.323521,24.979589 0 0 1 9.56103,9.893765 27.363392,29.306311 0 0 1 3.36655,14.739689 23.054196,24.691143 0 0 1 -0.5117,4.788236 z M 657.07808,58.442523 a 10.772989,11.537917 0 0 0 -7.35257,-2.88448 10.772989,11.537917 0 0 0 -7.59496,2.88448 11.365503,12.172503 0 0 0 -3.3935,8.653438 h 21.2228 a 9.9919472,10.701418 0 0 0 -2.88177,-8.653438 z"
     id="path902"
     style="fill:#009444;fill-opacity:1;stroke-width:2.78723" />
  <path
     class="cls-1"
     d="m 798.36582,26.71325 -16.45574,73.6696 H 761.30674 L 750.31829,51.087099 739.2221,100.38285 h -20.63026 l -16.42881,-73.6696 h 18.09862 l 8.83386,53.334022 12.06574,-53.334022 h 18.17942 l 12.06573,53.334022 8.96852,-53.334022 z"
     id="path904"
     style="fill:#009444;fill-opacity:1;stroke-width:2.78723" />
  <path
     class="cls-1"
     d="m 858.18284,74.537917 h -37.70545 a 12.523599,13.412829 0 0 0 3.12415,9.432247 11.123111,11.912899 0 0 0 13.46623,0.89419 8.8069184,9.4322474 0 0 0 3.20497,-5.105529 h 17.61384 a 23.215791,24.864213 0 0 1 -4.68625,10.989866 24.589348,26.335295 0 0 1 -9.1301,7.586182 31.187803,33.402269 0 0 1 -26.52848,-0.8365 24.050698,25.7584 0 0 1 -9.66877,-10.355282 29.94891,32.075409 0 0 1 -3.50121,-15.83579 30.514492,32.681152 0 0 1 3.44735,-15.893483 23.646711,25.325729 0 0 1 9.69569,-10.297591 31.834182,34.094544 0 0 1 28.38683,0 23.323521,24.979589 0 0 1 9.48023,9.951455 27.363392,29.306311 0 0 1 3.36656,14.739689 23.054196,24.691143 0 0 1 -0.56559,4.730546 z M 838.98,58.442523 a 10.772989,11.537917 0 0 0 -7.35258,-2.88448 10.772989,11.537917 0 0 0 -7.59495,2.88448 11.365503,12.172503 0 0 0 -3.39349,8.653438 h 21.19585 A 9.9919472,10.701418 0 0 0 838.98,58.442523 Z"
     id="path906"
     style="fill:#009444;fill-opacity:1;stroke-width:2.78723" />
  <path
     class="cls-1"
     d="m 918.51157,74.537917 h -37.70546 a 12.631329,13.528208 0 0 0 3.09724,9.432247 10.072745,10.787952 0 0 0 7.21792,2.884479 9.9380823,10.643729 0 0 0 6.11365,-1.961445 8.6722561,9.2880234 0 0 0 3.20497,-5.105529 h 17.61384 a 22.892602,24.518074 0 0 1 -4.65932,10.989866 24.481616,26.219917 0 0 1 -9.15705,7.586178 28.817746,30.863928 0 0 1 -12.33506,2.884477 29.221732,31.296601 0 0 1 -14.16648,-3.605597 23.700576,25.383418 0 0 1 -9.66875,-10.355278 33.315469,35.681009 0 0 1 0,-31.729272 23.592846,25.268039 0 0 1 9.66875,-10.297591 31.888047,34.152235 0 0 1 28.41375,0 23.323521,24.979589 0 0 1 9.48023,9.951454 27.632716,29.594757 0 0 1 3.36656,14.739689 23.054196,24.691143 0 0 1 -0.48479,4.586322 z M 899.28179,58.442523 a 10.530597,11.278315 0 0 0 -7.32562,-2.88448 10.772989,11.537917 0 0 0 -7.59497,2.88448 11.392436,12.201347 0 0 0 -3.42041,8.653438 h 21.22277 a 9.9919472,10.701418 0 0 0 -2.98949,-8.653438 z"
     id="path908"
     style="fill:#009444;fill-opacity:1;stroke-width:2.78723" />
  <path
     class="cls-1"
     d="M 960.41851,100.38285 944.25902,75.691708 V 100.38285 H 927.61476 V 23.280719 h 16.64426 v 42.286467 l 16.15949,-23.335437 h 19.55298 l -21.89611,29.075552 22.38089,29.075549 z"
     id="path910"
     style="fill:#009444;fill-opacity:1;stroke-width:2.78723" />
  <path
     class="cls-2"
     d="M 36.24,0 0.01,45.34 v 62.53 L 7.39,99.68 V 47.93 l 15.21,-19 a 26.68,26.68 0 0 0 27.28,0 l 15.22,19 v 51.76 l 7.38,8.19 V 45.34 Z"
     id="path843"
     style="fill:#009444;fill-opacity:1" />
  <polygon
     class="cls-2"
     points="243.54,354.64 243.54,393.08 243.71,393.08 243.71,391.08 251.2,391.08 251.2,354.64 "
     id="polygon871"
     style="fill:#009444;fill-opacity:1"
     transform="translate(-223.29402,-303.69465)" />
  <polygon
     class="cls-2"
     points="251.2,354.64 243.54,354.64 243.54,393.08 243.71,393.08 243.71,391.08 251.2,391.08 "
     id="polygon871-7"
     style="fill:#009444;fill-opacity:1"
     transform="translate(-198.92781,-304.70874)" />
  <polygon
     class="cls-2"
     points="223.92,422.13 260.17,381.94 296.4,422.13 296.4,411.11 280.86,393.87 265.58,376.92 260.17,370.91 254.74,376.93 239.46,393.88 223.92,411.12 "
     id="polygon841"
     style="fill:#009444;fill-opacity:1"
     transform="translate(-223.92,-303.23)" />
</svg>
