<?xml version="1.0" encoding="utf-8"?>
<!-- Generator: Adobe Illustrator 25.0.0, SVG Export Plug-In . SVG Version: 6.00 Build 0)  -->
<svg version="1.1" id="Layer_1" xmlns="http://www.w3.org/2000/svg" xmlns:xlink="http://www.w3.org/1999/xlink" x="0px" y="0px"
	 viewBox="0 0 595.28 841.89" style="enable-background:new 0 0 595.28 841.89;" xml:space="preserve">
<style type="text/css">
	.st0{fill:#FFFFFF;}
	.st1{fill:#414042;}
	.st2{fill:#E84A87;}
	.st3{fill:#58595B;}
	.st4{opacity:0.55;}
	.st5{opacity:0.55;fill:#E84A87;}
	.st6{fill:#808285;}
	.st7{opacity:0.55;fill:#58595B;}
	.st8{font-family:'Montserrat-Bold';}
	.st9{font-size:12.5673px;}
</style>
<rect x="9.84" y="225.5" class="st0" width="320.06" height="339.46"/>
<rect x="329.9" y="394.26" class="st1" width="255.53" height="169.73"/>
<rect x="329.9" y="222.54" class="st2" width="255.53" height="169.73"/>
<rect x="9.95" y="205.94" class="st2" width="322.05" height="19.83"/>
<rect x="329.9" y="205.94" class="st3" width="255.53" height="19.83"/>
<g>
	<path class="st2" d="M142.97,358.89c-3.58,0-6.49,2.9-6.49,6.49v22.61c0,3.58,2.9,6.49,6.49,6.49c3.58,0,6.49-2.9,6.49-6.49v-22.61
		C149.45,361.8,146.55,358.89,142.97,358.89z"/>
	<path class="st2" d="M167.59,346.4c3.58,0,6.49-2.9,6.49-6.49v-0.32c0-3.58-2.9-6.49-6.49-6.49c-3.58,0-6.49,2.9-6.49,6.49v0.32
		C161.1,343.49,164,346.4,167.59,346.4z"/>
	<path class="st3" d="M192.36,367.52c-3.58,0-6.49,2.9-6.49,6.49v3.36v10.62c0,3.58,2.9,6.49,6.49,6.49c3.58,0,6.49-2.9,6.49-6.49
		v-10.62v-3.36C198.85,370.42,195.95,367.52,192.36,367.52z"/>
	<path class="st2" d="M167.59,370.09c-3.58,0-6.49,2.9-6.49,6.49v11.41c0,3.58,2.9,6.49,6.49,6.49c3.58,0,6.49-2.9,6.49-6.49v-11.41
		C174.07,372.99,171.17,370.09,167.59,370.09z"/>
	<path class="st3" d="M192.43,344.98L192.43,344.98c-3.58,0-6.49,2.9-6.49,6.49l0,5.66c0,3.58,2.9,6.49,6.49,6.49h0
		c3.58,0,6.49-2.9,6.49-6.49v-5.66C198.92,347.88,196.02,344.98,192.43,344.98z"/>
	<path class="st2" d="M190.66,339.5c0.55,0.15,1.11,0.26,1.71,0.26c3.58,0,6.49-2.9,6.49-6.49v-0.32c0-3.58-2.9-6.49-6.49-6.49
		c-3.58,0-6.49,2.9-6.49,6.49v0.32c0,0.67,0.13,1.29,0.32,1.9l-16.88,18.11c-0.55-0.15-1.12-0.26-1.72-0.26
		c-1.32,0-2.55,0.4-3.58,1.08l-14.56-8.22v-0.25c0-3.58-2.9-6.49-6.49-6.49c-3.58,0-6.49,2.9-6.49,6.49v0.32
		c0,3.58,2.9,6.49,6.49,6.49c1.31,0,2.53-0.4,3.55-1.07l14.58,8.23v0.22c0,3.58,2.9,6.49,6.49,6.49c3.58,0,6.49-2.9,6.49-6.49v-0.32
		c0-0.66-0.13-1.28-0.31-1.88L190.66,339.5z"/>
</g>
<g>
	<g>
		<g>
			<path class="st3" d="M91.3,428.38v-20.56h4.76v20.56H91.3z"/>
		</g>
		<g>
			<path class="st3" d="M109.04,412.34c1.25,0,2.37,0.25,3.36,0.75c0.99,0.5,1.77,1.26,2.34,2.29c0.57,1.03,0.85,2.35,0.85,3.95
				v9.05h-4.58v-8.34c0-1.27-0.28-2.21-0.84-2.82c-0.56-0.61-1.35-0.91-2.36-0.91c-0.72,0-1.38,0.15-1.95,0.46
				c-0.58,0.3-1.03,0.77-1.35,1.4c-0.32,0.63-0.48,1.43-0.48,2.41v7.81h-4.58v-15.8h4.38v4.38l-0.82-1.32
				c0.57-1.06,1.38-1.87,2.44-2.44C106.48,412.63,107.69,412.34,109.04,412.34z"/>
		</g>
		<g>
			<path class="st3" d="M116.67,416.45v-3.52h10.95v3.52H116.67z M125.01,428.61c-1.86,0-3.31-0.47-4.35-1.42
				c-1.04-0.95-1.56-2.36-1.56-4.24v-13.86h4.58v13.8c0,0.67,0.18,1.18,0.53,1.54c0.35,0.36,0.83,0.54,1.44,0.54
				c0.72,0,1.34-0.2,1.85-0.59l1.23,3.23c-0.47,0.33-1.03,0.58-1.69,0.75C126.4,428.53,125.72,428.61,125.01,428.61z"/>
		</g>
		<g>
			<path class="st3" d="M137.5,428.61c-1.8,0-3.38-0.35-4.74-1.06c-1.36-0.7-2.41-1.67-3.16-2.89c-0.74-1.22-1.12-2.62-1.12-4.19
				c0-1.59,0.37-2.99,1.1-4.21c0.73-1.22,1.74-2.18,3.01-2.88c1.27-0.69,2.71-1.04,4.32-1.04c1.55,0,2.94,0.33,4.19,0.98
				c1.24,0.66,2.23,1.6,2.95,2.82c0.72,1.22,1.09,2.69,1.09,4.39c0,0.18-0.01,0.38-0.03,0.6c-0.02,0.23-0.04,0.44-0.06,0.63h-12.83
				v-2.67h10.43l-1.76,0.79c0-0.82-0.17-1.54-0.5-2.14c-0.33-0.61-0.79-1.08-1.38-1.42c-0.59-0.34-1.27-0.51-2.06-0.51
				c-0.78,0-1.47,0.17-2.07,0.51c-0.6,0.34-1.06,0.82-1.4,1.44c-0.33,0.62-0.5,1.35-0.5,2.19v0.7c0,0.86,0.19,1.62,0.57,2.28
				s0.92,1.15,1.62,1.5c0.69,0.34,1.51,0.51,2.45,0.51c0.84,0,1.58-0.13,2.22-0.38c0.64-0.25,1.22-0.64,1.75-1.15l2.44,2.64
				c-0.72,0.82-1.63,1.45-2.73,1.89C140.19,428.39,138.92,428.61,137.5,428.61z"/>
		</g>
		<g>
			<path class="st3" d="M156.61,412.34c1.25,0,2.37,0.25,3.36,0.75c0.99,0.5,1.77,1.26,2.34,2.29c0.57,1.03,0.85,2.35,0.85,3.95
				v9.05h-4.58v-8.34c0-1.27-0.28-2.21-0.84-2.82c-0.56-0.61-1.35-0.91-2.36-0.91c-0.72,0-1.38,0.15-1.95,0.46
				c-0.58,0.3-1.03,0.77-1.35,1.4c-0.32,0.63-0.48,1.43-0.48,2.41v7.81h-4.58v-15.8h4.38v4.38l-0.82-1.32
				c0.57-1.06,1.38-1.87,2.44-2.44C154.06,412.63,155.26,412.34,156.61,412.34z"/>
		</g>
		<g>
			<path class="st3" d="M164.25,416.45v-3.52h10.95v3.52H164.25z M172.59,428.61c-1.86,0-3.31-0.47-4.35-1.42
				c-1.04-0.95-1.56-2.36-1.56-4.24v-13.86h4.58v13.8c0,0.67,0.18,1.18,0.53,1.54c0.35,0.36,0.83,0.54,1.44,0.54
				c0.72,0,1.34-0.2,1.85-0.59l1.23,3.23c-0.47,0.33-1.03,0.58-1.69,0.75C173.98,428.53,173.3,428.61,172.59,428.61z"/>
		</g>
		<g>
			<path class="st3" d="M180.02,410.37c-0.94,0-1.69-0.31-2.24-0.92c-0.37-0.42-0.59-0.97-0.61-1.53c-0.03-0.77,0.24-1.42,0.79-1.93
				c0.53-0.49,1.21-0.73,2.06-0.73c0.84,0,1.53,0.23,2.06,0.69c0.53,0.46,0.79,1.05,0.79,1.78c0,0.76-0.26,1.4-0.78,1.89
				C181.57,410.12,180.88,410.37,180.02,410.37z M177.73,428.38v-15.8h4.58v15.8H177.73z"/>
		</g>
		<g>
			<path class="st3" d="M192.91,428.61c-1.68,0-3.18-0.35-4.48-1.06c-1.3-0.7-2.33-1.67-3.08-2.89c-0.75-1.22-1.13-2.62-1.13-4.19
				c0-1.59,0.38-2.99,1.13-4.21c0.75-1.22,1.78-2.18,3.08-2.88c1.3-0.69,2.79-1.04,4.48-1.04c1.66,0,3.15,0.35,4.46,1.04
				c1.31,0.7,2.34,1.65,3.08,2.86c0.74,1.21,1.12,2.62,1.12,4.23c0,1.57-0.37,2.96-1.12,4.19c-0.74,1.22-1.77,2.19-3.08,2.89
				C196.07,428.26,194.58,428.61,192.91,428.61z M192.91,424.85c0.76,0,1.45-0.18,2.06-0.53c0.61-0.35,1.09-0.86,1.44-1.51
				c0.35-0.66,0.53-1.43,0.53-2.33c0-0.92-0.18-1.7-0.53-2.35c-0.35-0.65-0.83-1.15-1.44-1.5c-0.61-0.35-1.29-0.53-2.06-0.53
				s-1.45,0.18-2.06,0.53c-0.61,0.35-1.09,0.85-1.45,1.5c-0.36,0.65-0.54,1.43-0.54,2.35c0,0.9,0.18,1.68,0.54,2.33
				c0.36,0.66,0.85,1.16,1.45,1.51C191.46,424.68,192.15,424.85,192.91,424.85z"/>
		</g>
		<g>
			<path class="st3" d="M213.06,412.34c1.25,0,2.37,0.25,3.36,0.75c0.99,0.5,1.77,1.26,2.34,2.29c0.57,1.03,0.85,2.35,0.85,3.95
				v9.05h-4.58v-8.34c0-1.27-0.28-2.21-0.84-2.82c-0.56-0.61-1.35-0.91-2.36-0.91c-0.72,0-1.38,0.15-1.95,0.46
				c-0.58,0.3-1.03,0.77-1.35,1.4c-0.32,0.63-0.48,1.43-0.48,2.41v7.81h-4.58v-15.8h4.38v4.38l-0.82-1.32
				c0.57-1.06,1.38-1.87,2.44-2.44C210.51,412.63,211.71,412.34,213.06,412.34z"/>
		</g>
		<g>
			<path class="st3" d="M227.45,428.61c-1.23,0-2.29-0.21-3.17-0.63c-0.88-0.42-1.56-0.99-2.03-1.72c-0.47-0.72-0.71-1.54-0.71-2.44
				c0-0.94,0.23-1.76,0.69-2.47c0.46-0.71,1.19-1.26,2.19-1.66c1-0.4,2.3-0.6,3.91-0.6h4.2v2.67h-3.7c-1.08,0-1.82,0.18-2.22,0.53
				c-0.4,0.35-0.6,0.79-0.6,1.32c0,0.59,0.23,1.05,0.69,1.4c0.46,0.34,1.09,0.51,1.89,0.51c0.76,0,1.45-0.18,2.06-0.54
				c0.61-0.36,1.05-0.9,1.32-1.6l0.7,2.11c-0.33,1.02-0.94,1.79-1.82,2.32C229.98,428.35,228.84,428.61,227.45,428.61z
				 M232.27,428.38v-3.08l-0.29-0.68v-5.52c0-0.98-0.3-1.74-0.9-2.29c-0.6-0.55-1.51-0.82-2.75-0.82c-0.84,0-1.67,0.13-2.48,0.4
				c-0.81,0.26-1.5,0.62-2.07,1.07l-1.64-3.2c0.86-0.61,1.9-1.08,3.11-1.41c1.21-0.33,2.45-0.5,3.7-0.5c2.41,0,4.28,0.57,5.61,1.7
				c1.33,1.14,2,2.91,2,5.32v9.02H232.27z"/>
		</g>
		<g>
			<path class="st3" d="M239.52,428.38v-21.79h4.58v21.79H239.52z"/>
		</g>
	</g>
</g>
<g>
	<g>
		<path class="st3" d="M108.21,443.83v-6.53h-2.58v-1.52h7.01v1.52h-2.58v6.53H108.21z"/>
		<path class="st3" d="M119.87,442.34h4.38v1.5h-6.23v-8.05h6.08v1.49h-4.23V442.34z M119.73,439.03h3.88v1.45h-3.88V439.03z"/>
		<path class="st3" d="M133.95,443.97c-0.62,0-1.2-0.1-1.73-0.31c-0.53-0.2-0.99-0.49-1.39-0.87c-0.39-0.38-0.7-0.82-0.91-1.32
			c-0.22-0.51-0.33-1.06-0.33-1.67s0.11-1.16,0.33-1.67c0.22-0.51,0.53-0.95,0.92-1.32s0.86-0.67,1.39-0.87s1.11-0.3,1.74-0.3
			c0.7,0,1.33,0.12,1.89,0.36c0.56,0.24,1.04,0.6,1.42,1.06l-1.2,1.1c-0.28-0.31-0.58-0.55-0.92-0.71c-0.34-0.16-0.71-0.24-1.1-0.24
			c-0.38,0-0.72,0.06-1.04,0.18c-0.31,0.12-0.59,0.3-0.82,0.53c-0.23,0.23-0.41,0.5-0.53,0.82c-0.13,0.31-0.19,0.66-0.19,1.05
			s0.06,0.73,0.19,1.05c0.13,0.31,0.3,0.59,0.53,0.82c0.23,0.23,0.5,0.41,0.82,0.53c0.31,0.12,0.66,0.18,1.04,0.18
			c0.4,0,0.77-0.08,1.1-0.24c0.34-0.16,0.64-0.4,0.92-0.72l1.2,1.1c-0.38,0.47-0.86,0.82-1.42,1.07
			C135.29,443.85,134.66,443.97,133.95,443.97z"/>
		<path class="st3" d="M144.76,443.83h-1.86v-8.05h1.86V443.83z M148.56,440.53h-3.93v-1.58h3.93V440.53z M148.42,435.79h1.86v8.05
			h-1.86V435.79z"/>
		<path class="st3" d="M156.56,443.83v-8.05h1.54l4.75,5.8h-0.75v-5.8h1.84v8.05h-1.53l-4.76-5.8h0.75v5.8H156.56z"/>
		<path class="st3" d="M174.13,443.97c-0.64,0-1.22-0.1-1.77-0.31c-0.54-0.21-1.01-0.5-1.4-0.87c-0.39-0.38-0.7-0.82-0.92-1.32
			c-0.22-0.51-0.33-1.06-0.33-1.66s0.11-1.15,0.33-1.66c0.22-0.51,0.53-0.95,0.93-1.32c0.4-0.38,0.87-0.67,1.4-0.87
			c0.54-0.21,1.12-0.31,1.75-0.31c0.64,0,1.22,0.1,1.75,0.31c0.53,0.21,1,0.5,1.39,0.87c0.4,0.38,0.7,0.81,0.93,1.32
			c0.22,0.5,0.33,1.06,0.33,1.66c0,0.6-0.11,1.15-0.33,1.66c-0.22,0.51-0.53,0.95-0.93,1.32c-0.39,0.37-0.86,0.66-1.39,0.87
			S174.76,443.97,174.13,443.97z M174.12,442.39c0.36,0,0.69-0.06,0.99-0.18c0.3-0.12,0.57-0.3,0.8-0.53
			c0.23-0.23,0.41-0.5,0.53-0.82c0.13-0.31,0.19-0.66,0.19-1.05s-0.06-0.73-0.19-1.05c-0.13-0.31-0.3-0.59-0.53-0.82
			c-0.23-0.23-0.49-0.41-0.8-0.53c-0.31-0.12-0.64-0.18-1-0.18c-0.36,0-0.69,0.06-1,0.18c-0.3,0.12-0.57,0.3-0.8,0.53
			c-0.23,0.23-0.41,0.5-0.53,0.82c-0.13,0.31-0.19,0.66-0.19,1.05c0,0.38,0.06,0.72,0.19,1.04c0.13,0.32,0.3,0.59,0.53,0.82
			c0.23,0.23,0.49,0.41,0.8,0.53C173.42,442.32,173.76,442.39,174.12,442.39z"/>
		<path class="st3" d="M184.29,443.83v-8.05h1.86v6.53h4.04v1.52H184.29z"/>
		<path class="st3" d="M199.38,443.97c-0.64,0-1.22-0.1-1.77-0.31c-0.54-0.21-1.01-0.5-1.4-0.87c-0.39-0.38-0.7-0.82-0.92-1.32
			c-0.22-0.51-0.33-1.06-0.33-1.66s0.11-1.15,0.33-1.66c0.22-0.51,0.53-0.95,0.93-1.32c0.4-0.38,0.87-0.67,1.4-0.87
			c0.54-0.21,1.12-0.31,1.75-0.31c0.64,0,1.22,0.1,1.75,0.31c0.53,0.21,1,0.5,1.39,0.87c0.4,0.38,0.7,0.81,0.93,1.32
			c0.22,0.5,0.33,1.06,0.33,1.66c0,0.6-0.11,1.15-0.33,1.66c-0.22,0.51-0.53,0.95-0.93,1.32c-0.39,0.37-0.86,0.66-1.39,0.87
			S200.01,443.97,199.38,443.97z M199.37,442.39c0.36,0,0.69-0.06,0.99-0.18c0.3-0.12,0.57-0.3,0.8-0.53
			c0.23-0.23,0.41-0.5,0.53-0.82c0.13-0.31,0.19-0.66,0.19-1.05s-0.06-0.73-0.19-1.05c-0.13-0.31-0.3-0.59-0.53-0.82
			c-0.23-0.23-0.49-0.41-0.8-0.53c-0.31-0.12-0.64-0.18-1-0.18c-0.36,0-0.69,0.06-1,0.18c-0.3,0.12-0.57,0.3-0.8,0.53
			c-0.23,0.23-0.41,0.5-0.53,0.82c-0.13,0.31-0.19,0.66-0.19,1.05c0,0.38,0.06,0.72,0.19,1.04c0.13,0.32,0.3,0.59,0.53,0.82
			c0.23,0.23,0.49,0.41,0.8,0.53C198.67,442.32,199.01,442.39,199.37,442.39z"/>
		<path class="st3" d="M213.43,443.97c-0.64,0-1.22-0.1-1.75-0.31c-0.53-0.2-1-0.49-1.39-0.87c-0.39-0.38-0.7-0.82-0.92-1.32
			c-0.22-0.51-0.33-1.06-0.33-1.67s0.11-1.16,0.33-1.67c0.22-0.51,0.53-0.95,0.93-1.32c0.4-0.38,0.87-0.67,1.4-0.87
			c0.54-0.2,1.13-0.3,1.77-0.3c0.71,0,1.35,0.12,1.93,0.36c0.57,0.24,1.05,0.58,1.44,1.03l-1.2,1.1c-0.29-0.31-0.61-0.53-0.95-0.68
			c-0.34-0.15-0.72-0.22-1.13-0.22c-0.39,0-0.75,0.06-1.07,0.18c-0.32,0.12-0.6,0.3-0.83,0.53c-0.23,0.23-0.41,0.5-0.54,0.82
			c-0.13,0.31-0.19,0.66-0.19,1.05c0,0.38,0.06,0.72,0.19,1.03c0.13,0.31,0.31,0.59,0.54,0.82c0.23,0.23,0.51,0.41,0.83,0.53
			c0.32,0.12,0.67,0.18,1.05,0.18c0.37,0,0.73-0.06,1.07-0.18c0.35-0.12,0.69-0.32,1.02-0.6l1.06,1.35
			c-0.44,0.33-0.95,0.58-1.52,0.76C214.58,443.88,214.01,443.97,213.43,443.97z M214.98,442.71v-3.02h1.7v3.27L214.98,442.71z"/>
		<path class="st3" d="M224.78,443.83v-3.29l0.43,1.13l-3.54-5.89h1.98l2.71,4.52h-1.14l2.72-4.52h1.83l-3.54,5.89l0.41-1.13v3.29
			H224.78z"/>
	</g>
</g>
<g>
	<g>
		<g>
			<path class="st0" d="M433.89,310.95v-13.84h3.2v13.84H433.89z"/>
		</g>
		<g>
			<path class="st0" d="M445.83,300.15c0.84,0,1.6,0.17,2.26,0.5c0.67,0.34,1.19,0.85,1.57,1.54c0.38,0.69,0.57,1.58,0.57,2.66v6.09
				h-3.08v-5.62c0-0.86-0.19-1.49-0.56-1.9c-0.38-0.41-0.91-0.61-1.59-0.61c-0.49,0-0.93,0.1-1.32,0.31
				c-0.39,0.2-0.69,0.52-0.91,0.94c-0.22,0.42-0.33,0.96-0.33,1.62v5.26h-3.08v-10.64h2.95v2.95l-0.55-0.89
				c0.38-0.71,0.93-1.26,1.64-1.64C444.11,300.34,444.92,300.15,445.83,300.15z"/>
		</g>
		<g>
			<path class="st0" d="M450.97,302.92v-2.37h7.38v2.37H450.97z M456.58,311.1c-1.25,0-2.23-0.32-2.93-0.96
				c-0.7-0.64-1.05-1.59-1.05-2.86v-9.33h3.08v9.29c0,0.45,0.12,0.79,0.36,1.04c0.24,0.24,0.56,0.37,0.97,0.37
				c0.49,0,0.9-0.13,1.25-0.4l0.83,2.18c-0.32,0.22-0.7,0.39-1.14,0.5C457.52,311.05,457.06,311.1,456.58,311.1z"/>
		</g>
		<g>
			<path class="st0" d="M464.99,311.1c-1.21,0-2.28-0.24-3.19-0.71c-0.92-0.47-1.62-1.12-2.13-1.95c-0.5-0.82-0.75-1.76-0.75-2.82
				c0-1.07,0.25-2.01,0.74-2.84c0.49-0.82,1.17-1.47,2.03-1.94c0.86-0.47,1.83-0.7,2.91-0.7c1.04,0,1.98,0.22,2.82,0.66
				c0.84,0.44,1.5,1.07,1.99,1.9c0.49,0.82,0.73,1.81,0.73,2.96c0,0.12-0.01,0.25-0.02,0.41c-0.01,0.15-0.03,0.29-0.04,0.43h-8.64
				v-1.8h7.02l-1.19,0.53c0-0.55-0.11-1.04-0.34-1.44c-0.22-0.41-0.53-0.73-0.93-0.96c-0.4-0.23-0.86-0.35-1.38-0.35
				c-0.53,0-0.99,0.12-1.39,0.35c-0.4,0.23-0.71,0.55-0.94,0.97s-0.34,0.91-0.34,1.47v0.47c0,0.58,0.13,1.09,0.39,1.53
				c0.26,0.44,0.62,0.78,1.09,1.01c0.47,0.23,1.02,0.35,1.65,0.35c0.57,0,1.06-0.09,1.49-0.26c0.43-0.17,0.82-0.43,1.18-0.77
				l1.64,1.78c-0.49,0.55-1.1,0.98-1.84,1.28C466.8,310.96,465.95,311.1,464.99,311.1z"/>
		</g>
		<g>
			<path class="st0" d="M477.86,300.15c0.84,0,1.6,0.17,2.26,0.5c0.67,0.34,1.19,0.85,1.57,1.54c0.38,0.69,0.57,1.58,0.57,2.66v6.09
				h-3.08v-5.62c0-0.86-0.19-1.49-0.56-1.9c-0.38-0.41-0.91-0.61-1.59-0.61c-0.49,0-0.93,0.1-1.32,0.31
				c-0.39,0.2-0.69,0.52-0.91,0.94c-0.22,0.42-0.33,0.96-0.33,1.62v5.26h-3.08v-10.64h2.95v2.95l-0.55-0.89
				c0.38-0.71,0.93-1.26,1.64-1.64C476.14,300.34,476.95,300.15,477.86,300.15z"/>
		</g>
		<g>
			<path class="st0" d="M483,302.92v-2.37h7.38v2.37H483z M488.62,311.1c-1.25,0-2.23-0.32-2.93-0.96c-0.7-0.64-1.05-1.59-1.05-2.86
				v-9.33h3.08v9.29c0,0.45,0.12,0.79,0.36,1.04c0.24,0.24,0.56,0.37,0.97,0.37c0.49,0,0.9-0.13,1.25-0.4l0.83,2.18
				c-0.32,0.22-0.7,0.39-1.14,0.5C489.55,311.05,489.09,311.1,488.62,311.1z"/>
		</g>
		<g>
			<path class="st0" d="M493.62,298.83c-0.63,0-1.14-0.21-1.51-0.62c-0.25-0.28-0.4-0.65-0.41-1.03c-0.02-0.52,0.16-0.95,0.53-1.3
				c0.36-0.33,0.82-0.49,1.38-0.49c0.57,0,1.03,0.15,1.38,0.46c0.36,0.31,0.53,0.71,0.53,1.2c0,0.51-0.17,0.94-0.52,1.28
				C494.66,298.66,494.2,298.83,493.62,298.83z M492.08,310.95v-10.64h3.08v10.64H492.08z"/>
		</g>
		<g>
			<path class="st0" d="M502.3,311.1c-1.13,0-2.14-0.24-3.02-0.71c-0.88-0.47-1.57-1.12-2.08-1.95c-0.51-0.82-0.76-1.76-0.76-2.82
				c0-1.07,0.25-2.01,0.76-2.84c0.51-0.82,1.2-1.47,2.08-1.94c0.88-0.47,1.88-0.7,3.02-0.7c1.12,0,2.12,0.23,3.01,0.7
				c0.88,0.47,1.57,1.11,2.08,1.93c0.5,0.82,0.75,1.77,0.75,2.85c0,1.05-0.25,1.99-0.75,2.82c-0.5,0.82-1.19,1.47-2.08,1.95
				C504.42,310.87,503.42,311.1,502.3,311.1z M502.3,308.57c0.51,0,0.98-0.12,1.38-0.36c0.41-0.24,0.73-0.58,0.97-1.02
				c0.24-0.44,0.36-0.97,0.36-1.57c0-0.62-0.12-1.15-0.36-1.58c-0.24-0.43-0.56-0.77-0.97-1.01c-0.41-0.24-0.87-0.36-1.38-0.36
				s-0.98,0.12-1.38,0.36c-0.41,0.24-0.74,0.57-0.98,1.01c-0.24,0.44-0.37,0.96-0.37,1.58c0,0.61,0.12,1.13,0.37,1.57
				c0.24,0.44,0.57,0.78,0.98,1.02C501.32,308.46,501.78,308.57,502.3,308.57z"/>
		</g>
		<g>
			<path class="st0" d="M515.86,300.15c0.84,0,1.6,0.17,2.26,0.5c0.67,0.34,1.19,0.85,1.57,1.54c0.38,0.69,0.57,1.58,0.57,2.66v6.09
				h-3.08v-5.62c0-0.86-0.19-1.49-0.56-1.9c-0.38-0.41-0.91-0.61-1.59-0.61c-0.49,0-0.93,0.1-1.32,0.31
				c-0.39,0.2-0.69,0.52-0.91,0.94c-0.22,0.42-0.33,0.96-0.33,1.62v5.26h-3.08v-10.64h2.95v2.95l-0.55-0.89
				c0.38-0.71,0.93-1.26,1.64-1.64C514.14,300.34,514.95,300.15,515.86,300.15z"/>
		</g>
		<g>
			<path class="st0" d="M525.55,311.1c-0.83,0-1.54-0.14-2.14-0.43c-0.59-0.28-1.05-0.67-1.36-1.16c-0.32-0.49-0.47-1.03-0.47-1.64
				c0-0.63,0.15-1.19,0.46-1.66c0.31-0.47,0.8-0.85,1.47-1.12c0.67-0.27,1.55-0.41,2.63-0.41h2.83v1.8h-2.49
				c-0.73,0-1.22,0.12-1.49,0.36c-0.27,0.24-0.4,0.53-0.4,0.89c0,0.4,0.15,0.71,0.46,0.94c0.31,0.23,0.73,0.35,1.28,0.35
				c0.51,0,0.98-0.12,1.38-0.37s0.7-0.6,0.89-1.08l0.47,1.42c-0.22,0.69-0.63,1.21-1.23,1.56
				C527.25,310.93,526.49,311.1,525.55,311.1z M528.79,310.95v-2.08l-0.2-0.45v-3.72c0-0.66-0.2-1.17-0.6-1.54
				c-0.4-0.37-1.02-0.55-1.85-0.55c-0.57,0-1.12,0.09-1.67,0.27c-0.55,0.18-1.01,0.42-1.39,0.72l-1.11-2.16
				c0.58-0.41,1.28-0.73,2.1-0.95c0.82-0.22,1.65-0.34,2.49-0.34c1.62,0,2.88,0.38,3.78,1.15c0.9,0.76,1.34,1.96,1.34,3.58v6.07
				H528.79z"/>
		</g>
		<g>
			<path class="st0" d="M533.68,310.95v-14.67h3.08v14.67H533.68z"/>
		</g>
	</g>
	<g>
		<path class="st0" d="M435.62,320.53v-4.4h-1.73v-1.02h4.72v1.02h-1.73v4.4H435.62z"/>
		<path class="st0" d="M445.64,319.53h2.95v1.01h-4.2v-5.42h4.1v1.01h-2.85V319.53z M445.54,317.3h2.61v0.98h-2.61V317.3z"/>
		<path class="st0" d="M457.29,320.63c-0.42,0-0.81-0.07-1.17-0.21c-0.36-0.14-0.67-0.33-0.93-0.58c-0.26-0.25-0.47-0.55-0.62-0.89
			c-0.15-0.34-0.22-0.71-0.22-1.12s0.07-0.78,0.22-1.12c0.15-0.34,0.35-0.64,0.62-0.89c0.27-0.25,0.58-0.45,0.93-0.58
			c0.36-0.14,0.75-0.21,1.17-0.21c0.47,0,0.89,0.08,1.27,0.24c0.38,0.16,0.7,0.4,0.96,0.72l-0.81,0.74
			c-0.19-0.21-0.39-0.37-0.62-0.48c-0.23-0.11-0.47-0.16-0.74-0.16c-0.25,0-0.49,0.04-0.7,0.12c-0.21,0.08-0.39,0.2-0.55,0.36
			c-0.15,0.15-0.27,0.34-0.36,0.55c-0.09,0.21-0.13,0.45-0.13,0.7s0.04,0.49,0.13,0.7c0.09,0.21,0.21,0.39,0.36,0.55
			c0.16,0.15,0.34,0.27,0.55,0.36c0.21,0.08,0.44,0.12,0.7,0.12c0.27,0,0.52-0.05,0.74-0.16c0.23-0.11,0.43-0.27,0.62-0.48
			l0.81,0.74c-0.26,0.31-0.58,0.55-0.96,0.72C458.19,320.54,457.76,320.63,457.29,320.63z"/>
		<path class="st0" d="M466.73,320.53h-1.25v-5.42h1.25V320.53z M469.29,318.31h-2.65v-1.06h2.65V318.31z M469.2,315.11h1.25v5.42
			h-1.25V315.11z"/>
		<path class="st0" d="M476.84,320.53v-5.42h1.04l3.2,3.9h-0.5v-3.9h1.24v5.42h-1.03l-3.21-3.9h0.5v3.9H476.84z"/>
		<path class="st0" d="M490.84,320.63c-0.43,0-0.82-0.07-1.19-0.21c-0.36-0.14-0.68-0.34-0.94-0.59c-0.27-0.25-0.47-0.55-0.62-0.89
			c-0.15-0.34-0.22-0.71-0.22-1.11c0-0.4,0.07-0.77,0.22-1.11c0.15-0.34,0.35-0.64,0.62-0.89c0.27-0.25,0.58-0.45,0.94-0.59
			c0.36-0.14,0.75-0.21,1.18-0.21c0.43,0,0.82,0.07,1.18,0.21c0.36,0.14,0.67,0.34,0.94,0.59c0.27,0.25,0.47,0.55,0.62,0.89
			c0.15,0.34,0.22,0.71,0.22,1.12c0,0.4-0.07,0.78-0.22,1.12c-0.15,0.34-0.36,0.64-0.62,0.89c-0.27,0.25-0.58,0.45-0.94,0.58
			S491.26,320.63,490.84,320.63z M490.83,319.56c0.24,0,0.47-0.04,0.67-0.12c0.2-0.08,0.38-0.2,0.54-0.36
			c0.15-0.15,0.28-0.34,0.36-0.55c0.09-0.21,0.13-0.45,0.13-0.7s-0.04-0.49-0.13-0.7c-0.08-0.21-0.2-0.39-0.36-0.55
			c-0.15-0.15-0.33-0.27-0.54-0.36c-0.21-0.08-0.43-0.12-0.67-0.12c-0.24,0-0.47,0.04-0.67,0.12c-0.2,0.08-0.38,0.2-0.54,0.36
			c-0.15,0.15-0.27,0.34-0.36,0.55c-0.09,0.21-0.13,0.45-0.13,0.7c0,0.25,0.04,0.49,0.13,0.7c0.09,0.21,0.2,0.4,0.36,0.55
			c0.15,0.15,0.33,0.27,0.54,0.36C490.37,319.52,490.59,319.56,490.83,319.56z"/>
		<path class="st0" d="M499.85,320.53v-5.42h1.25v4.4h2.72v1.02H499.85z"/>
		<path class="st0" d="M512.18,320.63c-0.43,0-0.82-0.07-1.19-0.21c-0.36-0.14-0.68-0.34-0.94-0.59c-0.27-0.25-0.47-0.55-0.62-0.89
			c-0.15-0.34-0.22-0.71-0.22-1.11c0-0.4,0.07-0.77,0.22-1.11c0.15-0.34,0.35-0.64,0.62-0.89c0.27-0.25,0.58-0.45,0.94-0.59
			c0.36-0.14,0.75-0.21,1.18-0.21c0.43,0,0.82,0.07,1.18,0.21c0.36,0.14,0.67,0.34,0.94,0.59c0.27,0.25,0.47,0.55,0.62,0.89
			c0.15,0.34,0.22,0.71,0.22,1.12c0,0.4-0.07,0.78-0.22,1.12c-0.15,0.34-0.36,0.64-0.62,0.89c-0.27,0.25-0.58,0.45-0.94,0.58
			S512.6,320.63,512.18,320.63z M512.17,319.56c0.24,0,0.47-0.04,0.67-0.12c0.2-0.08,0.38-0.2,0.54-0.36
			c0.15-0.15,0.28-0.34,0.36-0.55c0.09-0.21,0.13-0.45,0.13-0.7s-0.04-0.49-0.13-0.7c-0.08-0.21-0.2-0.39-0.36-0.55
			c-0.15-0.15-0.33-0.27-0.54-0.36c-0.21-0.08-0.43-0.12-0.67-0.12c-0.24,0-0.47,0.04-0.67,0.12c-0.2,0.08-0.38,0.2-0.54,0.36
			c-0.15,0.15-0.27,0.34-0.36,0.55c-0.09,0.21-0.13,0.45-0.13,0.7c0,0.25,0.04,0.49,0.13,0.7c0.09,0.21,0.2,0.4,0.36,0.55
			c0.15,0.15,0.33,0.27,0.54,0.36C511.7,319.52,511.93,319.56,512.17,319.56z"/>
		<path class="st0" d="M523.8,320.63c-0.43,0-0.82-0.07-1.18-0.21c-0.36-0.14-0.67-0.33-0.94-0.58c-0.27-0.25-0.47-0.55-0.62-0.89
			c-0.15-0.34-0.22-0.71-0.22-1.12s0.07-0.78,0.22-1.12c0.15-0.34,0.35-0.64,0.62-0.89c0.27-0.25,0.58-0.45,0.94-0.58
			c0.36-0.14,0.76-0.21,1.19-0.21c0.48,0,0.91,0.08,1.3,0.24c0.38,0.16,0.71,0.39,0.97,0.7l-0.81,0.74
			c-0.2-0.21-0.41-0.36-0.64-0.46c-0.23-0.1-0.48-0.15-0.76-0.15c-0.26,0-0.5,0.04-0.72,0.12c-0.22,0.08-0.4,0.2-0.56,0.36
			c-0.16,0.15-0.28,0.34-0.36,0.55s-0.13,0.45-0.13,0.7c0,0.25,0.04,0.49,0.13,0.7c0.09,0.21,0.21,0.4,0.36,0.55
			c0.16,0.16,0.34,0.28,0.56,0.36c0.21,0.08,0.45,0.12,0.71,0.12c0.25,0,0.49-0.04,0.72-0.12c0.23-0.08,0.46-0.22,0.69-0.41
			l0.71,0.91c-0.29,0.22-0.64,0.39-1.03,0.51C524.58,320.57,524.19,320.63,523.8,320.63z M524.85,319.78v-2.04H526v2.2
			L524.85,319.78z"/>
		<path class="st0" d="M533.61,320.53v-2.21l0.29,0.76l-2.38-3.96h1.33l1.83,3.04h-0.77l1.83-3.04h1.23l-2.38,3.96l0.28-0.76v2.21
			H533.61z"/>
	</g>
</g>
<g>
	<path class="st0" d="M388.57,307.18c-1.88,0-3.41,1.53-3.41,3.41v11.89c0,1.88,1.53,3.41,3.41,3.41c1.88,0,3.41-1.53,3.41-3.41
		v-11.89C391.98,308.71,390.45,307.18,388.57,307.18z"/>
	<path class="st0" d="M401.52,300.61c1.88,0,3.41-1.53,3.41-3.41v-0.17c0-1.88-1.53-3.41-3.41-3.41c-1.88,0-3.41,1.53-3.41,3.41
		v0.17C398.11,299.08,399.63,300.61,401.52,300.61z"/>
	<path class="st0" d="M414.55,311.72c-1.88,0-3.41,1.53-3.41,3.41v1.77v5.58c0,1.88,1.53,3.41,3.41,3.41c1.88,0,3.41-1.53,3.41-3.41
		v-5.58v-1.77C417.96,313.24,416.43,311.72,414.55,311.72z"/>
	<path class="st0" d="M401.52,313.07c-1.88,0-3.41,1.53-3.41,3.41v6c0,1.88,1.53,3.41,3.41,3.41c1.88,0,3.41-1.53,3.41-3.41v-6
		C404.93,314.59,403.4,313.07,401.52,313.07z"/>
	<path class="st0" d="M414.59,299.86L414.59,299.86c-1.88,0-3.41,1.53-3.41,3.41l0,2.98c0,1.88,1.53,3.41,3.41,3.41h0
		c1.88,0,3.41-1.53,3.41-3.41v-2.98C418,301.39,416.47,299.86,414.59,299.86z"/>
	<path class="st0" d="M413.65,296.98c0.29,0.08,0.58,0.13,0.9,0.13c1.88,0,3.41-1.53,3.41-3.41v-0.17c0-1.88-1.53-3.41-3.41-3.41
		c-1.88,0-3.41,1.53-3.41,3.41v0.17c0,0.35,0.07,0.68,0.17,1l-8.88,9.52c-0.29-0.08-0.59-0.14-0.91-0.14c-0.7,0-1.34,0.21-1.88,0.57
		l-7.66-4.32v-0.13c0-1.88-1.53-3.41-3.41-3.41c-1.88,0-3.41,1.53-3.41,3.41v0.17c0,1.88,1.53,3.41,3.41,3.41
		c0.69,0,1.33-0.21,1.87-0.56l7.67,4.33v0.12c0,1.88,1.53,3.41,3.41,3.41c1.88,0,3.41-1.53,3.41-3.41v-0.17
		c0-0.35-0.07-0.67-0.16-0.99L413.65,296.98z"/>
</g>
<rect x="425.37" y="289.02" class="st0" width="2.45" height="37.97"/>
<g>
	<g>
		<g>
			<path class="st0" d="M433.89,482.07v-13.84h3.2v13.84H433.89z"/>
		</g>
		<g>
			<path class="st0" d="M445.83,471.27c0.84,0,1.6,0.17,2.26,0.5c0.67,0.34,1.19,0.85,1.57,1.54c0.38,0.69,0.57,1.58,0.57,2.66v6.09
				h-3.08v-5.62c0-0.86-0.19-1.49-0.56-1.9c-0.38-0.41-0.91-0.61-1.59-0.61c-0.49,0-0.93,0.1-1.32,0.31
				c-0.39,0.2-0.69,0.52-0.91,0.94c-0.22,0.42-0.33,0.96-0.33,1.62v5.26h-3.08v-10.64h2.95v2.95l-0.55-0.89
				c0.38-0.71,0.93-1.26,1.64-1.64C444.11,471.47,444.92,471.27,445.83,471.27z"/>
		</g>
		<g>
			<path class="st0" d="M450.97,474.04v-2.37h7.38v2.37H450.97z M456.58,482.23c-1.25,0-2.23-0.32-2.93-0.96
				c-0.7-0.64-1.05-1.59-1.05-2.86v-9.33h3.08v9.29c0,0.45,0.12,0.79,0.36,1.04c0.24,0.24,0.56,0.37,0.97,0.37
				c0.49,0,0.9-0.13,1.25-0.4l0.83,2.18c-0.32,0.22-0.7,0.39-1.14,0.5C457.52,482.17,457.06,482.23,456.58,482.23z"/>
		</g>
		<g>
			<path class="st0" d="M464.99,482.23c-1.21,0-2.28-0.24-3.19-0.71c-0.92-0.47-1.62-1.12-2.13-1.95c-0.5-0.82-0.75-1.76-0.75-2.82
				c0-1.07,0.25-2.01,0.74-2.84c0.49-0.82,1.17-1.47,2.03-1.94c0.86-0.47,1.83-0.7,2.91-0.7c1.04,0,1.98,0.22,2.82,0.66
				c0.84,0.44,1.5,1.07,1.99,1.9c0.49,0.82,0.73,1.81,0.73,2.96c0,0.12-0.01,0.25-0.02,0.41c-0.01,0.15-0.03,0.29-0.04,0.43h-8.64
				v-1.8h7.02l-1.19,0.53c0-0.55-0.11-1.04-0.34-1.44c-0.22-0.41-0.53-0.73-0.93-0.96c-0.4-0.23-0.86-0.35-1.38-0.35
				c-0.53,0-0.99,0.12-1.39,0.35c-0.4,0.23-0.71,0.55-0.94,0.97s-0.34,0.91-0.34,1.47v0.47c0,0.58,0.13,1.09,0.39,1.53
				c0.26,0.44,0.62,0.78,1.09,1.01c0.47,0.23,1.02,0.35,1.65,0.35c0.57,0,1.06-0.09,1.49-0.26c0.43-0.17,0.82-0.43,1.18-0.77
				l1.64,1.78c-0.49,0.55-1.1,0.98-1.84,1.28C466.8,482.08,465.95,482.23,464.99,482.23z"/>
		</g>
		<g>
			<path class="st0" d="M477.86,471.27c0.84,0,1.6,0.17,2.26,0.5c0.67,0.34,1.19,0.85,1.57,1.54c0.38,0.69,0.57,1.58,0.57,2.66v6.09
				h-3.08v-5.62c0-0.86-0.19-1.49-0.56-1.9c-0.38-0.41-0.91-0.61-1.59-0.61c-0.49,0-0.93,0.1-1.32,0.31
				c-0.39,0.2-0.69,0.52-0.91,0.94c-0.22,0.42-0.33,0.96-0.33,1.62v5.26h-3.08v-10.64h2.95v2.95l-0.55-0.89
				c0.38-0.71,0.93-1.26,1.64-1.64C476.14,471.47,476.95,471.27,477.86,471.27z"/>
		</g>
		<g>
			<path class="st0" d="M483,474.04v-2.37h7.38v2.37H483z M488.62,482.23c-1.25,0-2.23-0.32-2.93-0.96
				c-0.7-0.64-1.05-1.59-1.05-2.86v-9.33h3.08v9.29c0,0.45,0.12,0.79,0.36,1.04c0.24,0.24,0.56,0.37,0.97,0.37
				c0.49,0,0.9-0.13,1.25-0.4l0.83,2.18c-0.32,0.22-0.7,0.39-1.14,0.5C489.55,482.17,489.09,482.23,488.62,482.23z"/>
		</g>
		<g>
			<path class="st0" d="M493.62,469.95c-0.63,0-1.14-0.21-1.51-0.62c-0.25-0.28-0.4-0.65-0.41-1.03c-0.02-0.52,0.16-0.95,0.53-1.3
				c0.36-0.33,0.82-0.49,1.38-0.49c0.57,0,1.03,0.15,1.38,0.46c0.36,0.31,0.53,0.71,0.53,1.2c0,0.51-0.17,0.94-0.52,1.28
				C494.66,469.78,494.2,469.95,493.62,469.95z M492.08,482.07v-10.64h3.08v10.64H492.08z"/>
		</g>
		<g>
			<path class="st0" d="M502.3,482.23c-1.13,0-2.14-0.24-3.02-0.71c-0.88-0.47-1.57-1.12-2.08-1.95c-0.51-0.82-0.76-1.76-0.76-2.82
				c0-1.07,0.25-2.01,0.76-2.84c0.51-0.82,1.2-1.47,2.08-1.94c0.88-0.47,1.88-0.7,3.02-0.7c1.12,0,2.12,0.23,3.01,0.7
				c0.88,0.47,1.57,1.11,2.08,1.93c0.5,0.82,0.75,1.77,0.75,2.85c0,1.05-0.25,1.99-0.75,2.82c-0.5,0.82-1.19,1.47-2.08,1.95
				C504.42,481.99,503.42,482.23,502.3,482.23z M502.3,479.7c0.51,0,0.98-0.12,1.38-0.36c0.41-0.24,0.73-0.58,0.97-1.02
				c0.24-0.44,0.36-0.97,0.36-1.57c0-0.62-0.12-1.15-0.36-1.58c-0.24-0.43-0.56-0.77-0.97-1.01c-0.41-0.24-0.87-0.36-1.38-0.36
				s-0.98,0.12-1.38,0.36c-0.41,0.24-0.74,0.57-0.98,1.01c-0.24,0.44-0.37,0.96-0.37,1.58c0,0.61,0.12,1.13,0.37,1.57
				c0.24,0.44,0.57,0.78,0.98,1.02C501.32,479.58,501.78,479.7,502.3,479.7z"/>
		</g>
		<g>
			<path class="st0" d="M515.86,471.27c0.84,0,1.6,0.17,2.26,0.5c0.67,0.34,1.19,0.85,1.57,1.54c0.38,0.69,0.57,1.58,0.57,2.66v6.09
				h-3.08v-5.62c0-0.86-0.19-1.49-0.56-1.9c-0.38-0.41-0.91-0.61-1.59-0.61c-0.49,0-0.93,0.1-1.32,0.31
				c-0.39,0.2-0.69,0.52-0.91,0.94c-0.22,0.42-0.33,0.96-0.33,1.62v5.26h-3.08v-10.64h2.95v2.95l-0.55-0.89
				c0.38-0.71,0.93-1.26,1.64-1.64C514.14,471.47,514.95,471.27,515.86,471.27z"/>
		</g>
		<g>
			<path class="st0" d="M525.55,482.23c-0.83,0-1.54-0.14-2.14-0.43c-0.59-0.28-1.05-0.67-1.36-1.16c-0.32-0.49-0.47-1.03-0.47-1.64
				c0-0.63,0.15-1.19,0.46-1.66c0.31-0.47,0.8-0.85,1.47-1.12c0.67-0.27,1.55-0.41,2.63-0.41h2.83v1.8h-2.49
				c-0.73,0-1.22,0.12-1.49,0.36c-0.27,0.24-0.4,0.53-0.4,0.89c0,0.4,0.15,0.71,0.46,0.94c0.31,0.23,0.73,0.35,1.28,0.35
				c0.51,0,0.98-0.12,1.38-0.37c0.41-0.24,0.7-0.6,0.89-1.08l0.47,1.42c-0.22,0.69-0.63,1.21-1.23,1.56
				C527.25,482.05,526.49,482.23,525.55,482.23z M528.79,482.07v-2.08l-0.2-0.45v-3.72c0-0.66-0.2-1.17-0.6-1.54
				c-0.4-0.37-1.02-0.55-1.85-0.55c-0.57,0-1.12,0.09-1.67,0.27c-0.55,0.18-1.01,0.42-1.39,0.72l-1.11-2.16
				c0.58-0.41,1.28-0.73,2.1-0.95c0.82-0.22,1.65-0.34,2.49-0.34c1.62,0,2.88,0.38,3.78,1.15c0.9,0.76,1.34,1.96,1.34,3.58v6.07
				H528.79z"/>
		</g>
		<g>
			<path class="st0" d="M533.68,482.07V467.4h3.08v14.67H533.68z"/>
		</g>
	</g>
	<g>
		<path class="st0" d="M435.62,491.66v-4.4h-1.73v-1.02h4.72v1.02h-1.73v4.4H435.62z"/>
		<path class="st0" d="M445.64,490.65h2.95v1.01h-4.2v-5.42h4.1v1.01h-2.85V490.65z M445.54,488.42h2.61v0.98h-2.61V488.42z"/>
		<path class="st0" d="M457.29,491.75c-0.42,0-0.81-0.07-1.17-0.21c-0.36-0.14-0.67-0.33-0.93-0.58c-0.26-0.25-0.47-0.55-0.62-0.89
			c-0.15-0.34-0.22-0.71-0.22-1.12s0.07-0.78,0.22-1.12c0.15-0.34,0.35-0.64,0.62-0.89c0.27-0.25,0.58-0.45,0.93-0.58
			c0.36-0.14,0.75-0.21,1.17-0.21c0.47,0,0.89,0.08,1.27,0.24c0.38,0.16,0.7,0.4,0.96,0.72l-0.81,0.74
			c-0.19-0.21-0.39-0.37-0.62-0.48c-0.23-0.11-0.47-0.16-0.74-0.16c-0.25,0-0.49,0.04-0.7,0.12c-0.21,0.08-0.39,0.2-0.55,0.36
			c-0.15,0.15-0.27,0.34-0.36,0.55c-0.09,0.21-0.13,0.45-0.13,0.7s0.04,0.49,0.13,0.7c0.09,0.21,0.21,0.39,0.36,0.55
			c0.16,0.15,0.34,0.27,0.55,0.36c0.21,0.08,0.44,0.12,0.7,0.12c0.27,0,0.52-0.05,0.74-0.16c0.23-0.11,0.43-0.27,0.62-0.48
			l0.81,0.74c-0.26,0.31-0.58,0.55-0.96,0.72C458.19,491.67,457.76,491.75,457.29,491.75z"/>
		<path class="st0" d="M466.73,491.66h-1.25v-5.42h1.25V491.66z M469.29,489.44h-2.65v-1.06h2.65V489.44z M469.2,486.24h1.25v5.42
			h-1.25V486.24z"/>
		<path class="st0" d="M476.84,491.66v-5.42h1.04l3.2,3.9h-0.5v-3.9h1.24v5.42h-1.03l-3.21-3.9h0.5v3.9H476.84z"/>
		<path class="st0" d="M490.84,491.75c-0.43,0-0.82-0.07-1.19-0.21c-0.36-0.14-0.68-0.34-0.94-0.59c-0.27-0.25-0.47-0.55-0.62-0.89
			c-0.15-0.34-0.22-0.71-0.22-1.11c0-0.4,0.07-0.77,0.22-1.11c0.15-0.34,0.35-0.64,0.62-0.89c0.27-0.25,0.58-0.45,0.94-0.59
			c0.36-0.14,0.75-0.21,1.18-0.21c0.43,0,0.82,0.07,1.18,0.21s0.67,0.34,0.94,0.59c0.27,0.25,0.47,0.55,0.62,0.89
			c0.15,0.34,0.22,0.71,0.22,1.12c0,0.4-0.07,0.78-0.22,1.12c-0.15,0.34-0.36,0.64-0.62,0.89c-0.27,0.25-0.58,0.45-0.94,0.58
			S491.26,491.75,490.84,491.75z M490.83,490.68c0.24,0,0.47-0.04,0.67-0.12c0.2-0.08,0.38-0.2,0.54-0.36
			c0.15-0.15,0.28-0.34,0.36-0.55c0.09-0.21,0.13-0.45,0.13-0.7s-0.04-0.49-0.13-0.7c-0.08-0.21-0.2-0.39-0.36-0.55
			c-0.15-0.15-0.33-0.27-0.54-0.36c-0.21-0.08-0.43-0.12-0.67-0.12c-0.24,0-0.47,0.04-0.67,0.12c-0.2,0.08-0.38,0.2-0.54,0.36
			c-0.15,0.15-0.27,0.34-0.36,0.55c-0.09,0.21-0.13,0.45-0.13,0.7c0,0.25,0.04,0.49,0.13,0.7c0.09,0.21,0.2,0.4,0.36,0.55
			c0.15,0.15,0.33,0.27,0.54,0.36C490.37,490.64,490.59,490.68,490.83,490.68z"/>
		<path class="st0" d="M499.85,491.66v-5.42h1.25v4.4h2.72v1.02H499.85z"/>
		<path class="st0" d="M512.18,491.75c-0.43,0-0.82-0.07-1.19-0.21c-0.36-0.14-0.68-0.34-0.94-0.59c-0.27-0.25-0.47-0.55-0.62-0.89
			c-0.15-0.34-0.22-0.71-0.22-1.11c0-0.4,0.07-0.77,0.22-1.11c0.15-0.34,0.35-0.64,0.62-0.89c0.27-0.25,0.58-0.45,0.94-0.59
			c0.36-0.14,0.75-0.21,1.18-0.21c0.43,0,0.82,0.07,1.18,0.21s0.67,0.34,0.94,0.59c0.27,0.25,0.47,0.55,0.62,0.89
			c0.15,0.34,0.22,0.71,0.22,1.12c0,0.4-0.07,0.78-0.22,1.12c-0.15,0.34-0.36,0.64-0.62,0.89c-0.27,0.25-0.58,0.45-0.94,0.58
			S512.6,491.75,512.18,491.75z M512.17,490.68c0.24,0,0.47-0.04,0.67-0.12c0.2-0.08,0.38-0.2,0.54-0.36
			c0.15-0.15,0.28-0.34,0.36-0.55c0.09-0.21,0.13-0.45,0.13-0.7s-0.04-0.49-0.13-0.7c-0.08-0.21-0.2-0.39-0.36-0.55
			c-0.15-0.15-0.33-0.27-0.54-0.36c-0.21-0.08-0.43-0.12-0.67-0.12c-0.24,0-0.47,0.04-0.67,0.12c-0.2,0.08-0.38,0.2-0.54,0.36
			c-0.15,0.15-0.27,0.34-0.36,0.55c-0.09,0.21-0.13,0.45-0.13,0.7c0,0.25,0.04,0.49,0.13,0.7c0.09,0.21,0.2,0.4,0.36,0.55
			c0.15,0.15,0.33,0.27,0.54,0.36C511.7,490.64,511.93,490.68,512.17,490.68z"/>
		<path class="st0" d="M523.8,491.75c-0.43,0-0.82-0.07-1.18-0.21c-0.36-0.14-0.67-0.33-0.94-0.58c-0.27-0.25-0.47-0.55-0.62-0.89
			c-0.15-0.34-0.22-0.71-0.22-1.12s0.07-0.78,0.22-1.12c0.15-0.34,0.35-0.64,0.62-0.89c0.27-0.25,0.58-0.45,0.94-0.58
			c0.36-0.14,0.76-0.21,1.19-0.21c0.48,0,0.91,0.08,1.3,0.24c0.38,0.16,0.71,0.39,0.97,0.7l-0.81,0.74
			c-0.2-0.21-0.41-0.36-0.64-0.46c-0.23-0.1-0.48-0.15-0.76-0.15c-0.26,0-0.5,0.04-0.72,0.12c-0.22,0.08-0.4,0.2-0.56,0.36
			c-0.16,0.15-0.28,0.34-0.36,0.55s-0.13,0.45-0.13,0.7c0,0.25,0.04,0.49,0.13,0.7s0.21,0.4,0.36,0.55
			c0.16,0.16,0.34,0.28,0.56,0.36c0.21,0.08,0.45,0.12,0.71,0.12c0.25,0,0.49-0.04,0.72-0.12c0.23-0.08,0.46-0.22,0.69-0.41
			l0.71,0.91c-0.29,0.22-0.64,0.39-1.03,0.51C524.58,491.69,524.19,491.75,523.8,491.75z M524.85,490.9v-2.04H526v2.2L524.85,490.9z
			"/>
		<path class="st0" d="M533.61,491.66v-2.21l0.29,0.76l-2.38-3.96h1.33l1.83,3.04h-0.77l1.83-3.04h1.23l-2.38,3.96l0.28-0.76v2.21
			H533.61z"/>
	</g>
</g>
<g>
	<path class="st0" d="M388.57,478.3c-1.88,0-3.41,1.53-3.41,3.41v11.89c0,1.88,1.53,3.41,3.41,3.41c1.88,0,3.41-1.53,3.41-3.41
		v-11.89C391.98,479.83,390.45,478.3,388.57,478.3z"/>
	<path class="st0" d="M401.52,471.73c1.88,0,3.41-1.53,3.41-3.41v-0.17c0-1.88-1.53-3.41-3.41-3.41c-1.88,0-3.41,1.53-3.41,3.41
		v0.17C398.11,470.2,399.63,471.73,401.52,471.73z"/>
	<path class="st0" d="M414.55,482.84c-1.88,0-3.41,1.53-3.41,3.41v1.77v5.58c0,1.88,1.53,3.41,3.41,3.41c1.88,0,3.41-1.53,3.41-3.41
		v-5.58v-1.77C417.96,484.37,416.43,482.84,414.55,482.84z"/>
	<path class="st0" d="M401.52,484.19c-1.88,0-3.41,1.53-3.41,3.41v6c0,1.88,1.53,3.41,3.41,3.41c1.88,0,3.41-1.53,3.41-3.41v-6
		C404.93,485.72,403.4,484.19,401.52,484.19z"/>
	<path class="st0" d="M414.59,470.98L414.59,470.98c-1.88,0-3.41,1.53-3.41,3.41l0,2.98c0,1.88,1.53,3.41,3.41,3.41h0
		c1.88,0,3.41-1.53,3.41-3.41v-2.98C418,472.51,416.47,470.98,414.59,470.98z"/>
	<path class="st0" d="M413.65,468.1c0.29,0.08,0.58,0.13,0.9,0.13c1.88,0,3.41-1.53,3.41-3.41v-0.17c0-1.88-1.53-3.41-3.41-3.41
		c-1.88,0-3.41,1.53-3.41,3.41v0.17c0,0.35,0.07,0.68,0.17,1l-8.88,9.52c-0.29-0.08-0.59-0.14-0.91-0.14c-0.7,0-1.34,0.21-1.88,0.57
		l-7.66-4.32v-0.13c0-1.88-1.53-3.41-3.41-3.41c-1.88,0-3.41,1.53-3.41,3.41v0.17c0,1.88,1.53,3.41,3.41,3.41
		c0.69,0,1.33-0.21,1.87-0.56l7.67,4.33v0.12c0,1.88,1.53,3.41,3.41,3.41c1.88,0,3.41-1.53,3.41-3.41v-0.17
		c0-0.35-0.07-0.67-0.16-0.99L413.65,468.1z"/>
</g>
<rect x="425.37" y="460.15" class="st0" width="2.45" height="37.97"/>
<g class="st4">
	<g>
		<g>
			<path class="st3" d="M153.94,519.6v-8.01h1.85v8.01H153.94z"/>
		</g>
		<g>
			<path class="st3" d="M160.85,513.35c0.49,0,0.93,0.1,1.31,0.29c0.39,0.19,0.69,0.49,0.91,0.89c0.22,0.4,0.33,0.91,0.33,1.54v3.53
				h-1.79v-3.25c0-0.5-0.11-0.86-0.33-1.1c-0.22-0.24-0.52-0.35-0.92-0.35c-0.28,0-0.54,0.06-0.76,0.18
				c-0.23,0.12-0.4,0.3-0.53,0.54c-0.13,0.24-0.19,0.56-0.19,0.94v3.04h-1.79v-6.16h1.71v1.71l-0.32-0.52
				c0.22-0.41,0.54-0.73,0.95-0.95C159.85,513.46,160.32,513.35,160.85,513.35z"/>
		</g>
		<g>
			<path class="st3" d="M163.83,514.95v-1.37h4.27v1.37H163.83z M167.08,519.69c-0.73,0-1.29-0.18-1.69-0.56
				c-0.4-0.37-0.61-0.92-0.61-1.65v-5.4h1.79v5.38c0,0.26,0.07,0.46,0.21,0.6c0.14,0.14,0.32,0.21,0.56,0.21
				c0.28,0,0.52-0.08,0.72-0.23l0.48,1.26c-0.18,0.13-0.4,0.23-0.66,0.29C167.62,519.66,167.35,519.69,167.08,519.69z"/>
		</g>
		<g>
			<path class="st3" d="M171.94,519.69c-0.7,0-1.32-0.14-1.85-0.41c-0.53-0.27-0.94-0.65-1.23-1.13c-0.29-0.48-0.43-1.02-0.43-1.63
				c0-0.62,0.14-1.17,0.43-1.64c0.29-0.48,0.68-0.85,1.17-1.12c0.5-0.27,1.06-0.41,1.68-0.41c0.6,0,1.15,0.13,1.63,0.38
				c0.48,0.26,0.87,0.62,1.15,1.1c0.28,0.48,0.42,1.05,0.42,1.71c0,0.07,0,0.15-0.01,0.23c-0.01,0.09-0.02,0.17-0.02,0.25h-5v-1.04
				h4.06l-0.69,0.31c0-0.32-0.06-0.6-0.19-0.84c-0.13-0.24-0.31-0.42-0.54-0.56s-0.5-0.2-0.8-0.2c-0.31,0-0.57,0.07-0.81,0.2
				c-0.23,0.13-0.41,0.32-0.54,0.56c-0.13,0.24-0.19,0.52-0.19,0.85v0.27c0,0.34,0.07,0.63,0.22,0.89c0.15,0.26,0.36,0.45,0.63,0.58
				c0.27,0.13,0.59,0.2,0.96,0.2c0.33,0,0.62-0.05,0.86-0.15c0.25-0.1,0.48-0.25,0.68-0.45l0.95,1.03
				c-0.28,0.32-0.64,0.57-1.06,0.74C172.99,519.61,172.5,519.69,171.94,519.69z"/>
		</g>
		<g>
			<path class="st3" d="M179.39,513.35c0.49,0,0.93,0.1,1.31,0.29c0.39,0.19,0.69,0.49,0.91,0.89c0.22,0.4,0.33,0.91,0.33,1.54v3.53
				h-1.79v-3.25c0-0.5-0.11-0.86-0.33-1.1s-0.52-0.35-0.92-0.35c-0.28,0-0.54,0.06-0.76,0.18c-0.23,0.12-0.4,0.3-0.53,0.54
				c-0.13,0.24-0.19,0.56-0.19,0.94v3.04h-1.79v-6.16h1.71v1.71l-0.32-0.52c0.22-0.41,0.54-0.73,0.95-0.95
				C178.4,513.46,178.87,513.35,179.39,513.35z"/>
		</g>
		<g>
			<path class="st3" d="M182.37,514.95v-1.37h4.27v1.37H182.37z M185.62,519.69c-0.73,0-1.29-0.18-1.69-0.56
				c-0.4-0.37-0.61-0.92-0.61-1.65v-5.4h1.79v5.38c0,0.26,0.07,0.46,0.21,0.6c0.14,0.14,0.32,0.21,0.56,0.21
				c0.28,0,0.52-0.08,0.72-0.23l0.48,1.26c-0.18,0.13-0.4,0.23-0.66,0.29C186.16,519.66,185.89,519.69,185.62,519.69z"/>
		</g>
		<g>
			<path class="st3" d="M188.52,512.59c-0.37,0-0.66-0.12-0.87-0.36c-0.15-0.16-0.23-0.38-0.24-0.6c-0.01-0.3,0.09-0.55,0.31-0.75
				c0.21-0.19,0.47-0.29,0.8-0.29c0.33,0,0.6,0.09,0.8,0.27c0.21,0.18,0.31,0.41,0.31,0.69c0,0.3-0.1,0.54-0.3,0.74
				C189.12,512.49,188.85,512.59,188.52,512.59z M187.62,519.6v-6.16h1.79v6.16H187.62z"/>
		</g>
		<g>
			<path class="st3" d="M193.54,519.69c-0.66,0-1.24-0.14-1.75-0.41c-0.51-0.27-0.91-0.65-1.2-1.13c-0.29-0.48-0.44-1.02-0.44-1.63
				c0-0.62,0.15-1.17,0.44-1.64c0.29-0.48,0.69-0.85,1.2-1.12c0.51-0.27,1.09-0.41,1.75-0.41c0.65,0,1.23,0.14,1.74,0.41
				c0.51,0.27,0.91,0.64,1.2,1.12c0.29,0.47,0.43,1.02,0.43,1.65c0,0.61-0.15,1.15-0.43,1.63c-0.29,0.48-0.69,0.85-1.2,1.13
				C194.77,519.56,194.19,519.69,193.54,519.69z M193.54,518.23c0.3,0,0.56-0.07,0.8-0.21c0.24-0.14,0.42-0.33,0.56-0.59
				c0.14-0.26,0.21-0.56,0.21-0.91c0-0.36-0.07-0.66-0.21-0.92c-0.14-0.25-0.32-0.45-0.56-0.58c-0.24-0.14-0.5-0.21-0.8-0.21
				s-0.56,0.07-0.8,0.21c-0.24,0.14-0.43,0.33-0.57,0.58c-0.14,0.25-0.21,0.56-0.21,0.92c0,0.35,0.07,0.65,0.21,0.91
				c0.14,0.26,0.33,0.45,0.57,0.59C192.98,518.16,193.24,518.23,193.54,518.23z"/>
		</g>
		<g>
			<path class="st3" d="M201.39,513.35c0.49,0,0.93,0.1,1.31,0.29c0.39,0.19,0.69,0.49,0.91,0.89c0.22,0.4,0.33,0.91,0.33,1.54v3.53
				h-1.79v-3.25c0-0.5-0.11-0.86-0.33-1.1c-0.22-0.24-0.52-0.35-0.92-0.35c-0.28,0-0.54,0.06-0.76,0.18
				c-0.23,0.12-0.4,0.3-0.53,0.54c-0.13,0.24-0.19,0.56-0.19,0.94v3.04h-1.79v-6.16h1.71v1.71l-0.32-0.52
				c0.22-0.41,0.54-0.73,0.95-0.95C200.4,513.46,200.87,513.35,201.39,513.35z"/>
		</g>
		<g>
			<path class="st3" d="M207,519.69c-0.48,0-0.89-0.08-1.24-0.25c-0.34-0.16-0.61-0.39-0.79-0.67c-0.18-0.28-0.27-0.6-0.27-0.95
				c0-0.37,0.09-0.69,0.27-0.96c0.18-0.27,0.46-0.49,0.85-0.65c0.39-0.16,0.9-0.23,1.52-0.23h1.64v1.04h-1.44
				c-0.42,0-0.71,0.07-0.86,0.21c-0.16,0.14-0.23,0.31-0.23,0.51c0,0.23,0.09,0.41,0.27,0.54c0.18,0.13,0.43,0.2,0.74,0.2
				c0.3,0,0.56-0.07,0.8-0.21c0.24-0.14,0.41-0.35,0.52-0.62l0.27,0.82c-0.13,0.4-0.37,0.7-0.71,0.9
				C207.99,519.59,207.54,519.69,207,519.69z M208.88,519.6v-1.2l-0.11-0.26v-2.15c0-0.38-0.12-0.68-0.35-0.89
				c-0.23-0.21-0.59-0.32-1.07-0.32c-0.33,0-0.65,0.05-0.97,0.15c-0.32,0.1-0.59,0.24-0.81,0.42l-0.64-1.25
				c0.34-0.24,0.74-0.42,1.21-0.55c0.47-0.13,0.95-0.19,1.44-0.19c0.94,0,1.67,0.22,2.19,0.66c0.52,0.44,0.78,1.13,0.78,2.07v3.51
				H208.88z"/>
		</g>
		<g>
			<path class="st3" d="M211.71,519.6v-8.49h1.79v8.49H211.71z"/>
		</g>
	</g>
	<g>
		<path class="st3" d="M154.94,525.15v-2.55h-1v-0.59h2.73v0.59h-1v2.55H154.94z"/>
		<path class="st3" d="M160.74,524.57h1.71v0.58h-2.43v-3.14h2.37v0.58h-1.65V524.57z M160.69,523.28h1.51v0.56h-1.51V523.28z"/>
		<path class="st3" d="M167.49,525.21c-0.24,0-0.47-0.04-0.67-0.12c-0.21-0.08-0.39-0.19-0.54-0.34c-0.15-0.15-0.27-0.32-0.36-0.52
			c-0.09-0.2-0.13-0.41-0.13-0.65s0.04-0.45,0.13-0.65c0.09-0.2,0.2-0.37,0.36-0.52s0.33-0.26,0.54-0.34
			c0.21-0.08,0.43-0.12,0.68-0.12c0.27,0,0.52,0.05,0.74,0.14c0.22,0.09,0.4,0.23,0.55,0.41l-0.47,0.43
			c-0.11-0.12-0.23-0.21-0.36-0.28c-0.13-0.06-0.27-0.09-0.43-0.09c-0.15,0-0.28,0.02-0.4,0.07c-0.12,0.05-0.23,0.12-0.32,0.21
			c-0.09,0.09-0.16,0.2-0.21,0.32s-0.07,0.26-0.07,0.41s0.02,0.29,0.07,0.41c0.05,0.12,0.12,0.23,0.21,0.32
			c0.09,0.09,0.2,0.16,0.32,0.21c0.12,0.05,0.26,0.07,0.4,0.07c0.16,0,0.3-0.03,0.43-0.09c0.13-0.06,0.25-0.15,0.36-0.28l0.47,0.43
			c-0.15,0.18-0.33,0.32-0.55,0.42C168.01,525.16,167.76,525.21,167.49,525.21z"/>
		<path class="st3" d="M172.95,525.15h-0.73v-3.14h0.73V525.15z M174.43,523.87h-1.53v-0.61h1.53V523.87z M174.38,522.01h0.73v3.14
			h-0.73V522.01z"/>
		<path class="st3" d="M178.8,525.15v-3.14h0.6l1.85,2.26h-0.29v-2.26h0.72v3.14h-0.6l-1.86-2.26h0.29v2.26H178.8z"/>
		<path class="st3" d="M186.91,525.21c-0.25,0-0.48-0.04-0.69-0.12c-0.21-0.08-0.39-0.19-0.55-0.34c-0.15-0.15-0.27-0.32-0.36-0.52
			c-0.09-0.2-0.13-0.41-0.13-0.65c0-0.23,0.04-0.45,0.13-0.65c0.08-0.2,0.21-0.37,0.36-0.52c0.16-0.15,0.34-0.26,0.55-0.34
			c0.21-0.08,0.44-0.12,0.68-0.12c0.25,0,0.48,0.04,0.68,0.12s0.39,0.19,0.54,0.34c0.15,0.15,0.27,0.32,0.36,0.51
			c0.09,0.2,0.13,0.41,0.13,0.65c0,0.23-0.04,0.45-0.13,0.65c-0.09,0.2-0.21,0.37-0.36,0.52c-0.15,0.15-0.33,0.26-0.54,0.34
			S187.15,525.21,186.91,525.21z M186.9,524.59c0.14,0,0.27-0.02,0.39-0.07c0.12-0.05,0.22-0.12,0.31-0.21
			c0.09-0.09,0.16-0.2,0.21-0.32c0.05-0.12,0.07-0.26,0.07-0.41s-0.02-0.29-0.07-0.41c-0.05-0.12-0.12-0.23-0.21-0.32
			c-0.09-0.09-0.19-0.16-0.31-0.21c-0.12-0.05-0.25-0.07-0.39-0.07c-0.14,0-0.27,0.02-0.39,0.07c-0.12,0.05-0.22,0.12-0.31,0.21
			s-0.16,0.2-0.21,0.32c-0.05,0.12-0.07,0.26-0.07,0.41c0,0.15,0.02,0.28,0.07,0.41c0.05,0.12,0.12,0.23,0.21,0.32
			s0.19,0.16,0.31,0.21C186.63,524.56,186.76,524.59,186.9,524.59z"/>
		<path class="st3" d="M192.12,525.15v-3.14h0.73v2.55h1.57v0.59H192.12z"/>
		<path class="st3" d="M199.26,525.21c-0.25,0-0.48-0.04-0.69-0.12c-0.21-0.08-0.39-0.19-0.55-0.34c-0.15-0.15-0.27-0.32-0.36-0.52
			c-0.09-0.2-0.13-0.41-0.13-0.65c0-0.23,0.04-0.45,0.13-0.65c0.08-0.2,0.21-0.37,0.36-0.52c0.16-0.15,0.34-0.26,0.55-0.34
			c0.21-0.08,0.44-0.12,0.68-0.12c0.25,0,0.48,0.04,0.68,0.12c0.21,0.08,0.39,0.19,0.54,0.34c0.15,0.15,0.27,0.32,0.36,0.51
			c0.09,0.2,0.13,0.41,0.13,0.65c0,0.23-0.04,0.45-0.13,0.65c-0.09,0.2-0.21,0.37-0.36,0.52c-0.15,0.15-0.33,0.26-0.54,0.34
			C199.73,525.16,199.5,525.21,199.26,525.21z M199.25,524.59c0.14,0,0.27-0.02,0.39-0.07c0.12-0.05,0.22-0.12,0.31-0.21
			c0.09-0.09,0.16-0.2,0.21-0.32c0.05-0.12,0.07-0.26,0.07-0.41s-0.02-0.29-0.07-0.41c-0.05-0.12-0.12-0.23-0.21-0.32
			c-0.09-0.09-0.19-0.16-0.31-0.21c-0.12-0.05-0.25-0.07-0.39-0.07c-0.14,0-0.27,0.02-0.39,0.07c-0.12,0.05-0.22,0.12-0.31,0.21
			s-0.16,0.2-0.21,0.32c-0.05,0.12-0.07,0.26-0.07,0.41c0,0.15,0.02,0.28,0.07,0.41c0.05,0.12,0.12,0.23,0.21,0.32
			s0.19,0.16,0.31,0.21C198.98,524.56,199.11,524.59,199.25,524.59z"/>
		<path class="st3" d="M205.99,525.21c-0.25,0-0.48-0.04-0.68-0.12c-0.21-0.08-0.39-0.19-0.54-0.34c-0.15-0.15-0.27-0.32-0.36-0.52
			c-0.09-0.2-0.13-0.41-0.13-0.65s0.04-0.45,0.13-0.65c0.08-0.2,0.21-0.37,0.36-0.52c0.16-0.15,0.34-0.26,0.55-0.34
			c0.21-0.08,0.44-0.12,0.69-0.12c0.28,0,0.53,0.05,0.75,0.14c0.22,0.09,0.41,0.23,0.56,0.4l-0.47,0.43
			c-0.11-0.12-0.24-0.21-0.37-0.27c-0.13-0.06-0.28-0.09-0.44-0.09c-0.15,0-0.29,0.02-0.42,0.07s-0.23,0.12-0.32,0.21
			c-0.09,0.09-0.16,0.2-0.21,0.32c-0.05,0.12-0.07,0.26-0.07,0.41c0,0.15,0.02,0.28,0.07,0.4c0.05,0.12,0.12,0.23,0.21,0.32
			c0.09,0.09,0.2,0.16,0.32,0.21c0.12,0.05,0.26,0.07,0.41,0.07c0.14,0,0.28-0.02,0.42-0.07s0.27-0.12,0.4-0.24l0.41,0.52
			c-0.17,0.13-0.37,0.23-0.59,0.3C206.44,525.17,206.21,525.21,205.99,525.21z M206.59,524.71v-1.18h0.66v1.27L206.59,524.71z"/>
		<path class="st3" d="M211.67,525.15v-1.28l0.17,0.44l-1.38-2.29h0.77l1.06,1.76h-0.44l1.06-1.76h0.71l-1.38,2.29l0.16-0.44v1.28
			H211.67z"/>
	</g>
</g>
<path class="st5" d="M127.7,517.42c-1.09,0-1.97,0.88-1.97,1.97v6.88c0,1.09,0.88,1.97,1.97,1.97c1.09,0,1.97-0.88,1.97-1.97v-6.88
	C129.68,518.3,128.8,517.42,127.7,517.42z"/>
<path class="st6" d="M148.66,547.84c-0.67,0-1.21,0.54-1.21,1.21v4.23c0,0.67,0.54,1.21,1.21,1.21s1.21-0.54,1.21-1.21v-4.23
	C149.87,548.38,149.33,547.84,148.66,547.84z"/>
<path class="st5" d="M135.2,513.62c1.09,0,1.97-0.88,1.97-1.97v-0.1c0-1.09-0.88-1.97-1.97-1.97c-1.09,0-1.97,0.88-1.97,1.97v0.1
	C133.23,512.73,134.11,513.62,135.2,513.62z"/>
<path class="st7" d="M142.74,520.05c-1.09,0-1.97,0.88-1.97,1.97v1.02v3.23c0,1.09,0.88,1.97,1.97,1.97c1.09,0,1.97-0.88,1.97-1.97
	v-3.23v-1.02C144.72,520.93,143.83,520.05,142.74,520.05z"/>
<path class="st5" d="M135.2,520.83c-1.09,0-1.97,0.88-1.97,1.97v3.47c0,1.09,0.88,1.97,1.97,1.97c1.09,0,1.97-0.88,1.97-1.97v-3.47
	C137.17,521.71,136.29,520.83,135.2,520.83z"/>
<path class="st7" d="M142.77,513.18L142.77,513.18c-1.09,0-1.97,0.88-1.97,1.97l0,1.72c0,1.09,0.88,1.97,1.97,1.97h0
	c1.09,0,1.97-0.88,1.97-1.97v-1.72C144.74,514.07,143.86,513.18,142.77,513.18z"/>
<path class="st5" d="M142.22,511.52c0.17,0.05,0.34,0.08,0.52,0.08c1.09,0,1.97-0.88,1.97-1.97v-0.1c0-1.09-0.88-1.97-1.97-1.97
	c-1.09,0-1.97,0.88-1.97,1.97v0.1c0,0.2,0.04,0.39,0.1,0.58l-5.14,5.51c-0.17-0.05-0.34-0.08-0.52-0.08c-0.4,0-0.78,0.12-1.09,0.33
	l-4.43-2.5v-0.08c0-1.09-0.88-1.97-1.97-1.97c-1.09,0-1.97,0.88-1.97,1.97v0.1c0,1.09,0.88,1.97,1.97,1.97
	c0.4,0,0.77-0.12,1.08-0.32l4.44,2.51v0.07c0,1.09,0.88,1.97,1.97,1.97c1.09,0,1.97-0.88,1.97-1.97v-0.1c0-0.2-0.04-0.39-0.09-0.57
	L142.22,511.52z"/>
<g>
	<path class="st6" d="M218.28,549.93c-0.67,0-1.21,0.54-1.21,1.21v2.13c0,0.67,0.54,1.21,1.21,1.21s1.21-0.54,1.21-1.21v-2.13
		C219.49,550.48,218.95,549.93,218.28,549.93z"/>
	<path class="st6" d="M222.59,544.21c0.1,0.03,0.21,0.05,0.32,0.05c0.67,0,1.21-0.54,1.21-1.21v-0.06c0-0.67-0.54-1.21-1.21-1.21
		s-1.21,0.54-1.21,1.21v0.06c0,0.12,0.02,0.24,0.06,0.36l-3.16,3.39c-0.1-0.03-0.21-0.05-0.32-0.05c-0.25,0-0.48,0.07-0.67,0.2
		l-2.72-1.54v-0.05c0-0.67-0.54-1.21-1.21-1.21s-1.21,0.54-1.21,1.21v0.06c0,0.67,0.54,1.21,1.21,1.21c0.25,0,0.47-0.07,0.66-0.2
		l2.73,1.54v0.04c0,0.67,0.54,1.21,1.21,1.21s1.21-0.54,1.21-1.21v-0.06c0-0.12-0.02-0.24-0.06-0.35L222.59,544.21z"/>
</g>
<rect x="149.01" y="506.91" class="st7" width="1.42" height="21.98"/>
<path class="st6" d="M148.66,546.68L148.66,546.68c-0.65,0-1.18-0.53-1.18-1.18l0,0c0-0.65,0.53-1.18,1.18-1.18l0,0
	c0.65,0,1.18,0.53,1.18,1.18l0,0C149.84,546.15,149.31,546.68,148.66,546.68z"/>
<text transform="matrix(1 0 0 1 118.7051 554.1738)" class="st6 st8 st9">i  =</text>
<text transform="matrix(1 0 0 1 182.5698 554.1738)" class="st6 st8 st9">T  =</text>
</svg>
