<?xml version="1.0" encoding="utf-8"?>
<!-- Generator: Adobe Illustrator 25.0.0, SVG Export Plug-In . SVG Version: 6.00 Build 0)  -->
<svg version="1.1" id="Layer_1" xmlns="http://www.w3.org/2000/svg" xmlns:xlink="http://www.w3.org/1999/xlink" x="0px" y="0px"
	 viewBox="0 0 595.28 841.89" style="enable-background:new 0 0 595.28 841.89;" xml:space="preserve">
<style type="text/css">
	.st0{fill:#FFFFFF;}
	.st1{fill:#414042;}
	.st2{fill:#E84A87;}
	.st3{fill:#58595B;}
	.st4{fill:url(#SVGID_1_);}
	.st5{fill:url(#SVGID_2_);}
	.st6{fill:url(#SVGID_3_);}
	.st7{fill:url(#SVGID_4_);}
	.st8{fill:url(#SVGID_5_);}
	.st9{fill:url(#SVGID_6_);}
	.st10{opacity:0.58;}
	.st11{fill:url(#SVGID_7_);}
	.st12{fill:url(#SVGID_8_);}
</style>
<rect x="54.06" y="254.88" class="st0" width="281.2" height="298.25"/>
<rect x="335.27" y="403.16" class="st1" width="224.51" height="149.13"/>
<rect x="335.27" y="252.28" class="st2" width="224.51" height="149.13"/>
<rect x="54.16" y="237.69" class="st2" width="282.96" height="17.42"/>
<rect x="335.27" y="237.69" class="st3" width="224.51" height="17.42"/>
<g>
	<g>
		<linearGradient id="SVGID_1_" gradientUnits="userSpaceOnUse" x1="376.0362" y1="466.1177" x2="409.4585" y2="489.7682">
			<stop  offset="0" style="stop-color:#E67097"/>
			<stop  offset="1" style="stop-color:#E84A87"/>
		</linearGradient>
		<path class="st4" d="M406.09,464.79l-9.3-5.37c-2.69-1.55-6.03-1.55-8.72,0l-9.3,5.37c-2.69,1.55-4.36,4.45-4.36,7.56v10.74
			c0,3.11,1.67,6,4.36,7.56l9.3,5.37c1.35,0.78,2.85,1.17,4.36,1.17s3.02-0.39,4.36-1.17l9.3-5.37c2.69-1.55,4.36-4.45,4.36-7.56
			v-10.74C410.46,469.24,408.78,466.35,406.09,464.79z M406.63,483.09c0,1.74-0.94,3.37-2.45,4.24l-9.3,5.37
			c-1.51,0.87-3.39,0.87-4.9,0l-9.3-5.37c-1.51-0.87-2.45-2.5-2.45-4.24v-10.74c0-1.74,0.94-3.37,2.45-4.24l9.3-5.37
			c0.76-0.44,1.6-0.65,2.45-0.65c0.85,0,1.69,0.22,2.45,0.65l9.3,5.37c1.51,0.87,2.45,2.5,2.45,4.24V483.09z"/>
		<linearGradient id="SVGID_2_" gradientUnits="userSpaceOnUse" x1="376.8668" y1="464.944" x2="410.2891" y2="488.5945">
			<stop  offset="0" style="stop-color:#E67097"/>
			<stop  offset="1" style="stop-color:#E84A87"/>
		</linearGradient>
		<path class="st5" d="M401.87,471.32c-0.26-0.45-0.83-0.6-1.28-0.34l-9.19,5.3c-0.01,0.01-0.03,0.02-0.04,0.03
			c-0.71,0.41-0.81,1.03-0.82,1.26v0.09v7.9c0,0.52,0.42,0.94,0.94,0.94h1.61c0.52,0,0.94-0.42,0.94-0.94v-6.77l8.3-4.79
			c0.45-0.26,0.6-0.83,0.34-1.28L401.87,471.32z"/>
	</g>
</g>
<g>
	<g>
		<path class="st0" d="M419.14,479.28v-12.5c0-0.23,0.19-0.42,0.42-0.42h2.24c0.23,0,0.42,0.19,0.42,0.42v12.5
			c0,0.23-0.19,0.42-0.42,0.42h-2.24C419.33,479.7,419.14,479.51,419.14,479.28z"/>
		<path class="st0" d="M431.42,469.3c0.81,0,1.54,0.16,2.18,0.49c0.64,0.32,1.15,0.82,1.52,1.49c0.37,0.67,0.55,1.52,0.55,2.56v5.45
			c0,0.23-0.19,0.42-0.42,0.42h-2.13c-0.23,0-0.42-0.19-0.42-0.42v-4.99c0-0.83-0.18-1.44-0.54-1.83c-0.36-0.39-0.87-0.59-1.53-0.59
			c-0.47,0-0.89,0.1-1.27,0.3c-0.38,0.2-0.67,0.5-0.88,0.91c-0.21,0.41-0.31,0.93-0.31,1.56v4.65c0,0.23-0.19,0.42-0.42,0.42h-2.13
			c-0.23,0-0.42-0.19-0.42-0.42v-9.41c0-0.23,0.19-0.42,0.42-0.42h2c0.23,0,0.42,0.19,0.42,0.42v2.42l-0.53-0.86
			c0.37-0.69,0.9-1.21,1.58-1.58C429.76,469.48,430.54,469.3,431.42,469.3z"/>
		<path class="st0" d="M437.13,471.54v-1.44c0-0.23,0.19-0.42,0.42-0.42h6.27c0.23,0,0.42,0.19,0.42,0.42v1.44
			c0,0.23-0.19,0.42-0.42,0.42h-6.27C437.32,471.96,437.13,471.78,437.13,471.54z M442.55,479.86c-1.21,0-2.15-0.31-2.82-0.92
			c-0.67-0.62-1.01-1.53-1.01-2.75v-8.57c0-0.23,0.19-0.42,0.42-0.42h2.13c0.23,0,0.42,0.19,0.42,0.42v8.54c0,0.43,0.11,0.77,0.34,1
			c0.23,0.24,0.54,0.35,0.93,0.35c0.31,0,0.59-0.05,0.83-0.16c0.21-0.09,0.46,0.03,0.54,0.24l0.5,1.31c0.08,0.2,0,0.42-0.19,0.52
			c-0.23,0.12-0.49,0.22-0.78,0.29C443.44,479.8,443,479.86,442.55,479.86z"/>
		<path class="st0" d="M451.41,479.86c-1.17,0-2.19-0.23-3.08-0.69c-0.88-0.46-1.57-1.08-2.05-1.88c-0.48-0.79-0.72-1.7-0.72-2.72
			c0-1.03,0.24-1.94,0.71-2.73c0.48-0.79,1.13-1.42,1.95-1.87c0.83-0.45,1.76-0.68,2.8-0.68c1,0,1.91,0.21,2.72,0.64
			c0.81,0.43,1.45,1.04,1.92,1.83c0.47,0.79,0.71,1.74,0.71,2.85c0,0.11-0.01,0.24-0.02,0.39c-0.01,0.15-0.03,0.28-0.04,0.41h-8.33
			v-1.73h6.77l-1.14,0.51c0-0.53-0.11-1-0.32-1.39c-0.22-0.39-0.51-0.7-0.9-0.92c-0.38-0.22-0.83-0.33-1.33-0.33
			c-0.51,0-0.96,0.11-1.34,0.33c-0.39,0.22-0.69,0.53-0.91,0.93c-0.22,0.4-0.32,0.87-0.32,1.42v0.46c0,0.56,0.12,1.05,0.37,1.48
			c0.25,0.43,0.6,0.75,1.05,0.97c0.45,0.22,0.98,0.33,1.59,0.33c0.55,0,1.03-0.08,1.44-0.25c0.3-0.12,0.58-0.28,0.84-0.49
			c0.17-0.14,0.42-0.12,0.57,0.05l1.03,1.12c0.16,0.17,0.15,0.44-0.02,0.6c-0.42,0.39-0.91,0.7-1.48,0.93
			C453.16,479.71,452.34,479.86,451.41,479.86z"/>
		<path class="st0" d="M464.58,469.3c0.81,0,1.54,0.16,2.18,0.49c0.64,0.32,1.15,0.82,1.52,1.49c0.37,0.67,0.55,1.52,0.55,2.56v5.45
			c0,0.23-0.19,0.42-0.42,0.42h-2.13c-0.23,0-0.42-0.19-0.42-0.42v-4.99c0-0.83-0.18-1.44-0.54-1.83c-0.36-0.39-0.87-0.59-1.53-0.59
			c-0.47,0-0.89,0.1-1.27,0.3c-0.38,0.2-0.67,0.5-0.88,0.91c-0.21,0.41-0.31,0.93-0.31,1.56v4.65c0,0.23-0.19,0.42-0.42,0.42h-2.13
			c-0.23,0-0.42-0.19-0.42-0.42v-9.41c0-0.23,0.19-0.42,0.42-0.42h2c0.23,0,0.42,0.19,0.42,0.42v2.42l-0.53-0.86
			c0.37-0.69,0.9-1.21,1.58-1.58C462.92,469.48,463.7,469.3,464.58,469.3z"/>
		<path class="st0" d="M470.3,471.54v-1.44c0-0.23,0.19-0.42,0.42-0.42h6.27c0.23,0,0.42,0.19,0.42,0.42v1.44
			c0,0.23-0.19,0.42-0.42,0.42h-6.27C470.49,471.96,470.3,471.78,470.3,471.54z M475.71,479.86c-1.21,0-2.15-0.31-2.82-0.92
			c-0.67-0.62-1.01-1.53-1.01-2.75v-8.57c0-0.23,0.19-0.42,0.42-0.42h2.13c0.23,0,0.42,0.19,0.42,0.42v8.54c0,0.43,0.11,0.77,0.34,1
			c0.23,0.24,0.54,0.35,0.93,0.35c0.31,0,0.59-0.05,0.83-0.16c0.21-0.09,0.46,0.03,0.54,0.24l0.5,1.31c0.08,0.2,0,0.42-0.19,0.52
			c-0.23,0.12-0.49,0.22-0.78,0.29C476.61,479.8,476.17,479.86,475.71,479.86z"/>
		<path class="st0" d="M481.29,468.02c-0.55,0-0.99-0.16-1.33-0.48c-0.34-0.32-0.51-0.71-0.51-1.18c0-0.47,0.17-0.86,0.51-1.18
			c0.34-0.32,0.79-0.48,1.33-0.48s0.99,0.15,1.33,0.45c0.34,0.3,0.51,0.68,0.51,1.15c0,0.5-0.17,0.91-0.51,1.23
			C482.3,467.86,481.85,468.02,481.29,468.02z M479.81,479.28v-9.41c0-0.23,0.19-0.42,0.42-0.42h2.13c0.23,0,0.42,0.19,0.42,0.42
			v9.41c0,0.23-0.19,0.42-0.42,0.42h-2.13C480,479.7,479.81,479.51,479.81,479.28z"/>
		<path class="st0" d="M490.42,479.86c-1.09,0-2.06-0.23-2.91-0.69c-0.85-0.46-1.51-1.08-2-1.88c-0.49-0.79-0.73-1.7-0.73-2.72
			c0-1.03,0.24-1.94,0.73-2.73c0.49-0.79,1.16-1.42,2-1.87c0.84-0.45,1.81-0.68,2.91-0.68c1.08,0,2.05,0.23,2.9,0.68
			c0.85,0.45,1.52,1.07,2,1.86c0.48,0.79,0.72,1.7,0.72,2.74c0,1.02-0.24,1.92-0.72,2.72c-0.48,0.79-1.15,1.42-2,1.88
			C492.47,479.63,491.5,479.86,490.42,479.86z M490.42,477.42c0.5,0,0.94-0.11,1.33-0.34c0.39-0.23,0.71-0.56,0.93-0.98
			c0.23-0.43,0.34-0.93,0.34-1.52c0-0.6-0.11-1.11-0.34-1.52c-0.23-0.42-0.54-0.74-0.93-0.97c-0.39-0.23-0.84-0.34-1.33-0.34
			c-0.5,0-0.94,0.11-1.33,0.34c-0.39,0.23-0.71,0.55-0.94,0.97c-0.24,0.42-0.35,0.93-0.35,1.52c0,0.58,0.12,1.09,0.35,1.52
			c0.23,0.43,0.55,0.75,0.94,0.98S489.93,477.42,490.42,477.42z"/>
		<path class="st0" d="M504.26,469.3c0.81,0,1.54,0.16,2.18,0.49c0.64,0.32,1.15,0.82,1.52,1.49c0.37,0.67,0.55,1.52,0.55,2.56v5.45
			c0,0.23-0.19,0.42-0.42,0.42h-2.13c-0.23,0-0.42-0.19-0.42-0.42v-4.99c0-0.83-0.18-1.44-0.54-1.83c-0.36-0.39-0.87-0.59-1.53-0.59
			c-0.47,0-0.89,0.1-1.27,0.3c-0.38,0.2-0.67,0.5-0.88,0.91c-0.21,0.41-0.31,0.93-0.31,1.56v4.65c0,0.23-0.19,0.42-0.42,0.42h-2.13
			c-0.23,0-0.42-0.19-0.42-0.42v-9.41c0-0.23,0.19-0.42,0.42-0.42h2c0.23,0,0.42,0.19,0.42,0.42v2.42l-0.53-0.86
			c0.37-0.69,0.9-1.21,1.58-1.58C502.6,469.48,503.38,469.3,504.26,469.3z"/>
		<path class="st0" d="M514.36,479.86c-0.8,0-1.49-0.14-2.06-0.41c-0.57-0.27-1.01-0.64-1.32-1.12c-0.3-0.47-0.46-1-0.46-1.58
			c0-0.61,0.15-1.14,0.45-1.6c0.3-0.46,0.77-0.82,1.42-1.08c0.65-0.26,1.49-0.39,2.54-0.39h2.73v1.73h-2.4
			c-0.7,0-1.18,0.11-1.44,0.34c-0.26,0.23-0.39,0.51-0.39,0.86c0,0.38,0.15,0.68,0.45,0.91c0.3,0.22,0.71,0.33,1.23,0.33
			c0.5,0,0.94-0.12,1.33-0.35c0.39-0.24,0.68-0.58,0.86-1.04l0.46,1.37c-0.22,0.66-0.61,1.16-1.18,1.51
			C516,479.68,515.26,479.86,514.36,479.86z M517.49,479.28v-1.58l-0.19-0.44v-3.58c0-0.64-0.19-1.13-0.58-1.49
			c-0.39-0.36-0.98-0.53-1.78-0.53c-0.55,0-1.08,0.09-1.61,0.26c-0.36,0.12-0.68,0.26-0.97,0.44c-0.21,0.13-0.48,0.05-0.59-0.16
			l-0.67-1.31c-0.1-0.2-0.03-0.45,0.17-0.56c0.49-0.29,1.05-0.52,1.68-0.69c0.79-0.22,1.59-0.32,2.4-0.32
			c1.56,0,2.78,0.37,3.64,1.11c0.86,0.74,1.3,1.89,1.3,3.45v5.43c0,0.23-0.19,0.42-0.42,0.42h-1.94
			C517.68,479.7,517.49,479.51,517.49,479.28z"/>
		<path class="st0" d="M522.96,479.28v-13.3c0-0.23,0.19-0.42,0.42-0.42h2.13c0.23,0,0.42,0.19,0.42,0.42v13.3
			c0,0.23-0.19,0.42-0.42,0.42h-2.13C523.15,479.7,522.96,479.51,522.96,479.28z"/>
	</g>
	<g>
		<path class="st0" d="M421.11,490.44v-4.71h-1.74c-0.1,0-0.19-0.08-0.19-0.19v-0.76c0-0.1,0.08-0.19,0.19-0.19h4.88
			c0.1,0,0.19,0.08,0.19,0.19v0.76c0,0.1-0.08,0.19-0.19,0.19h-1.74v4.71c0,0.1-0.08,0.19-0.19,0.19h-1.02
			C421.19,490.63,421.11,490.55,421.11,490.44z"/>
		<path class="st0" d="M431.4,489.51h3.1c0.1,0,0.19,0.08,0.19,0.19v0.74c0,0.1-0.08,0.19-0.19,0.19h-4.48v-6.03h4.37
			c0.1,0,0.19,0.08,0.19,0.19v0.74c0,0.1-0.08,0.19-0.19,0.19h-2.98V489.51z M431.29,487.03h2.72c0.1,0,0.19,0.08,0.19,0.19v0.71
			c0,0.1-0.08,0.19-0.19,0.19h-2.72V487.03z"/>
		<path class="st0" d="M443.51,490.73c-0.47,0-0.9-0.08-1.3-0.23c-0.4-0.15-0.75-0.37-1.04-0.65s-0.52-0.61-0.69-0.99
			c-0.16-0.38-0.25-0.8-0.25-1.25c0-0.45,0.08-0.87,0.25-1.25c0.16-0.38,0.39-0.71,0.69-0.99c0.3-0.28,0.64-0.5,1.04-0.65
			c0.4-0.15,0.83-0.23,1.3-0.23c0.52,0,1,0.09,1.42,0.27c0.36,0.16,0.68,0.38,0.94,0.66c0.07,0.08,0.06,0.2-0.01,0.27l-0.62,0.58
			c-0.08,0.07-0.19,0.06-0.26-0.01c-0.17-0.17-0.36-0.3-0.56-0.4c-0.25-0.12-0.53-0.18-0.83-0.18c-0.28,0-0.54,0.05-0.78,0.14
			c-0.24,0.09-0.44,0.22-0.61,0.4c-0.17,0.17-0.31,0.38-0.4,0.61c-0.09,0.24-0.14,0.5-0.14,0.78c0,0.29,0.05,0.55,0.14,0.78
			c0.09,0.24,0.23,0.44,0.4,0.61c0.17,0.17,0.38,0.3,0.61,0.4c0.24,0.09,0.49,0.14,0.78,0.14c0.3,0,0.57-0.06,0.83-0.18
			c0.2-0.09,0.39-0.23,0.56-0.4c0.07-0.07,0.19-0.08,0.26-0.01l0.62,0.58c0.08,0.07,0.08,0.19,0.01,0.27
			c-0.26,0.28-0.58,0.5-0.94,0.66C444.51,490.64,444.04,490.73,443.51,490.73z"/>
		<path class="st0" d="M452.98,490.63h-1.02c-0.1,0-0.19-0.08-0.19-0.19v-5.66c0-0.1,0.08-0.19,0.19-0.19h1.02
			c0.1,0,0.19,0.08,0.19,0.19v5.66C453.16,490.55,453.08,490.63,452.98,490.63z M456.01,488.16h-2.95v-1.18h2.95V488.16z
			 M456.09,484.6h1.02c0.1,0,0.19,0.08,0.19,0.19v5.66c0,0.1-0.08,0.19-0.19,0.19h-1.02c-0.1,0-0.19-0.08-0.19-0.19v-5.66
			C455.91,484.68,455.99,484.6,456.09,484.6z"/>
		<path class="st0" d="M463.56,490.44v-5.66c0-0.1,0.08-0.19,0.19-0.19h0.88c0.06,0,0.11,0.03,0.15,0.07l3.5,4.28h-0.56v-4.16
			c0-0.1,0.08-0.19,0.19-0.19h1c0.1,0,0.19,0.08,0.19,0.19v5.66c0,0.1-0.08,0.19-0.19,0.19h-0.87c-0.06,0-0.11-0.03-0.15-0.07
			l-3.51-4.28h0.56v4.16c0,0.1-0.08,0.19-0.19,0.19h-1C463.64,490.63,463.56,490.55,463.56,490.44z"/>
		<path class="st0" d="M478.28,490.73c-0.48,0-0.92-0.08-1.32-0.23c-0.41-0.16-0.76-0.37-1.05-0.66c-0.3-0.28-0.53-0.61-0.69-0.99
			c-0.16-0.38-0.25-0.79-0.25-1.24c0-0.45,0.08-0.86,0.25-1.24c0.16-0.38,0.4-0.71,0.69-0.99c0.3-0.28,0.65-0.5,1.05-0.66
			c0.4-0.16,0.84-0.23,1.31-0.23c0.48,0,0.92,0.08,1.31,0.23c0.4,0.16,0.75,0.37,1.04,0.66c0.3,0.28,0.53,0.61,0.69,0.99
			c0.17,0.38,0.25,0.79,0.25,1.25c0,0.45-0.08,0.86-0.25,1.25c-0.17,0.38-0.4,0.71-0.69,0.99c-0.3,0.28-0.64,0.5-1.04,0.65
			C479.19,490.66,478.76,490.73,478.28,490.73z M478.28,489.54c0.27,0,0.52-0.05,0.75-0.14c0.23-0.09,0.43-0.22,0.6-0.4
			c0.17-0.17,0.31-0.38,0.4-0.61c0.09-0.24,0.14-0.5,0.14-0.78c0-0.29-0.05-0.55-0.14-0.78c-0.09-0.24-0.23-0.44-0.4-0.61
			c-0.17-0.17-0.37-0.3-0.6-0.4c-0.23-0.09-0.48-0.14-0.75-0.14s-0.52,0.05-0.75,0.14c-0.23,0.09-0.43,0.22-0.6,0.4
			c-0.17,0.17-0.31,0.38-0.4,0.61c-0.09,0.24-0.14,0.5-0.14,0.78c0,0.28,0.05,0.54,0.14,0.78c0.09,0.24,0.23,0.44,0.4,0.62
			c0.17,0.17,0.37,0.3,0.6,0.4C477.76,489.5,478.01,489.54,478.28,489.54z"/>
		<path class="st0" d="M487.46,490.63v-5.85c0-0.1,0.08-0.19,0.19-0.19h1.02c0.1,0,0.19,0.08,0.19,0.19v4.71h2.84
			c0.1,0,0.19,0.08,0.19,0.19v0.76c0,0.1-0.08,0.19-0.19,0.19H487.46z"/>
		<path class="st0" d="M500.32,490.73c-0.48,0-0.92-0.08-1.32-0.23c-0.41-0.16-0.76-0.37-1.05-0.66c-0.3-0.28-0.53-0.61-0.69-0.99
			c-0.16-0.38-0.25-0.79-0.25-1.24c0-0.45,0.08-0.86,0.25-1.24c0.16-0.38,0.4-0.71,0.69-0.99c0.3-0.28,0.65-0.5,1.05-0.66
			c0.4-0.16,0.84-0.23,1.31-0.23c0.48,0,0.92,0.08,1.31,0.23c0.4,0.16,0.75,0.37,1.04,0.66c0.3,0.28,0.53,0.61,0.69,0.99
			c0.17,0.38,0.25,0.79,0.25,1.25c0,0.45-0.08,0.86-0.25,1.25c-0.17,0.38-0.4,0.71-0.69,0.99c-0.3,0.28-0.64,0.5-1.04,0.65
			C501.22,490.66,500.79,490.73,500.32,490.73z M500.31,489.54c0.27,0,0.52-0.05,0.75-0.14c0.23-0.09,0.43-0.22,0.6-0.4
			c0.17-0.17,0.31-0.38,0.4-0.61c0.09-0.24,0.14-0.5,0.14-0.78c0-0.29-0.05-0.55-0.14-0.78c-0.09-0.24-0.23-0.44-0.4-0.61
			c-0.17-0.17-0.37-0.3-0.6-0.4c-0.23-0.09-0.48-0.14-0.75-0.14s-0.52,0.05-0.75,0.14c-0.23,0.09-0.43,0.22-0.6,0.4
			c-0.17,0.17-0.31,0.38-0.4,0.61c-0.09,0.24-0.14,0.5-0.14,0.78c0,0.28,0.05,0.54,0.14,0.78c0.09,0.24,0.23,0.44,0.4,0.62
			c0.17,0.17,0.37,0.3,0.6,0.4C499.79,489.5,500.04,489.54,500.31,489.54z"/>
		<path class="st0" d="M512.4,490.73c-0.48,0-0.92-0.08-1.31-0.23c-0.4-0.15-0.75-0.37-1.04-0.65c-0.3-0.28-0.53-0.61-0.69-0.99
			c-0.16-0.38-0.25-0.8-0.25-1.25c0-0.45,0.08-0.87,0.25-1.25c0.16-0.38,0.4-0.71,0.69-0.99c0.3-0.28,0.65-0.5,1.05-0.65
			c0.4-0.15,0.84-0.23,1.33-0.23c0.53,0,1.02,0.09,1.44,0.27c0.37,0.15,0.68,0.36,0.95,0.64c0.07,0.07,0.07,0.2-0.01,0.27
			l-0.63,0.58c-0.07,0.07-0.18,0.06-0.26,0c-0.18-0.17-0.38-0.3-0.59-0.39c-0.26-0.11-0.54-0.17-0.84-0.17
			c-0.29,0-0.56,0.05-0.8,0.14c-0.24,0.09-0.45,0.22-0.63,0.4c-0.18,0.17-0.31,0.38-0.41,0.61c-0.09,0.24-0.14,0.5-0.14,0.78
			c0,0.28,0.05,0.54,0.14,0.78c0.09,0.24,0.23,0.44,0.41,0.62c0.18,0.18,0.38,0.31,0.62,0.4c0.24,0.09,0.5,0.14,0.79,0.14
			c0.28,0,0.54-0.04,0.81-0.13c0.26-0.09,0.52-0.24,0.76-0.45l0.79,1.01c-0.33,0.25-0.71,0.44-1.14,0.57
			C513.27,490.67,512.83,490.73,512.4,490.73z M513.57,489.79v-2.08c0-0.1,0.08-0.19,0.19-0.19h0.9c0.1,0,0.19,0.08,0.19,0.19v2.26
			L513.57,489.79z"/>
		<path class="st0" d="M522.65,490.63c-0.1,0-0.19-0.08-0.19-0.19v-2.28l0.32,0.84l-2.48-4.13c-0.08-0.13,0.01-0.29,0.16-0.29h1.04
			c0.07,0,0.13,0.03,0.16,0.09l1.98,3.3h-0.85l1.99-3.3c0.03-0.06,0.1-0.09,0.16-0.09h0.93c0.15,0,0.24,0.16,0.16,0.29l-2.48,4.13
			l0.31-0.84v2.28c0,0.1-0.08,0.19-0.19,0.19H522.65z"/>
	</g>
</g>
<g>
	<g>
		<linearGradient id="SVGID_3_" gradientUnits="userSpaceOnUse" x1="376.0362" y1="319.0705" x2="409.4585" y2="342.721">
			<stop  offset="0" style="stop-color:#FFFFFF"/>
			<stop  offset="1" style="stop-color:#D1D3D4"/>
		</linearGradient>
		<path class="st6" d="M406.09,317.75l-9.3-5.37c-2.69-1.55-6.03-1.55-8.72,0l-9.3,5.37c-2.69,1.55-4.36,4.45-4.36,7.56v10.74
			c0,3.11,1.67,6,4.36,7.56l9.3,5.37c1.35,0.78,2.85,1.17,4.36,1.17s3.02-0.39,4.36-1.17l9.3-5.37c2.69-1.55,4.36-4.45,4.36-7.56
			V325.3C410.46,322.19,408.78,319.3,406.09,317.75z M406.63,336.04c0,1.74-0.94,3.37-2.45,4.24l-9.3,5.37
			c-1.51,0.87-3.39,0.87-4.9,0l-9.3-5.37c-1.51-0.87-2.45-2.5-2.45-4.24V325.3c0-1.74,0.94-3.37,2.45-4.24l9.3-5.37
			c0.76-0.44,1.6-0.65,2.45-0.65c0.85,0,1.69,0.22,2.45,0.65l9.3,5.37c1.51,0.87,2.45,2.5,2.45,4.24V336.04z"/>
		<linearGradient id="SVGID_4_" gradientUnits="userSpaceOnUse" x1="376.8668" y1="317.8968" x2="410.2891" y2="341.5473">
			<stop  offset="0" style="stop-color:#FFFFFF"/>
			<stop  offset="1" style="stop-color:#D1D3D4"/>
		</linearGradient>
		<path class="st7" d="M401.87,324.27c-0.26-0.45-0.83-0.6-1.28-0.34l-9.19,5.3c-0.01,0.01-0.03,0.02-0.04,0.03
			c-0.71,0.41-0.81,1.03-0.82,1.26v0.09v7.9c0,0.52,0.42,0.94,0.94,0.94h1.61c0.52,0,0.94-0.42,0.94-0.94v-6.77l8.3-4.79
			c0.45-0.26,0.6-0.83,0.34-1.28L401.87,324.27z"/>
	</g>
</g>
<g>
	<g>
		<path class="st0" d="M419.14,332.23v-12.5c0-0.23,0.19-0.42,0.42-0.42h2.24c0.23,0,0.42,0.19,0.42,0.42v12.5
			c0,0.23-0.19,0.42-0.42,0.42h-2.24C419.33,332.66,419.14,332.47,419.14,332.23z"/>
		<path class="st0" d="M431.42,322.25c0.81,0,1.54,0.16,2.18,0.49c0.64,0.32,1.15,0.82,1.52,1.49c0.37,0.67,0.55,1.52,0.55,2.56
			v5.45c0,0.23-0.19,0.42-0.42,0.42h-2.13c-0.23,0-0.42-0.19-0.42-0.42v-4.99c0-0.83-0.18-1.44-0.54-1.83
			c-0.36-0.39-0.87-0.59-1.53-0.59c-0.47,0-0.89,0.1-1.27,0.3c-0.38,0.2-0.67,0.5-0.88,0.91c-0.21,0.41-0.31,0.93-0.31,1.56v4.65
			c0,0.23-0.19,0.42-0.42,0.42h-2.13c-0.23,0-0.42-0.19-0.42-0.42v-9.41c0-0.23,0.19-0.42,0.42-0.42h2c0.23,0,0.42,0.19,0.42,0.42
			v2.42l-0.53-0.86c0.37-0.69,0.9-1.21,1.58-1.58C429.76,322.43,430.54,322.25,431.42,322.25z"/>
		<path class="st0" d="M437.13,324.5v-1.44c0-0.23,0.19-0.42,0.42-0.42h6.27c0.23,0,0.42,0.19,0.42,0.42v1.44
			c0,0.23-0.19,0.42-0.42,0.42h-6.27C437.32,324.92,437.13,324.73,437.13,324.5z M442.55,332.81c-1.21,0-2.15-0.31-2.82-0.92
			c-0.67-0.62-1.01-1.53-1.01-2.75v-8.57c0-0.23,0.19-0.42,0.42-0.42h2.13c0.23,0,0.42,0.19,0.42,0.42v8.54c0,0.43,0.11,0.77,0.34,1
			c0.23,0.24,0.54,0.35,0.93,0.35c0.31,0,0.59-0.05,0.83-0.16c0.21-0.09,0.46,0.03,0.54,0.24l0.5,1.31c0.08,0.2,0,0.42-0.19,0.52
			c-0.23,0.12-0.49,0.22-0.78,0.29C443.44,332.75,443,332.81,442.55,332.81z"/>
		<path class="st0" d="M451.41,332.81c-1.17,0-2.19-0.23-3.08-0.69c-0.88-0.46-1.57-1.08-2.05-1.88c-0.48-0.79-0.72-1.7-0.72-2.72
			c0-1.03,0.24-1.94,0.71-2.73c0.48-0.79,1.13-1.42,1.95-1.87c0.83-0.45,1.76-0.68,2.8-0.68c1,0,1.91,0.21,2.72,0.64
			c0.81,0.43,1.45,1.04,1.92,1.83c0.47,0.79,0.71,1.74,0.71,2.85c0,0.11-0.01,0.24-0.02,0.39c-0.01,0.15-0.03,0.28-0.04,0.41h-8.33
			v-1.73h6.77l-1.14,0.51c0-0.53-0.11-1-0.32-1.39c-0.22-0.39-0.51-0.7-0.9-0.92c-0.38-0.22-0.83-0.33-1.33-0.33
			c-0.51,0-0.96,0.11-1.34,0.33c-0.39,0.22-0.69,0.53-0.91,0.93c-0.22,0.4-0.32,0.87-0.32,1.42v0.46c0,0.56,0.12,1.05,0.37,1.48
			c0.25,0.43,0.6,0.75,1.05,0.97c0.45,0.22,0.98,0.33,1.59,0.33c0.55,0,1.03-0.08,1.44-0.25c0.3-0.12,0.58-0.28,0.84-0.49
			c0.17-0.14,0.42-0.12,0.57,0.05l1.03,1.12c0.16,0.17,0.15,0.44-0.02,0.6c-0.42,0.39-0.91,0.7-1.48,0.93
			C453.16,332.67,452.34,332.81,451.41,332.81z"/>
		<path class="st0" d="M464.58,322.25c0.81,0,1.54,0.16,2.18,0.49c0.64,0.32,1.15,0.82,1.52,1.49c0.37,0.67,0.55,1.52,0.55,2.56
			v5.45c0,0.23-0.19,0.42-0.42,0.42h-2.13c-0.23,0-0.42-0.19-0.42-0.42v-4.99c0-0.83-0.18-1.44-0.54-1.83
			c-0.36-0.39-0.87-0.59-1.53-0.59c-0.47,0-0.89,0.1-1.27,0.3c-0.38,0.2-0.67,0.5-0.88,0.91c-0.21,0.41-0.31,0.93-0.31,1.56v4.65
			c0,0.23-0.19,0.42-0.42,0.42h-2.13c-0.23,0-0.42-0.19-0.42-0.42v-9.41c0-0.23,0.19-0.42,0.42-0.42h2c0.23,0,0.42,0.19,0.42,0.42
			v2.42l-0.53-0.86c0.37-0.69,0.9-1.21,1.58-1.58C462.92,322.43,463.7,322.25,464.58,322.25z"/>
		<path class="st0" d="M470.3,324.5v-1.44c0-0.23,0.19-0.42,0.42-0.42h6.27c0.23,0,0.42,0.19,0.42,0.42v1.44
			c0,0.23-0.19,0.42-0.42,0.42h-6.27C470.49,324.92,470.3,324.73,470.3,324.5z M475.71,332.81c-1.21,0-2.15-0.31-2.82-0.92
			c-0.67-0.62-1.01-1.53-1.01-2.75v-8.57c0-0.23,0.19-0.42,0.42-0.42h2.13c0.23,0,0.42,0.19,0.42,0.42v8.54c0,0.43,0.11,0.77,0.34,1
			c0.23,0.24,0.54,0.35,0.93,0.35c0.31,0,0.59-0.05,0.83-0.16c0.21-0.09,0.46,0.03,0.54,0.24l0.5,1.31c0.08,0.2,0,0.42-0.19,0.52
			c-0.23,0.12-0.49,0.22-0.78,0.29C476.61,332.75,476.17,332.81,475.71,332.81z"/>
		<path class="st0" d="M481.29,320.97c-0.55,0-0.99-0.16-1.33-0.48c-0.34-0.32-0.51-0.71-0.51-1.18c0-0.47,0.17-0.86,0.51-1.18
			c0.34-0.32,0.79-0.48,1.33-0.48s0.99,0.15,1.33,0.45c0.34,0.3,0.51,0.68,0.51,1.15c0,0.5-0.17,0.91-0.51,1.23
			C482.3,320.81,481.85,320.97,481.29,320.97z M479.81,332.23v-9.41c0-0.23,0.19-0.42,0.42-0.42h2.13c0.23,0,0.42,0.19,0.42,0.42
			v9.41c0,0.23-0.19,0.42-0.42,0.42h-2.13C480,332.66,479.81,332.47,479.81,332.23z"/>
		<path class="st0" d="M490.42,332.81c-1.09,0-2.06-0.23-2.91-0.69c-0.85-0.46-1.51-1.08-2-1.88c-0.49-0.79-0.73-1.7-0.73-2.72
			c0-1.03,0.24-1.94,0.73-2.73c0.49-0.79,1.16-1.42,2-1.87c0.84-0.45,1.81-0.68,2.91-0.68c1.08,0,2.05,0.23,2.9,0.68
			c0.85,0.45,1.52,1.07,2,1.86c0.48,0.79,0.72,1.7,0.72,2.74c0,1.02-0.24,1.92-0.72,2.72c-0.48,0.79-1.15,1.42-2,1.88
			C492.47,332.58,491.5,332.81,490.42,332.81z M490.42,330.37c0.5,0,0.94-0.11,1.33-0.34c0.39-0.23,0.71-0.56,0.93-0.98
			c0.23-0.43,0.34-0.93,0.34-1.52c0-0.6-0.11-1.11-0.34-1.52c-0.23-0.42-0.54-0.74-0.93-0.97c-0.39-0.23-0.84-0.34-1.33-0.34
			c-0.5,0-0.94,0.11-1.33,0.34s-0.71,0.55-0.94,0.97c-0.24,0.42-0.35,0.93-0.35,1.52c0,0.58,0.12,1.09,0.35,1.52
			c0.23,0.43,0.55,0.75,0.94,0.98C489.48,330.25,489.93,330.37,490.42,330.37z"/>
		<path class="st0" d="M504.26,322.25c0.81,0,1.54,0.16,2.18,0.49c0.64,0.32,1.15,0.82,1.52,1.49c0.37,0.67,0.55,1.52,0.55,2.56
			v5.45c0,0.23-0.19,0.42-0.42,0.42h-2.13c-0.23,0-0.42-0.19-0.42-0.42v-4.99c0-0.83-0.18-1.44-0.54-1.83
			c-0.36-0.39-0.87-0.59-1.53-0.59c-0.47,0-0.89,0.1-1.27,0.3c-0.38,0.2-0.67,0.5-0.88,0.91c-0.21,0.41-0.31,0.93-0.31,1.56v4.65
			c0,0.23-0.19,0.42-0.42,0.42h-2.13c-0.23,0-0.42-0.19-0.42-0.42v-9.41c0-0.23,0.19-0.42,0.42-0.42h2c0.23,0,0.42,0.19,0.42,0.42
			v2.42l-0.53-0.86c0.37-0.69,0.9-1.21,1.58-1.58C502.6,322.43,503.38,322.25,504.26,322.25z"/>
		<path class="st0" d="M514.36,332.81c-0.8,0-1.49-0.14-2.06-0.41c-0.57-0.27-1.01-0.64-1.32-1.12c-0.3-0.47-0.46-1-0.46-1.58
			c0-0.61,0.15-1.14,0.45-1.6c0.3-0.46,0.77-0.82,1.42-1.08c0.65-0.26,1.49-0.39,2.54-0.39h2.73v1.73h-2.4
			c-0.7,0-1.18,0.11-1.44,0.34c-0.26,0.23-0.39,0.51-0.39,0.86c0,0.38,0.15,0.68,0.45,0.91c0.3,0.22,0.71,0.33,1.23,0.33
			c0.5,0,0.94-0.12,1.33-0.35c0.39-0.24,0.68-0.58,0.86-1.04l0.46,1.37c-0.22,0.66-0.61,1.16-1.18,1.51S515.26,332.81,514.36,332.81
			z M517.49,332.23v-1.58l-0.19-0.44v-3.58c0-0.64-0.19-1.13-0.58-1.49c-0.39-0.36-0.98-0.53-1.78-0.53c-0.55,0-1.08,0.09-1.61,0.26
			c-0.36,0.12-0.68,0.26-0.97,0.44c-0.21,0.13-0.48,0.05-0.59-0.16l-0.67-1.31c-0.1-0.2-0.03-0.45,0.17-0.56
			c0.49-0.29,1.05-0.52,1.68-0.69c0.79-0.22,1.59-0.32,2.4-0.32c1.56,0,2.78,0.37,3.64,1.11c0.86,0.74,1.3,1.89,1.3,3.45v5.43
			c0,0.23-0.19,0.42-0.42,0.42h-1.94C517.68,332.66,517.49,332.47,517.49,332.23z"/>
		<path class="st0" d="M522.96,332.23v-13.3c0-0.23,0.19-0.42,0.42-0.42h2.13c0.23,0,0.42,0.19,0.42,0.42v13.3
			c0,0.23-0.19,0.42-0.42,0.42h-2.13C523.15,332.66,522.96,332.47,522.96,332.23z"/>
	</g>
	<g>
		<path class="st0" d="M421.11,343.4v-4.71h-1.74c-0.1,0-0.19-0.08-0.19-0.19v-0.76c0-0.1,0.08-0.19,0.19-0.19h4.88
			c0.1,0,0.19,0.08,0.19,0.19v0.76c0,0.1-0.08,0.19-0.19,0.19h-1.74v4.71c0,0.1-0.08,0.19-0.19,0.19h-1.02
			C421.19,343.58,421.11,343.5,421.11,343.4z"/>
		<path class="st0" d="M431.4,342.46h3.1c0.1,0,0.19,0.08,0.19,0.19v0.74c0,0.1-0.08,0.19-0.19,0.19h-4.48v-6.03h4.37
			c0.1,0,0.19,0.08,0.19,0.19v0.74c0,0.1-0.08,0.19-0.19,0.19h-2.98V342.46z M431.29,339.98h2.72c0.1,0,0.19,0.08,0.19,0.19v0.71
			c0,0.1-0.08,0.19-0.19,0.19h-2.72V339.98z"/>
		<path class="st0" d="M443.51,343.69c-0.47,0-0.9-0.08-1.3-0.23c-0.4-0.15-0.75-0.37-1.04-0.65c-0.29-0.28-0.52-0.61-0.69-0.99
			c-0.16-0.38-0.25-0.8-0.25-1.25c0-0.45,0.08-0.87,0.25-1.25c0.16-0.38,0.39-0.71,0.69-0.99c0.3-0.28,0.64-0.5,1.04-0.65
			c0.4-0.15,0.83-0.23,1.3-0.23c0.52,0,1,0.09,1.42,0.27c0.36,0.16,0.68,0.38,0.94,0.66c0.07,0.08,0.06,0.2-0.01,0.27l-0.62,0.58
			c-0.08,0.07-0.19,0.06-0.26-0.01c-0.17-0.17-0.36-0.3-0.56-0.4c-0.25-0.12-0.53-0.18-0.83-0.18c-0.28,0-0.54,0.05-0.78,0.14
			c-0.24,0.09-0.44,0.22-0.61,0.4c-0.17,0.17-0.31,0.38-0.4,0.61c-0.09,0.24-0.14,0.5-0.14,0.78c0,0.29,0.05,0.55,0.14,0.78
			c0.09,0.24,0.23,0.44,0.4,0.61c0.17,0.17,0.38,0.3,0.61,0.4c0.24,0.09,0.49,0.14,0.78,0.14c0.3,0,0.57-0.06,0.83-0.18
			c0.2-0.09,0.39-0.23,0.56-0.4c0.07-0.07,0.19-0.08,0.26-0.01l0.62,0.58c0.08,0.07,0.08,0.19,0.01,0.27
			c-0.26,0.28-0.58,0.5-0.94,0.66C444.51,343.59,444.04,343.69,443.51,343.69z"/>
		<path class="st0" d="M452.98,343.58h-1.02c-0.1,0-0.19-0.08-0.19-0.19v-5.66c0-0.1,0.08-0.19,0.19-0.19h1.02
			c0.1,0,0.19,0.08,0.19,0.19v5.66C453.16,343.5,453.08,343.58,452.98,343.58z M456.01,341.11h-2.95v-1.18h2.95V341.11z
			 M456.09,337.55h1.02c0.1,0,0.19,0.08,0.19,0.19v5.66c0,0.1-0.08,0.19-0.19,0.19h-1.02c-0.1,0-0.19-0.08-0.19-0.19v-5.66
			C455.91,337.63,455.99,337.55,456.09,337.55z"/>
		<path class="st0" d="M463.56,343.4v-5.66c0-0.1,0.08-0.19,0.19-0.19h0.88c0.06,0,0.11,0.03,0.15,0.07l3.5,4.28h-0.56v-4.16
			c0-0.1,0.08-0.19,0.19-0.19h1c0.1,0,0.19,0.08,0.19,0.19v5.66c0,0.1-0.08,0.19-0.19,0.19h-0.87c-0.06,0-0.11-0.03-0.15-0.07
			l-3.51-4.28h0.56v4.16c0,0.1-0.08,0.19-0.19,0.19h-1C463.64,343.58,463.56,343.5,463.56,343.4z"/>
		<path class="st0" d="M478.28,343.69c-0.48,0-0.92-0.08-1.32-0.23c-0.41-0.16-0.76-0.37-1.05-0.66c-0.3-0.28-0.53-0.61-0.69-0.99
			c-0.16-0.38-0.25-0.79-0.25-1.24c0-0.45,0.08-0.86,0.25-1.24c0.16-0.38,0.4-0.71,0.69-0.99c0.3-0.28,0.65-0.5,1.05-0.66
			c0.4-0.16,0.84-0.23,1.31-0.23c0.48,0,0.92,0.08,1.31,0.23c0.4,0.16,0.75,0.37,1.04,0.66c0.3,0.28,0.53,0.61,0.69,0.99
			c0.17,0.38,0.25,0.79,0.25,1.25c0,0.45-0.08,0.86-0.25,1.25c-0.17,0.38-0.4,0.71-0.69,0.99c-0.3,0.28-0.64,0.5-1.04,0.65
			C479.19,343.61,478.76,343.69,478.28,343.69z M478.28,342.5c0.27,0,0.52-0.05,0.75-0.14c0.23-0.09,0.43-0.22,0.6-0.4
			c0.17-0.17,0.31-0.38,0.4-0.61c0.09-0.24,0.14-0.5,0.14-0.78c0-0.29-0.05-0.55-0.14-0.78c-0.09-0.24-0.23-0.44-0.4-0.61
			c-0.17-0.17-0.37-0.3-0.6-0.4c-0.23-0.09-0.48-0.14-0.75-0.14s-0.52,0.05-0.75,0.14c-0.23,0.09-0.43,0.22-0.6,0.4
			c-0.17,0.17-0.31,0.38-0.4,0.61c-0.09,0.24-0.14,0.5-0.14,0.78c0,0.28,0.05,0.54,0.14,0.78c0.09,0.24,0.23,0.44,0.4,0.62
			c0.17,0.17,0.37,0.3,0.6,0.4C477.76,342.45,478.01,342.5,478.28,342.5z"/>
		<path class="st0" d="M487.46,343.58v-5.85c0-0.1,0.08-0.19,0.19-0.19h1.02c0.1,0,0.19,0.08,0.19,0.19v4.71h2.84
			c0.1,0,0.19,0.08,0.19,0.19v0.76c0,0.1-0.08,0.19-0.19,0.19H487.46z"/>
		<path class="st0" d="M500.32,343.69c-0.48,0-0.92-0.08-1.32-0.23c-0.41-0.16-0.76-0.37-1.05-0.66c-0.3-0.28-0.53-0.61-0.69-0.99
			c-0.16-0.38-0.25-0.79-0.25-1.24c0-0.45,0.08-0.86,0.25-1.24c0.16-0.38,0.4-0.71,0.69-0.99c0.3-0.28,0.65-0.5,1.05-0.66
			c0.4-0.16,0.84-0.23,1.31-0.23c0.48,0,0.92,0.08,1.31,0.23c0.4,0.16,0.75,0.37,1.04,0.66c0.3,0.28,0.53,0.61,0.69,0.99
			c0.17,0.38,0.25,0.79,0.25,1.25c0,0.45-0.08,0.86-0.25,1.25c-0.17,0.38-0.4,0.71-0.69,0.99c-0.3,0.28-0.64,0.5-1.04,0.65
			C501.22,343.61,500.79,343.69,500.32,343.69z M500.31,342.5c0.27,0,0.52-0.05,0.75-0.14c0.23-0.09,0.43-0.22,0.6-0.4
			c0.17-0.17,0.31-0.38,0.4-0.61c0.09-0.24,0.14-0.5,0.14-0.78c0-0.29-0.05-0.55-0.14-0.78c-0.09-0.24-0.23-0.44-0.4-0.61
			c-0.17-0.17-0.37-0.3-0.6-0.4c-0.23-0.09-0.48-0.14-0.75-0.14s-0.52,0.05-0.75,0.14c-0.23,0.09-0.43,0.22-0.6,0.4
			c-0.17,0.17-0.31,0.38-0.4,0.61c-0.09,0.24-0.14,0.5-0.14,0.78c0,0.28,0.05,0.54,0.14,0.78c0.09,0.24,0.23,0.44,0.4,0.62
			c0.17,0.17,0.37,0.3,0.6,0.4C499.79,342.45,500.04,342.5,500.31,342.5z"/>
		<path class="st0" d="M512.4,343.69c-0.48,0-0.92-0.08-1.31-0.23c-0.4-0.15-0.75-0.37-1.04-0.65c-0.3-0.28-0.53-0.61-0.69-0.99
			c-0.16-0.38-0.25-0.8-0.25-1.25c0-0.45,0.08-0.87,0.25-1.25c0.16-0.38,0.4-0.71,0.69-0.99c0.3-0.28,0.65-0.5,1.05-0.65
			c0.4-0.15,0.84-0.23,1.33-0.23c0.53,0,1.02,0.09,1.44,0.27c0.37,0.15,0.68,0.36,0.95,0.64c0.07,0.07,0.07,0.2-0.01,0.27
			l-0.63,0.58c-0.07,0.07-0.18,0.06-0.26,0c-0.18-0.17-0.38-0.3-0.59-0.39c-0.26-0.11-0.54-0.17-0.84-0.17
			c-0.29,0-0.56,0.05-0.8,0.14c-0.24,0.09-0.45,0.22-0.63,0.4c-0.18,0.17-0.31,0.38-0.41,0.61c-0.09,0.24-0.14,0.5-0.14,0.78
			c0,0.28,0.05,0.54,0.14,0.78c0.09,0.24,0.23,0.44,0.41,0.62s0.38,0.31,0.62,0.4c0.24,0.09,0.5,0.14,0.79,0.14
			c0.28,0,0.54-0.04,0.81-0.13c0.26-0.09,0.52-0.24,0.76-0.45l0.79,1.01c-0.33,0.25-0.71,0.44-1.14,0.57
			C513.27,343.62,512.83,343.69,512.4,343.69z M513.57,342.74v-2.08c0-0.1,0.08-0.19,0.19-0.19h0.9c0.1,0,0.19,0.08,0.19,0.19v2.26
			L513.57,342.74z"/>
		<path class="st0" d="M522.65,343.58c-0.1,0-0.19-0.08-0.19-0.19v-2.28l0.32,0.84l-2.48-4.13c-0.08-0.13,0.01-0.29,0.16-0.29h1.04
			c0.07,0,0.13,0.03,0.16,0.09l1.98,3.3h-0.85l1.99-3.3c0.03-0.06,0.1-0.09,0.16-0.09h0.93c0.15,0,0.24,0.16,0.16,0.29l-2.48,4.13
			l0.31-0.84v2.28c0,0.1-0.08,0.19-0.19,0.19H522.65z"/>
	</g>
</g>
<g>
	<g>
		<linearGradient id="SVGID_5_" gradientUnits="userSpaceOnUse" x1="118.3154" y1="388.6897" x2="148.4097" y2="416.0224">
			<stop  offset="0" style="stop-color:#E67097"/>
			<stop  offset="1" style="stop-color:#E84A87"/>
		</linearGradient>
		<path class="st8" d="M147.44,389.81l-9.3-5.37c-2.69-1.55-6.03-1.55-8.72,0l-9.3,5.37c-2.69,1.55-4.36,4.45-4.36,7.56v10.74
			c0,3.11,1.67,6,4.36,7.56l9.3,5.37c1.35,0.78,2.85,1.17,4.36,1.17s3.02-0.39,4.36-1.17l9.3-5.37c2.69-1.55,4.36-4.45,4.36-7.56
			v-10.74C151.8,394.26,150.13,391.36,147.44,389.81z M147.98,408.1c0,1.74-0.94,3.37-2.45,4.24l-9.3,5.37
			c-1.51,0.87-3.39,0.87-4.9,0l-9.3-5.37c-1.51-0.87-2.45-2.5-2.45-4.24v-10.74c0-1.74,0.94-3.37,2.45-4.24l9.3-5.37
			c0.76-0.44,1.6-0.65,2.45-0.65c0.85,0,1.69,0.22,2.45,0.65l9.3,5.37c1.51,0.87,2.45,2.5,2.45,4.24V408.1z"/>
		<linearGradient id="SVGID_6_" gradientUnits="userSpaceOnUse" x1="119.5757" y1="387.3022" x2="149.6699" y2="414.6348">
			<stop  offset="0" style="stop-color:#E67097"/>
			<stop  offset="1" style="stop-color:#E84A87"/>
		</linearGradient>
		<path class="st9" d="M143.22,396.33c-0.26-0.45-0.83-0.6-1.28-0.34l-9.19,5.3c-0.01,0.01-0.03,0.02-0.04,0.03
			c-0.71,0.41-0.81,1.03-0.82,1.26v0.09v7.9c0,0.52,0.42,0.94,0.94,0.94h1.61c0.52,0,0.94-0.42,0.94-0.94v-6.77l8.3-4.79
			c0.45-0.26,0.6-0.83,0.34-1.28L143.22,396.33z"/>
	</g>
</g>
<g>
	<g>
		<path class="st3" d="M160.49,404.3v-12.5c0-0.23,0.19-0.42,0.42-0.42h2.24c0.23,0,0.42,0.19,0.42,0.42v12.5
			c0,0.23-0.19,0.42-0.42,0.42h-2.24C160.68,404.72,160.49,404.53,160.49,404.3z"/>
		<path class="st3" d="M172.76,394.31c0.81,0,1.54,0.16,2.18,0.49c0.64,0.32,1.15,0.82,1.52,1.49c0.37,0.67,0.55,1.52,0.55,2.56
			v5.45c0,0.23-0.19,0.42-0.42,0.42h-2.13c-0.23,0-0.42-0.19-0.42-0.42v-4.99c0-0.83-0.18-1.44-0.54-1.83
			c-0.36-0.39-0.87-0.59-1.53-0.59c-0.47,0-0.89,0.1-1.27,0.3c-0.38,0.2-0.67,0.5-0.88,0.91c-0.21,0.41-0.31,0.93-0.31,1.56v4.65
			c0,0.23-0.19,0.42-0.42,0.42h-2.13c-0.23,0-0.42-0.19-0.42-0.42v-9.41c0-0.23,0.19-0.42,0.42-0.42h2c0.23,0,0.42,0.19,0.42,0.42
			v2.42l-0.53-0.86c0.37-0.69,0.9-1.21,1.58-1.58C171.11,394.5,171.89,394.31,172.76,394.31z"/>
		<path class="st3" d="M178.48,396.56v-1.44c0-0.23,0.19-0.42,0.42-0.42h6.27c0.23,0,0.42,0.19,0.42,0.42v1.44
			c0,0.23-0.19,0.42-0.42,0.42h-6.27C178.67,396.98,178.48,396.79,178.48,396.56z M183.89,404.87c-1.21,0-2.15-0.31-2.82-0.92
			c-0.67-0.62-1.01-1.53-1.01-2.75v-8.57c0-0.23,0.19-0.42,0.42-0.42h2.13c0.23,0,0.42,0.19,0.42,0.42v8.54c0,0.43,0.11,0.77,0.34,1
			c0.23,0.24,0.54,0.35,0.93,0.35c0.31,0,0.59-0.05,0.83-0.16c0.21-0.09,0.46,0.03,0.54,0.24l0.5,1.31c0.08,0.2,0,0.42-0.19,0.52
			c-0.23,0.12-0.49,0.22-0.78,0.29C184.79,404.82,184.35,404.87,183.89,404.87z"/>
		<path class="st3" d="M192.76,404.87c-1.17,0-2.19-0.23-3.08-0.69c-0.88-0.46-1.57-1.08-2.05-1.88c-0.48-0.79-0.72-1.7-0.72-2.72
			c0-1.03,0.24-1.94,0.71-2.73c0.48-0.79,1.13-1.42,1.95-1.87c0.83-0.45,1.76-0.68,2.8-0.68c1,0,1.91,0.21,2.72,0.64
			c0.81,0.43,1.45,1.04,1.92,1.83c0.47,0.79,0.71,1.74,0.71,2.85c0,0.11-0.01,0.24-0.02,0.39c-0.01,0.15-0.03,0.28-0.04,0.41h-8.33
			v-1.73h6.77l-1.14,0.51c0-0.53-0.11-1-0.32-1.39c-0.22-0.39-0.51-0.7-0.9-0.92c-0.38-0.22-0.83-0.33-1.33-0.33
			s-0.96,0.11-1.34,0.33c-0.39,0.22-0.69,0.53-0.91,0.93c-0.22,0.4-0.32,0.87-0.32,1.42v0.46c0,0.56,0.12,1.05,0.37,1.48
			c0.25,0.43,0.6,0.75,1.05,0.97c0.45,0.22,0.98,0.33,1.59,0.33c0.55,0,1.03-0.08,1.44-0.25c0.3-0.12,0.58-0.28,0.84-0.49
			c0.17-0.14,0.42-0.12,0.57,0.05l1.03,1.12c0.16,0.17,0.15,0.44-0.02,0.6c-0.42,0.39-0.91,0.7-1.48,0.93
			C194.5,404.73,193.68,404.87,192.76,404.87z"/>
		<path class="st3" d="M205.93,394.31c0.81,0,1.54,0.16,2.18,0.49c0.64,0.32,1.15,0.82,1.52,1.49c0.37,0.67,0.55,1.52,0.55,2.56
			v5.45c0,0.23-0.19,0.42-0.42,0.42h-2.13c-0.23,0-0.42-0.19-0.42-0.42v-4.99c0-0.83-0.18-1.44-0.54-1.83
			c-0.36-0.39-0.87-0.59-1.53-0.59c-0.47,0-0.89,0.1-1.27,0.3c-0.38,0.2-0.67,0.5-0.88,0.91c-0.21,0.41-0.31,0.93-0.31,1.56v4.65
			c0,0.23-0.19,0.42-0.42,0.42h-2.13c-0.23,0-0.42-0.19-0.42-0.42v-9.41c0-0.23,0.19-0.42,0.42-0.42h2c0.23,0,0.42,0.19,0.42,0.42
			v2.42l-0.53-0.86c0.37-0.69,0.9-1.21,1.58-1.58C204.27,394.5,205.05,394.31,205.93,394.31z"/>
		<path class="st3" d="M211.64,396.56v-1.44c0-0.23,0.19-0.42,0.42-0.42h6.27c0.23,0,0.42,0.19,0.42,0.42v1.44
			c0,0.23-0.19,0.42-0.42,0.42h-6.27C211.83,396.98,211.64,396.79,211.64,396.56z M217.06,404.87c-1.21,0-2.15-0.31-2.82-0.92
			c-0.67-0.62-1.01-1.53-1.01-2.75v-8.57c0-0.23,0.19-0.42,0.42-0.42h2.13c0.23,0,0.42,0.19,0.42,0.42v8.54c0,0.43,0.11,0.77,0.34,1
			c0.23,0.24,0.54,0.35,0.93,0.35c0.31,0,0.59-0.05,0.83-0.16c0.21-0.09,0.46,0.03,0.54,0.24l0.5,1.31c0.08,0.2,0,0.42-0.19,0.52
			c-0.23,0.12-0.49,0.22-0.78,0.29C217.96,404.82,217.52,404.87,217.06,404.87z"/>
		<path class="st3" d="M222.64,393.03c-0.55,0-0.99-0.16-1.33-0.48c-0.34-0.32-0.51-0.71-0.51-1.18c0-0.47,0.17-0.86,0.51-1.18
			c0.34-0.32,0.79-0.48,1.33-0.48s0.99,0.15,1.33,0.45c0.34,0.3,0.51,0.68,0.51,1.15c0,0.5-0.17,0.91-0.51,1.23
			C223.65,392.87,223.2,393.03,222.64,393.03z M221.16,404.3v-9.41c0-0.23,0.19-0.42,0.42-0.42h2.13c0.23,0,0.42,0.19,0.42,0.42
			v9.41c0,0.23-0.19,0.42-0.42,0.42h-2.13C221.34,404.72,221.16,404.53,221.16,404.3z"/>
		<path class="st3" d="M231.77,404.87c-1.09,0-2.06-0.23-2.91-0.69c-0.85-0.46-1.51-1.08-2-1.88c-0.49-0.79-0.73-1.7-0.73-2.72
			c0-1.03,0.24-1.94,0.73-2.73c0.49-0.79,1.16-1.42,2-1.87c0.84-0.45,1.81-0.68,2.91-0.68c1.08,0,2.05,0.23,2.9,0.68
			c0.85,0.45,1.52,1.07,2,1.86c0.48,0.79,0.72,1.7,0.72,2.74c0,1.02-0.24,1.92-0.72,2.72c-0.48,0.79-1.15,1.42-2,1.88
			C233.82,404.64,232.85,404.87,231.77,404.87z M231.77,402.43c0.5,0,0.94-0.11,1.33-0.34c0.39-0.23,0.71-0.56,0.93-0.98
			c0.23-0.43,0.34-0.93,0.34-1.52c0-0.6-0.11-1.11-0.34-1.52c-0.23-0.42-0.54-0.74-0.93-0.97c-0.39-0.23-0.84-0.34-1.33-0.34
			c-0.5,0-0.94,0.11-1.33,0.34s-0.71,0.55-0.94,0.97c-0.24,0.42-0.35,0.93-0.35,1.52c0,0.58,0.12,1.09,0.35,1.52
			c0.23,0.43,0.55,0.75,0.94,0.98C230.83,402.32,231.28,402.43,231.77,402.43z"/>
		<path class="st3" d="M245.61,394.31c0.81,0,1.54,0.16,2.18,0.49c0.64,0.32,1.15,0.82,1.52,1.49c0.37,0.67,0.55,1.52,0.55,2.56
			v5.45c0,0.23-0.19,0.42-0.42,0.42h-2.13c-0.23,0-0.42-0.19-0.42-0.42v-4.99c0-0.83-0.18-1.44-0.54-1.83
			c-0.36-0.39-0.87-0.59-1.53-0.59c-0.47,0-0.89,0.1-1.27,0.3c-0.38,0.2-0.67,0.5-0.88,0.91c-0.21,0.41-0.31,0.93-0.31,1.56v4.65
			c0,0.23-0.19,0.42-0.42,0.42h-2.13c-0.23,0-0.42-0.19-0.42-0.42v-9.41c0-0.23,0.19-0.42,0.42-0.42h2c0.23,0,0.42,0.19,0.42,0.42
			v2.42l-0.53-0.86c0.37-0.69,0.9-1.21,1.58-1.58C243.95,394.5,244.73,394.31,245.61,394.31z"/>
		<path class="st3" d="M255.71,404.87c-0.8,0-1.49-0.14-2.06-0.41c-0.57-0.27-1.01-0.64-1.32-1.12c-0.3-0.47-0.46-1-0.46-1.58
			c0-0.61,0.15-1.14,0.45-1.6c0.3-0.46,0.77-0.82,1.42-1.08c0.65-0.26,1.49-0.39,2.54-0.39h2.73v1.73h-2.4
			c-0.7,0-1.18,0.11-1.44,0.34c-0.26,0.23-0.39,0.51-0.39,0.86c0,0.38,0.15,0.68,0.45,0.91c0.3,0.22,0.71,0.33,1.23,0.33
			c0.5,0,0.94-0.12,1.33-0.35c0.39-0.24,0.68-0.58,0.86-1.04l0.46,1.37c-0.22,0.66-0.61,1.16-1.18,1.51
			C257.35,404.7,256.61,404.87,255.71,404.87z M258.84,404.3v-1.58l-0.19-0.44v-3.58c0-0.64-0.19-1.13-0.58-1.49
			c-0.39-0.36-0.98-0.53-1.78-0.53c-0.55,0-1.08,0.09-1.61,0.26c-0.36,0.12-0.68,0.26-0.97,0.44c-0.21,0.13-0.48,0.05-0.59-0.16
			l-0.67-1.31c-0.1-0.2-0.03-0.45,0.17-0.56c0.49-0.29,1.05-0.52,1.68-0.69c0.79-0.22,1.59-0.32,2.4-0.32
			c1.56,0,2.78,0.37,3.64,1.11c0.86,0.74,1.3,1.89,1.3,3.45v5.43c0,0.23-0.19,0.42-0.42,0.42h-1.94
			C259.03,404.72,258.84,404.53,258.84,404.3z"/>
		<path class="st3" d="M264.31,404.3V391c0-0.23,0.19-0.42,0.42-0.42h2.13c0.23,0,0.42,0.19,0.42,0.42v13.3
			c0,0.23-0.19,0.42-0.42,0.42h-2.13C264.5,404.72,264.31,404.53,264.31,404.3z"/>
	</g>
	<g>
		<path class="st3" d="M162.45,415.46v-4.71h-1.74c-0.1,0-0.19-0.08-0.19-0.19v-0.76c0-0.1,0.08-0.19,0.19-0.19h4.88
			c0.1,0,0.19,0.08,0.19,0.19v0.76c0,0.1-0.08,0.19-0.19,0.19h-1.74v4.71c0,0.1-0.08,0.19-0.19,0.19h-1.02
			C162.54,415.65,162.45,415.56,162.45,415.46z"/>
		<path class="st3" d="M172.75,414.53h3.1c0.1,0,0.19,0.08,0.19,0.19v0.74c0,0.1-0.08,0.19-0.19,0.19h-4.48v-6.03h4.37
			c0.1,0,0.19,0.08,0.19,0.19v0.74c0,0.1-0.08,0.19-0.19,0.19h-2.98V414.53z M172.64,412.04h2.72c0.1,0,0.19,0.08,0.19,0.19v0.71
			c0,0.1-0.08,0.19-0.19,0.19h-2.72V412.04z"/>
		<path class="st3" d="M184.86,415.75c-0.47,0-0.9-0.08-1.3-0.23c-0.4-0.15-0.75-0.37-1.04-0.65c-0.29-0.28-0.52-0.61-0.69-0.99
			c-0.16-0.38-0.25-0.8-0.25-1.25c0-0.45,0.08-0.87,0.25-1.25c0.16-0.38,0.39-0.71,0.69-0.99c0.3-0.28,0.64-0.5,1.04-0.65
			c0.4-0.15,0.83-0.23,1.3-0.23c0.52,0,1,0.09,1.42,0.27c0.36,0.16,0.68,0.38,0.94,0.66c0.07,0.08,0.06,0.2-0.01,0.27l-0.62,0.58
			c-0.08,0.07-0.19,0.06-0.26-0.01c-0.17-0.17-0.36-0.3-0.56-0.4c-0.25-0.12-0.53-0.18-0.83-0.18c-0.28,0-0.54,0.05-0.78,0.14
			c-0.24,0.09-0.44,0.22-0.61,0.4c-0.17,0.17-0.31,0.38-0.4,0.61c-0.09,0.24-0.14,0.5-0.14,0.78c0,0.29,0.05,0.55,0.14,0.78
			c0.09,0.24,0.23,0.44,0.4,0.61c0.17,0.17,0.38,0.3,0.61,0.4c0.24,0.09,0.49,0.14,0.78,0.14c0.3,0,0.57-0.06,0.83-0.18
			c0.2-0.09,0.39-0.23,0.56-0.4c0.07-0.07,0.19-0.08,0.26-0.01l0.62,0.58c0.08,0.07,0.08,0.19,0.01,0.27
			c-0.26,0.28-0.58,0.5-0.94,0.66C185.86,415.66,185.39,415.75,184.86,415.75z"/>
		<path class="st3" d="M194.32,415.65h-1.02c-0.1,0-0.19-0.08-0.19-0.19v-5.66c0-0.1,0.08-0.19,0.19-0.19h1.02
			c0.1,0,0.19,0.08,0.19,0.19v5.66C194.51,415.56,194.43,415.65,194.32,415.65z M197.36,413.17h-2.95v-1.18h2.95V413.17z
			 M197.44,409.61h1.02c0.1,0,0.19,0.08,0.19,0.19v5.66c0,0.1-0.08,0.19-0.19,0.19h-1.02c-0.1,0-0.19-0.08-0.19-0.19v-5.66
			C197.25,409.7,197.34,409.61,197.44,409.61z"/>
		<path class="st3" d="M204.91,415.46v-5.66c0-0.1,0.08-0.19,0.19-0.19h0.88c0.06,0,0.11,0.03,0.15,0.07l3.5,4.28h-0.56v-4.16
			c0-0.1,0.08-0.19,0.19-0.19h1c0.1,0,0.19,0.08,0.19,0.19v5.66c0,0.1-0.08,0.19-0.19,0.19h-0.87c-0.06,0-0.11-0.03-0.15-0.07
			l-3.51-4.28h0.56v4.16c0,0.1-0.08,0.19-0.19,0.19h-1C204.99,415.65,204.91,415.56,204.91,415.46z"/>
		<path class="st3" d="M219.63,415.75c-0.48,0-0.92-0.08-1.32-0.23c-0.41-0.16-0.76-0.37-1.05-0.66c-0.3-0.28-0.53-0.61-0.69-0.99
			c-0.16-0.38-0.25-0.79-0.25-1.24c0-0.45,0.08-0.86,0.25-1.24c0.16-0.38,0.4-0.71,0.69-0.99c0.3-0.28,0.65-0.5,1.05-0.66
			c0.4-0.16,0.84-0.23,1.31-0.23c0.48,0,0.92,0.08,1.31,0.23c0.4,0.16,0.75,0.37,1.04,0.66c0.3,0.28,0.53,0.61,0.69,0.99
			c0.17,0.38,0.25,0.79,0.25,1.25c0,0.45-0.08,0.86-0.25,1.25c-0.17,0.38-0.4,0.71-0.69,0.99c-0.3,0.28-0.64,0.5-1.04,0.65
			C220.54,415.67,220.1,415.75,219.63,415.75z M219.62,414.56c0.27,0,0.52-0.05,0.75-0.14c0.23-0.09,0.43-0.22,0.6-0.4
			c0.17-0.17,0.31-0.38,0.4-0.61c0.09-0.24,0.14-0.5,0.14-0.78c0-0.29-0.05-0.55-0.14-0.78c-0.09-0.24-0.23-0.44-0.4-0.61
			c-0.17-0.17-0.37-0.3-0.6-0.4c-0.23-0.09-0.48-0.14-0.75-0.14c-0.27,0-0.52,0.05-0.75,0.14c-0.23,0.09-0.43,0.22-0.6,0.4
			c-0.17,0.17-0.31,0.38-0.4,0.61c-0.09,0.24-0.14,0.5-0.14,0.78c0,0.28,0.05,0.54,0.14,0.78c0.09,0.24,0.23,0.44,0.4,0.62
			c0.17,0.17,0.37,0.3,0.6,0.4C219.1,414.51,219.35,414.56,219.62,414.56z"/>
		<path class="st3" d="M228.8,415.65v-5.85c0-0.1,0.08-0.19,0.19-0.19h1.02c0.1,0,0.19,0.08,0.19,0.19v4.71h2.84
			c0.1,0,0.19,0.08,0.19,0.19v0.76c0,0.1-0.08,0.19-0.19,0.19H228.8z"/>
		<path class="st3" d="M241.67,415.75c-0.48,0-0.92-0.08-1.32-0.23c-0.41-0.16-0.76-0.37-1.05-0.66c-0.3-0.28-0.53-0.61-0.69-0.99
			c-0.16-0.38-0.25-0.79-0.25-1.24c0-0.45,0.08-0.86,0.25-1.24c0.16-0.38,0.4-0.71,0.69-0.99c0.3-0.28,0.65-0.5,1.05-0.66
			c0.4-0.16,0.84-0.23,1.31-0.23c0.48,0,0.92,0.08,1.31,0.23c0.4,0.16,0.75,0.37,1.04,0.66c0.3,0.28,0.53,0.61,0.69,0.99
			c0.17,0.38,0.25,0.79,0.25,1.25c0,0.45-0.08,0.86-0.25,1.25c-0.17,0.38-0.4,0.71-0.69,0.99c-0.3,0.28-0.64,0.5-1.04,0.65
			C242.57,415.67,242.14,415.75,241.67,415.75z M241.66,414.56c0.27,0,0.52-0.05,0.75-0.14c0.23-0.09,0.43-0.22,0.6-0.4
			c0.17-0.17,0.31-0.38,0.4-0.61c0.09-0.24,0.14-0.5,0.14-0.78c0-0.29-0.05-0.55-0.14-0.78c-0.09-0.24-0.23-0.44-0.4-0.61
			c-0.17-0.17-0.37-0.3-0.6-0.4c-0.23-0.09-0.48-0.14-0.75-0.14c-0.27,0-0.52,0.05-0.75,0.14c-0.23,0.09-0.43,0.22-0.6,0.4
			c-0.17,0.17-0.31,0.38-0.4,0.61c-0.09,0.24-0.14,0.5-0.14,0.78c0,0.28,0.05,0.54,0.14,0.78c0.09,0.24,0.23,0.44,0.4,0.62
			c0.17,0.17,0.37,0.3,0.6,0.4C241.14,414.51,241.39,414.56,241.66,414.56z"/>
		<path class="st3" d="M253.75,415.75c-0.48,0-0.92-0.08-1.31-0.23c-0.4-0.15-0.75-0.37-1.04-0.65c-0.3-0.28-0.53-0.61-0.69-0.99
			c-0.16-0.38-0.25-0.8-0.25-1.25c0-0.45,0.08-0.87,0.25-1.25c0.16-0.38,0.4-0.71,0.69-0.99c0.3-0.28,0.65-0.5,1.05-0.65
			c0.4-0.15,0.84-0.23,1.33-0.23c0.53,0,1.02,0.09,1.44,0.27c0.37,0.15,0.68,0.36,0.95,0.64c0.07,0.07,0.07,0.2-0.01,0.27
			l-0.63,0.58c-0.07,0.07-0.18,0.06-0.26,0c-0.18-0.17-0.38-0.3-0.59-0.39c-0.26-0.11-0.54-0.17-0.84-0.17
			c-0.29,0-0.56,0.05-0.8,0.14c-0.24,0.09-0.45,0.22-0.63,0.4c-0.18,0.17-0.31,0.38-0.41,0.61c-0.09,0.24-0.14,0.5-0.14,0.78
			c0,0.28,0.05,0.54,0.14,0.78c0.09,0.24,0.23,0.44,0.41,0.62c0.18,0.18,0.38,0.31,0.62,0.4c0.24,0.09,0.5,0.14,0.79,0.14
			c0.28,0,0.54-0.04,0.81-0.13c0.26-0.09,0.52-0.24,0.76-0.45l0.79,1.01c-0.33,0.25-0.71,0.44-1.14,0.57
			C254.61,415.68,254.18,415.75,253.75,415.75z M254.92,414.8v-2.08c0-0.1,0.08-0.19,0.19-0.19h0.9c0.1,0,0.19,0.08,0.19,0.19v2.26
			L254.92,414.8z"/>
		<path class="st3" d="M264,415.65c-0.1,0-0.19-0.08-0.19-0.19v-2.28l0.32,0.84l-2.48-4.13c-0.08-0.13,0.01-0.29,0.16-0.29h1.04
			c0.07,0,0.13,0.03,0.16,0.09l1.98,3.3h-0.85l1.99-3.3c0.03-0.06,0.1-0.09,0.16-0.09h0.93c0.15,0,0.24,0.16,0.16,0.29l-2.48,4.13
			l0.31-0.84v2.28c0,0.1-0.08,0.19-0.19,0.19H264z"/>
	</g>
</g>
<g class="st10">
	<g>
		<linearGradient id="SVGID_7_" gradientUnits="userSpaceOnUse" x1="147.315" y1="504.3293" x2="165.4975" y2="520.8433">
			<stop  offset="0" style="stop-color:#E67097"/>
			<stop  offset="1" style="stop-color:#E84A87"/>
		</linearGradient>
		<path class="st11" d="M164.91,505.01l-5.62-3.24c-1.63-0.94-3.65-0.94-5.27,0l-5.62,3.24c-1.63,0.94-2.64,2.69-2.64,4.56v6.49
			c0,1.88,1.01,3.63,2.64,4.56l5.62,3.24c0.81,0.47,1.72,0.7,2.64,0.7s1.82-0.23,2.64-0.7l5.62-3.24c1.63-0.94,2.64-2.69,2.64-4.56
			v-6.49C167.55,507.69,166.54,505.94,164.91,505.01z M165.24,516.06c0,1.05-0.57,2.04-1.48,2.56l-5.62,3.24
			c-0.91,0.53-2.05,0.53-2.96,0l-5.62-3.24c-0.91-0.53-1.48-1.51-1.48-2.56v-6.49c0-1.05,0.57-2.04,1.48-2.56l5.62-3.24
			c0.46-0.26,0.97-0.4,1.48-0.4c0.51,0,1.02,0.13,1.48,0.4l5.62,3.24c0.91,0.53,1.48,1.51,1.48,2.56V516.06z"/>
		<linearGradient id="SVGID_8_" gradientUnits="userSpaceOnUse" x1="148.0764" y1="503.491" x2="166.2589" y2="520.0049">
			<stop  offset="0" style="stop-color:#E67097"/>
			<stop  offset="1" style="stop-color:#E84A87"/>
		</linearGradient>
		<path class="st12" d="M162.36,508.95c-0.16-0.27-0.5-0.36-0.78-0.21l-5.55,3.2c-0.01,0.01-0.02,0.01-0.03,0.02
			c-0.43,0.25-0.49,0.62-0.49,0.76v0.06v4.77c0,0.31,0.25,0.57,0.57,0.57h0.97c0.31,0,0.57-0.25,0.57-0.57v-4.09l5.01-2.89
			c0.27-0.16,0.36-0.5,0.21-0.78L162.36,508.95z"/>
	</g>
</g>
<g class="st10">
	<g>
		<path class="st3" d="M172.8,513.76v-7.55c0-0.14,0.11-0.25,0.25-0.25h1.36c0.14,0,0.25,0.11,0.25,0.25v7.55
			c0,0.14-0.11,0.25-0.25,0.25h-1.36C172.91,514.01,172.8,513.9,172.8,513.76z"/>
		<path class="st3" d="M180.21,507.73c0.49,0,0.93,0.1,1.32,0.29c0.39,0.2,0.69,0.5,0.92,0.9c0.22,0.4,0.33,0.92,0.33,1.55v3.29
			c0,0.14-0.11,0.25-0.25,0.25h-1.29c-0.14,0-0.25-0.11-0.25-0.25v-3.02c0-0.5-0.11-0.87-0.33-1.11c-0.22-0.24-0.53-0.36-0.93-0.36
			c-0.28,0-0.54,0.06-0.77,0.18c-0.23,0.12-0.4,0.3-0.53,0.55c-0.13,0.25-0.19,0.56-0.19,0.94v2.81c0,0.14-0.11,0.25-0.25,0.25
			h-1.29c-0.14,0-0.25-0.11-0.25-0.25v-5.69c0-0.14,0.11-0.25,0.25-0.25h1.21c0.14,0,0.25,0.11,0.25,0.25v1.46l-0.32-0.52
			c0.22-0.41,0.54-0.73,0.96-0.96C179.21,507.84,179.68,507.73,180.21,507.73z"/>
		<path class="st3" d="M183.67,509.08v-0.87c0-0.14,0.11-0.25,0.25-0.25h3.79c0.14,0,0.25,0.11,0.25,0.25v0.87
			c0,0.14-0.11,0.25-0.25,0.25h-3.79C183.78,509.34,183.67,509.22,183.67,509.08z M186.94,514.11c-0.73,0-1.3-0.19-1.7-0.56
			c-0.41-0.37-0.61-0.93-0.61-1.66v-5.18c0-0.14,0.11-0.25,0.25-0.25h1.29c0.14,0,0.25,0.11,0.25,0.25v5.16
			c0,0.26,0.07,0.46,0.21,0.6c0.14,0.14,0.33,0.21,0.56,0.21c0.19,0,0.35-0.03,0.5-0.1c0.13-0.06,0.28,0.02,0.33,0.15l0.3,0.79
			c0.05,0.12,0,0.26-0.12,0.32c-0.14,0.07-0.3,0.13-0.47,0.18C187.48,514.07,187.21,514.11,186.94,514.11z"/>
		<path class="st3" d="M192.29,514.11c-0.71,0-1.33-0.14-1.86-0.41c-0.53-0.28-0.95-0.65-1.24-1.13c-0.29-0.48-0.44-1.03-0.44-1.64
			c0-0.62,0.14-1.17,0.43-1.65c0.29-0.48,0.68-0.86,1.18-1.13c0.5-0.27,1.06-0.41,1.69-0.41c0.61,0,1.15,0.13,1.64,0.39
			c0.49,0.26,0.87,0.63,1.16,1.11c0.28,0.48,0.43,1.05,0.43,1.72c0,0.07,0,0.15-0.01,0.24c-0.01,0.09-0.02,0.17-0.02,0.25h-5.03
			v-1.05h4.09l-0.69,0.31c0-0.32-0.07-0.6-0.2-0.84c-0.13-0.24-0.31-0.42-0.54-0.56c-0.23-0.13-0.5-0.2-0.81-0.2
			c-0.31,0-0.58,0.07-0.81,0.2c-0.23,0.13-0.42,0.32-0.55,0.56c-0.13,0.24-0.2,0.53-0.2,0.86v0.28c0,0.34,0.07,0.64,0.22,0.89
			c0.15,0.26,0.36,0.45,0.63,0.59c0.27,0.13,0.59,0.2,0.96,0.2c0.33,0,0.62-0.05,0.87-0.15c0.18-0.07,0.35-0.17,0.51-0.3
			c0.1-0.08,0.25-0.07,0.34,0.03l0.62,0.68c0.1,0.1,0.09,0.27-0.01,0.36c-0.25,0.23-0.55,0.42-0.89,0.56
			C193.35,514.02,192.85,514.11,192.29,514.11z"/>
		<path class="st3" d="M200.25,507.73c0.49,0,0.93,0.1,1.32,0.29c0.39,0.2,0.69,0.5,0.92,0.9c0.22,0.4,0.33,0.92,0.33,1.55v3.29
			c0,0.14-0.11,0.25-0.25,0.25h-1.29c-0.14,0-0.25-0.11-0.25-0.25v-3.02c0-0.5-0.11-0.87-0.33-1.11c-0.22-0.24-0.53-0.36-0.93-0.36
			c-0.28,0-0.54,0.06-0.77,0.18c-0.23,0.12-0.4,0.3-0.53,0.55c-0.13,0.25-0.19,0.56-0.19,0.94v2.81c0,0.14-0.11,0.25-0.25,0.25
			h-1.29c-0.14,0-0.25-0.11-0.25-0.25v-5.69c0-0.14,0.11-0.25,0.25-0.25h1.21c0.14,0,0.25,0.11,0.25,0.25v1.46l-0.32-0.52
			c0.22-0.41,0.54-0.73,0.96-0.96C199.25,507.84,199.72,507.73,200.25,507.73z"/>
		<path class="st3" d="M203.7,509.08v-0.87c0-0.14,0.11-0.25,0.25-0.25h3.79c0.14,0,0.25,0.11,0.25,0.25v0.87
			c0,0.14-0.11,0.25-0.25,0.25h-3.79C203.82,509.34,203.7,509.22,203.7,509.08z M206.97,514.11c-0.73,0-1.3-0.19-1.7-0.56
			c-0.41-0.37-0.61-0.93-0.61-1.66v-5.18c0-0.14,0.11-0.25,0.25-0.25h1.29c0.14,0,0.25,0.11,0.25,0.25v5.16
			c0,0.26,0.07,0.46,0.21,0.6c0.14,0.14,0.33,0.21,0.56,0.21c0.19,0,0.35-0.03,0.5-0.1c0.13-0.06,0.28,0.02,0.33,0.15l0.3,0.79
			c0.05,0.12,0,0.26-0.12,0.32c-0.14,0.07-0.3,0.13-0.47,0.18C207.52,514.07,207.25,514.11,206.97,514.11z"/>
		<path class="st3" d="M210.35,506.95c-0.33,0-0.6-0.1-0.81-0.29c-0.21-0.19-0.31-0.43-0.31-0.71c0-0.28,0.1-0.52,0.31-0.71
			c0.21-0.19,0.48-0.29,0.81-0.29s0.6,0.09,0.81,0.27c0.21,0.18,0.31,0.41,0.31,0.7c0,0.3-0.1,0.55-0.31,0.74
			C210.96,506.86,210.69,506.95,210.35,506.95z M209.45,513.76v-5.69c0-0.14,0.11-0.25,0.25-0.25h1.29c0.14,0,0.25,0.11,0.25,0.25
			v5.69c0,0.14-0.11,0.25-0.25,0.25h-1.29C209.56,514.01,209.45,513.9,209.45,513.76z"/>
		<path class="st3" d="M215.86,514.11c-0.66,0-1.25-0.14-1.76-0.41c-0.51-0.28-0.91-0.65-1.21-1.13c-0.3-0.48-0.44-1.03-0.44-1.64
			c0-0.62,0.15-1.17,0.44-1.65c0.3-0.48,0.7-0.86,1.21-1.13c0.51-0.27,1.1-0.41,1.76-0.41c0.65,0,1.24,0.14,1.75,0.41
			c0.51,0.27,0.92,0.65,1.21,1.12c0.29,0.48,0.44,1.03,0.44,1.66c0,0.61-0.15,1.16-0.44,1.64c-0.29,0.48-0.69,0.86-1.21,1.13
			C217.1,513.97,216.52,514.11,215.86,514.11z M215.86,512.63c0.3,0,0.57-0.07,0.81-0.21c0.24-0.14,0.43-0.34,0.56-0.59
			c0.14-0.26,0.21-0.56,0.21-0.92c0-0.36-0.07-0.67-0.21-0.92c-0.14-0.25-0.33-0.45-0.56-0.59c-0.24-0.14-0.51-0.21-0.81-0.21
			c-0.3,0-0.57,0.07-0.81,0.21c-0.24,0.14-0.43,0.33-0.57,0.59c-0.14,0.25-0.21,0.56-0.21,0.92c0,0.35,0.07,0.66,0.21,0.92
			c0.14,0.26,0.33,0.45,0.57,0.59C215.3,512.56,215.56,512.63,215.86,512.63z"/>
		<path class="st3" d="M224.22,507.73c0.49,0,0.93,0.1,1.32,0.29c0.39,0.2,0.69,0.5,0.92,0.9c0.22,0.4,0.33,0.92,0.33,1.55v3.29
			c0,0.14-0.11,0.25-0.25,0.25h-1.29c-0.14,0-0.25-0.11-0.25-0.25v-3.02c0-0.5-0.11-0.87-0.33-1.11c-0.22-0.24-0.53-0.36-0.93-0.36
			c-0.28,0-0.54,0.06-0.77,0.18c-0.23,0.12-0.4,0.3-0.53,0.55c-0.13,0.25-0.19,0.56-0.19,0.94v2.81c0,0.14-0.11,0.25-0.25,0.25
			h-1.29c-0.14,0-0.25-0.11-0.25-0.25v-5.69c0-0.14,0.11-0.25,0.25-0.25h1.21c0.14,0,0.25,0.11,0.25,0.25v1.46l-0.32-0.52
			c0.22-0.41,0.54-0.73,0.96-0.96C223.22,507.84,223.69,507.73,224.22,507.73z"/>
		<path class="st3" d="M230.33,514.11c-0.48,0-0.9-0.08-1.24-0.25c-0.35-0.17-0.61-0.39-0.79-0.67c-0.18-0.28-0.28-0.6-0.28-0.96
			c0-0.37,0.09-0.69,0.27-0.97c0.18-0.28,0.47-0.49,0.86-0.65c0.39-0.16,0.9-0.24,1.53-0.24h1.65v1.05h-1.45
			c-0.42,0-0.71,0.07-0.87,0.21c-0.16,0.14-0.24,0.31-0.24,0.52c0,0.23,0.09,0.41,0.27,0.55c0.18,0.13,0.43,0.2,0.74,0.2
			c0.3,0,0.57-0.07,0.81-0.21c0.24-0.14,0.41-0.35,0.52-0.63l0.28,0.83c-0.13,0.4-0.37,0.7-0.71,0.91S230.87,514.11,230.33,514.11z
			 M232.22,513.76v-0.95l-0.12-0.26v-2.16c0-0.38-0.12-0.68-0.35-0.9c-0.23-0.21-0.59-0.32-1.08-0.32c-0.33,0-0.65,0.05-0.97,0.16
			c-0.22,0.07-0.41,0.16-0.59,0.26c-0.13,0.08-0.29,0.03-0.36-0.1l-0.41-0.79c-0.06-0.12-0.02-0.27,0.1-0.34
			c0.29-0.17,0.63-0.31,1.01-0.42c0.48-0.13,0.96-0.2,1.45-0.2c0.94,0,1.68,0.22,2.2,0.67c0.52,0.45,0.78,1.14,0.78,2.08v3.28
			c0,0.14-0.11,0.25-0.25,0.25h-1.17C232.33,514.01,232.22,513.9,232.22,513.76z"/>
		<path class="st3" d="M235.52,513.76v-8.03c0-0.14,0.11-0.25,0.25-0.25h1.29c0.14,0,0.25,0.11,0.25,0.25v8.03
			c0,0.14-0.11,0.25-0.25,0.25h-1.29C235.63,514.01,235.52,513.9,235.52,513.76z"/>
	</g>
	<g>
		<path class="st3" d="M173.98,520.5v-2.84h-1.05c-0.06,0-0.11-0.05-0.11-0.11v-0.46c0-0.06,0.05-0.11,0.11-0.11h2.95
			c0.06,0,0.11,0.05,0.11,0.11v0.46c0,0.06-0.05,0.11-0.11,0.11h-1.05v2.84c0,0.06-0.05,0.11-0.11,0.11h-0.62
			C174.03,520.62,173.98,520.56,173.98,520.5z"/>
		<path class="st3" d="M180.2,519.94h1.87c0.06,0,0.11,0.05,0.11,0.11v0.45c0,0.06-0.05,0.11-0.11,0.11h-2.71v-3.65H182
			c0.06,0,0.11,0.05,0.11,0.11v0.45c0,0.06-0.05,0.11-0.11,0.11h-1.8V519.94z M180.14,518.44h1.64c0.06,0,0.11,0.05,0.11,0.11v0.43
			c0,0.06-0.05,0.11-0.11,0.11h-1.64V518.44z"/>
		<path class="st3" d="M187.52,520.68c-0.28,0-0.54-0.05-0.78-0.14c-0.24-0.09-0.45-0.22-0.63-0.39c-0.18-0.17-0.32-0.37-0.41-0.6
			c-0.1-0.23-0.15-0.48-0.15-0.76c0-0.27,0.05-0.53,0.15-0.76c0.1-0.23,0.24-0.43,0.42-0.6c0.18-0.17,0.39-0.3,0.63-0.39
			c0.24-0.09,0.5-0.14,0.79-0.14c0.32,0,0.6,0.05,0.86,0.16c0.22,0.09,0.41,0.23,0.57,0.4c0.04,0.05,0.04,0.12-0.01,0.16l-0.38,0.35
			c-0.05,0.04-0.11,0.04-0.16-0.01c-0.1-0.1-0.22-0.18-0.34-0.24c-0.15-0.07-0.32-0.11-0.5-0.11c-0.17,0-0.33,0.03-0.47,0.08
			c-0.14,0.06-0.27,0.14-0.37,0.24c-0.1,0.1-0.18,0.23-0.24,0.37c-0.06,0.14-0.09,0.3-0.09,0.47c0,0.17,0.03,0.33,0.09,0.47
			c0.06,0.14,0.14,0.27,0.24,0.37c0.1,0.1,0.23,0.18,0.37,0.24c0.14,0.06,0.3,0.08,0.47,0.08c0.18,0,0.35-0.04,0.5-0.11
			c0.12-0.06,0.24-0.14,0.34-0.24c0.04-0.04,0.11-0.05,0.16-0.01l0.38,0.35c0.05,0.04,0.05,0.12,0.01,0.16
			c-0.16,0.17-0.35,0.3-0.57,0.4C188.13,520.62,187.84,520.68,187.52,520.68z"/>
		<path class="st3" d="M193.24,520.62h-0.62c-0.06,0-0.11-0.05-0.11-0.11v-3.42c0-0.06,0.05-0.11,0.11-0.11h0.62
			c0.06,0,0.11,0.05,0.11,0.11v3.42C193.35,520.56,193.3,520.62,193.24,520.62z M195.07,519.12h-1.78v-0.71h1.78V519.12z
			 M195.12,516.97h0.62c0.06,0,0.11,0.05,0.11,0.11v3.42c0,0.06-0.05,0.11-0.11,0.11h-0.62c-0.06,0-0.11-0.05-0.11-0.11v-3.42
			C195.01,517.02,195.06,516.97,195.12,516.97z"/>
		<path class="st3" d="M199.63,520.5v-3.42c0-0.06,0.05-0.11,0.11-0.11h0.53c0.03,0,0.07,0.02,0.09,0.04l2.12,2.58h-0.34v-2.51
			c0-0.06,0.05-0.11,0.11-0.11h0.61c0.06,0,0.11,0.05,0.11,0.11v3.42c0,0.06-0.05,0.11-0.11,0.11h-0.53c-0.03,0-0.07-0.02-0.09-0.04
			l-2.12-2.58h0.34v2.51c0,0.06-0.05,0.11-0.11,0.11h-0.61C199.68,520.62,199.63,520.56,199.63,520.5z"/>
		<path class="st3" d="M208.53,520.68c-0.29,0-0.55-0.05-0.8-0.14c-0.24-0.09-0.46-0.23-0.64-0.4c-0.18-0.17-0.32-0.37-0.42-0.6
			c-0.1-0.23-0.15-0.48-0.15-0.75s0.05-0.52,0.15-0.75c0.1-0.23,0.24-0.43,0.42-0.6c0.18-0.17,0.39-0.3,0.64-0.4
			c0.24-0.09,0.51-0.14,0.79-0.14c0.29,0,0.55,0.05,0.79,0.14c0.24,0.09,0.45,0.23,0.63,0.4c0.18,0.17,0.32,0.37,0.42,0.6
			c0.1,0.23,0.15,0.48,0.15,0.75c0,0.27-0.05,0.52-0.15,0.75c-0.1,0.23-0.24,0.43-0.42,0.6c-0.18,0.17-0.39,0.3-0.63,0.39
			C209.08,520.63,208.81,520.68,208.53,520.68z M208.52,519.96c0.16,0,0.31-0.03,0.45-0.08c0.14-0.06,0.26-0.14,0.36-0.24
			c0.1-0.1,0.18-0.23,0.24-0.37c0.06-0.14,0.09-0.3,0.09-0.47c0-0.17-0.03-0.33-0.09-0.47c-0.06-0.14-0.14-0.27-0.24-0.37
			c-0.1-0.1-0.22-0.18-0.36-0.24c-0.14-0.06-0.29-0.08-0.45-0.08c-0.16,0-0.31,0.03-0.45,0.08c-0.14,0.06-0.26,0.14-0.36,0.24
			c-0.1,0.1-0.18,0.23-0.24,0.37c-0.06,0.14-0.09,0.3-0.09,0.47c0,0.17,0.03,0.33,0.09,0.47c0.06,0.14,0.14,0.27,0.24,0.37
			c0.1,0.1,0.22,0.18,0.36,0.24C208.21,519.93,208.36,519.96,208.52,519.96z"/>
		<path class="st3" d="M214.07,520.62v-3.53c0-0.06,0.05-0.11,0.11-0.11h0.62c0.06,0,0.11,0.05,0.11,0.11v2.84h1.71
			c0.06,0,0.11,0.05,0.11,0.11v0.46c0,0.06-0.05,0.11-0.11,0.11H214.07z"/>
		<path class="st3" d="M221.84,520.68c-0.29,0-0.55-0.05-0.8-0.14c-0.24-0.09-0.46-0.23-0.64-0.4c-0.18-0.17-0.32-0.37-0.42-0.6
			c-0.1-0.23-0.15-0.48-0.15-0.75s0.05-0.52,0.15-0.75c0.1-0.23,0.24-0.43,0.42-0.6c0.18-0.17,0.39-0.3,0.64-0.4
			c0.24-0.09,0.51-0.14,0.79-0.14c0.29,0,0.55,0.05,0.79,0.14c0.24,0.09,0.45,0.23,0.63,0.4c0.18,0.17,0.32,0.37,0.42,0.6
			c0.1,0.23,0.15,0.48,0.15,0.75c0,0.27-0.05,0.52-0.15,0.75c-0.1,0.23-0.24,0.43-0.42,0.6c-0.18,0.17-0.39,0.3-0.63,0.39
			C222.39,520.63,222.13,520.68,221.84,520.68z M221.84,519.96c0.16,0,0.31-0.03,0.45-0.08c0.14-0.06,0.26-0.14,0.36-0.24
			c0.1-0.1,0.18-0.23,0.24-0.37c0.06-0.14,0.09-0.3,0.09-0.47c0-0.17-0.03-0.33-0.09-0.47c-0.06-0.14-0.14-0.27-0.24-0.37
			c-0.1-0.1-0.22-0.18-0.36-0.24c-0.14-0.06-0.29-0.08-0.45-0.08c-0.16,0-0.31,0.03-0.45,0.08c-0.14,0.06-0.26,0.14-0.36,0.24
			c-0.1,0.1-0.18,0.23-0.24,0.37c-0.06,0.14-0.09,0.3-0.09,0.47c0,0.17,0.03,0.33,0.09,0.47c0.06,0.14,0.14,0.27,0.24,0.37
			c0.1,0.1,0.22,0.18,0.36,0.24C221.52,519.93,221.67,519.96,221.84,519.96z"/>
		<path class="st3" d="M229.14,520.68c-0.29,0-0.55-0.05-0.79-0.14c-0.24-0.09-0.45-0.22-0.63-0.39c-0.18-0.17-0.32-0.37-0.42-0.6
			c-0.1-0.23-0.15-0.48-0.15-0.76c0-0.27,0.05-0.53,0.15-0.76c0.1-0.23,0.24-0.43,0.42-0.6c0.18-0.17,0.39-0.3,0.64-0.39
			c0.24-0.09,0.51-0.14,0.8-0.14c0.32,0,0.61,0.05,0.87,0.16c0.22,0.09,0.41,0.22,0.58,0.38c0.04,0.05,0.04,0.12-0.01,0.16
			l-0.38,0.35c-0.04,0.04-0.11,0.04-0.16,0c-0.11-0.1-0.23-0.18-0.36-0.23c-0.16-0.07-0.33-0.1-0.51-0.1
			c-0.18,0-0.34,0.03-0.48,0.08c-0.15,0.06-0.27,0.14-0.38,0.24c-0.11,0.1-0.19,0.23-0.24,0.37c-0.06,0.14-0.09,0.3-0.09,0.47
			c0,0.17,0.03,0.33,0.09,0.47c0.06,0.14,0.14,0.27,0.24,0.37c0.11,0.11,0.23,0.19,0.38,0.24c0.14,0.06,0.3,0.08,0.48,0.08
			c0.17,0,0.33-0.03,0.49-0.08c0.16-0.05,0.31-0.15,0.46-0.27l0.48,0.61c-0.2,0.15-0.43,0.26-0.69,0.34
			C229.67,520.64,229.4,520.68,229.14,520.68z M229.85,520.11v-1.26c0-0.06,0.05-0.11,0.11-0.11h0.54c0.06,0,0.11,0.05,0.11,0.11
			v1.37L229.85,520.11z"/>
		<path class="st3" d="M235.34,520.62c-0.06,0-0.11-0.05-0.11-0.11v-1.38l0.19,0.51l-1.5-2.49c-0.05-0.08,0.01-0.17,0.1-0.17h0.63
			c0.04,0,0.08,0.02,0.1,0.06l1.2,1.99h-0.52l1.2-1.99c0.02-0.03,0.06-0.05,0.1-0.05h0.56c0.09,0,0.14,0.1,0.1,0.17l-1.5,2.49
			l0.19-0.51v1.38c0,0.06-0.05,0.11-0.11,0.11H235.34z"/>
	</g>
</g>
</svg>
